<svg width="326" height="348" viewBox="0 0 326 348" fill="none" xmlns="http://www.w3.org/2000/svg">
<path d="M54.8584 273.596C32.2575 234.45 20.9571 214.877 22.3978 195.393C22.986 187.438 25.0685 179.666 28.5363 172.484C37.031 154.889 56.6039 143.589 95.7496 120.988C134.895 98.3869 154.468 87.0865 173.953 88.5272C181.907 89.1154 189.679 91.1979 196.862 94.6657C214.457 103.16 225.757 122.733 248.358 161.879C270.959 201.025 282.259 220.598 280.818 240.082C280.23 248.037 278.148 255.809 274.68 262.991C266.185 280.586 246.612 291.887 207.467 314.487C168.321 337.088 148.748 348.389 129.263 346.948C121.309 346.36 113.537 344.277 106.354 340.809C88.7596 332.315 77.4592 312.742 54.8584 273.596Z" fill="#5A6EC0"/>
<path d="M93.7434 190.398C70.6079 150.326 59.0402 130.291 60.515 110.345C61.117 102.202 63.2488 94.2465 66.7986 86.894C75.4943 68.8831 95.5302 57.3154 135.602 34.1799C175.674 11.0445 195.71 -0.523266 215.655 0.951509C223.798 1.55356 231.754 3.68534 239.106 7.23517C257.117 15.9308 268.685 35.9667 291.82 76.0385C314.956 116.11 326.524 136.146 325.049 156.092C324.447 164.234 322.315 172.19 318.765 179.543C310.069 197.554 290.034 209.121 249.962 232.257C209.89 255.392 189.854 266.96 169.908 265.485C161.766 264.883 153.81 262.751 146.457 259.202C128.447 250.506 116.879 230.47 93.7434 190.398Z" fill="#FC7183"/>
<path fill-rule="evenodd" clip-rule="evenodd" d="M1.2666 47.0846C1.2666 50.6296 4.13597 53.5086 7.69057 53.5086C11.2452 53.5086 14.1145 50.6296 14.1145 47.0846C14.1145 43.5396 11.2452 40.6606 7.69057 40.6606C4.13597 40.6606 1.2666 43.5396 1.2666 47.0846Z" stroke="#4A6CF7" stroke-width="2" stroke-miterlimit="2.6131"/>
<path fill-rule="evenodd" clip-rule="evenodd" d="M178.116 57.6651C178.116 61.6396 181.344 64.8448 185.295 64.8448C189.246 64.8448 192.475 61.6396 192.475 57.6651C192.475 53.6906 189.246 50.4854 185.295 50.4854C181.344 50.4854 178.116 53.6906 178.116 57.6651Z" stroke="white" stroke-width="2" stroke-miterlimit="2.6131"/>
<path d="M127.176 13.4532L129.973 10.4536M132.769 13.4532L129.973 10.4536L132.769 13.4532ZM104.806 13.4532L107.602 10.4536L104.806 13.4532ZM110.398 13.4532L107.602 10.4536L110.398 13.4532ZM110.398 13.4532L113.195 10.4536L110.398 13.4532ZM115.991 13.4532L113.195 10.4536L115.991 13.4532ZM115.991 13.4532L118.787 10.4536L115.991 13.4532ZM121.584 13.4532L118.787 10.4536L121.584 13.4532ZM121.584 13.4532L124.38 10.4302L121.584 13.4532ZM127.176 13.4532L124.38 10.4302L127.176 13.4532Z" stroke="#4A6CF7" stroke-width="2" stroke-miterlimit="2.6131" stroke-linecap="round" stroke-linejoin="round"/>
<path d="M61.1228 193.324L66.7155 187.325M72.3081 193.324L66.7155 187.325L72.3081 193.324ZM16.3818 193.324L21.9745 187.325L16.3818 193.324ZM27.5671 193.324L21.9745 187.325L27.5671 193.324ZM27.5671 193.324L33.1597 187.325L27.5671 193.324ZM38.7524 193.324L33.1597 187.325L38.7524 193.324ZM38.7524 193.324L44.345 187.325L38.7524 193.324ZM49.9377 193.324L44.345 187.325L49.9377 193.324ZM49.9377 193.324L55.5303 187.278L49.9377 193.324ZM61.1228 193.324L55.5303 187.278L61.1228 193.324Z" stroke="white" stroke-width="2" stroke-miterlimit="2.6131" stroke-linecap="round" stroke-linejoin="round"/>
<path d="M172.825 163.704L183.486 163.704" stroke="#59598D" stroke-width="4" stroke-miterlimit="2.6131" stroke-linecap="round" stroke-linejoin="round"/>
<path d="M178.155 169.035L178.161 158.559" stroke="#59598D" stroke-width="4" stroke-miterlimit="2.6131" stroke-linecap="round" stroke-linejoin="round"/>
<path d="M19.4058 150.896L25.4518 150.896" stroke="#4A6CF7" stroke-width="2" stroke-miterlimit="2.6131" stroke-linecap="round" stroke-linejoin="round"/>
<path d="M22.428 153.919L22.4316 147.978" stroke="#4A6CF7" stroke-width="2" stroke-miterlimit="2.6131" stroke-linecap="round" stroke-linejoin="round"/>
<path d="M179.138 129.744C192.612 116.282 192.612 94.4562 179.138 80.9945C165.663 67.5327 143.816 67.5328 130.341 80.9945C116.866 94.4562 116.866 116.282 130.341 129.744C143.816 143.206 165.663 143.206 179.138 129.744Z" fill="#4A6CF7"/>
<path fill-rule="evenodd" clip-rule="evenodd" d="M101.686 35.9803C99.2109 33.5073 96.4771 31.4429 93.5928 29.7871L107.886 44.0659C106.207 41.1844 104.162 38.4533 101.686 35.9803Z" fill="#4A6CF7"/>
<path fill-rule="evenodd" clip-rule="evenodd" d="M89.7607 27.8731C88.749 27.4431 87.7158 27.056 86.6826 26.7119L110.963 50.9687C110.619 49.9365 110.231 48.9043 109.801 47.8936L89.7607 27.8731Z" fill="#4A6CF7"/>
<path fill-rule="evenodd" clip-rule="evenodd" d="M83.9719 25.915C83.154 25.7 82.3575 25.528 81.5396 25.3774L112.278 56.107C112.127 55.2898 111.955 54.4727 111.739 53.677L83.9719 25.915Z" fill="#4A6CF7"/>
<path fill-rule="evenodd" clip-rule="evenodd" d="M79.2789 25.0339C78.5686 24.9479 77.8798 24.8834 77.1694 24.8188L112.837 60.4513C112.794 59.7417 112.729 59.0536 112.621 58.3439L79.2789 25.0339Z" fill="#4A6CF7"/>
<path fill-rule="evenodd" clip-rule="evenodd" d="M75.1877 24.754C74.5635 24.7325 73.9177 24.754 73.2935 24.7755L112.9 64.3433C112.921 63.7197 112.921 63.0745 112.921 62.4509L75.1877 24.754Z" fill="#4A6CF7"/>
<path fill-rule="evenodd" clip-rule="evenodd" d="M71.4857 24.8613C70.9045 24.9043 70.3233 24.9689 69.7637 25.0334L112.642 67.8698C112.706 67.2892 112.771 66.7085 112.814 66.1494L71.4857 24.8613Z" fill="#4A6CF7"/>
<path fill-rule="evenodd" clip-rule="evenodd" d="M68.0845 25.27C67.5464 25.356 67.0083 25.4636 66.4917 25.5711L112.082 71.117C112.19 70.5794 112.297 70.0633 112.383 69.5257L68.0845 25.27Z" fill="#4A6CF7"/>
<path fill-rule="evenodd" clip-rule="evenodd" d="M64.9428 25.937C64.4477 26.066 63.9526 26.1951 63.4575 26.3456L111.308 74.1494C111.459 73.6548 111.588 73.1602 111.717 72.6656L64.9428 25.937Z" fill="#4A6CF7"/>
<path fill-rule="evenodd" clip-rule="evenodd" d="M62.0153 26.8184C61.5418 26.9689 61.0898 27.1409 60.6162 27.3345L110.339 77.0092C110.512 76.5576 110.684 76.0845 110.856 75.6114L62.0153 26.8184Z" fill="#4A6CF7"/>
<path fill-rule="evenodd" clip-rule="evenodd" d="M59.2603 27.894C58.8298 28.0876 58.3778 28.2811 57.9473 28.4962L109.177 79.6762C109.393 79.2461 109.586 78.8161 109.78 78.3645L59.2603 27.894Z" fill="#4A6CF7"/>
<path fill-rule="evenodd" clip-rule="evenodd" d="M56.6757 29.1201C56.2667 29.3352 55.8577 29.5717 55.4487 29.7867L107.863 82.1495C108.099 81.7409 108.315 81.3324 108.53 80.9238L56.6757 29.1201Z" fill="#4A6CF7"/>
<path fill-rule="evenodd" clip-rule="evenodd" d="M54.2434 30.4961C53.8559 30.7326 53.4685 30.9907 53.0811 31.2487L106.399 84.5147C106.657 84.1276 106.916 83.7405 107.152 83.3534L54.2434 30.4961Z" fill="#4A6CF7"/>
<path fill-rule="evenodd" clip-rule="evenodd" d="M51.984 32.0225C51.6181 32.2805 51.2522 32.5601 50.8862 32.8396L104.807 86.7077C105.087 86.3421 105.367 85.9766 105.625 85.611L51.984 32.0225Z" fill="#4A6CF7"/>
<path fill-rule="evenodd" clip-rule="evenodd" d="M49.8325 33.6997C49.4881 33.9793 49.1437 34.2803 48.8208 34.5814L103.086 88.7935C103.387 88.4495 103.688 88.1269 103.968 87.7828L49.8325 33.6997Z" fill="#4A6CF7"/>
<path fill-rule="evenodd" clip-rule="evenodd" d="M47.8304 35.5059C47.6582 35.6564 47.5075 35.8069 47.3569 35.979C47.2062 36.1295 47.034 36.3015 46.8833 36.452L101.192 90.7072C101.364 90.5566 101.514 90.4061 101.665 90.2341C101.816 90.0836 101.988 89.9115 102.139 89.761L47.8304 35.5059Z" fill="#4A6CF7"/>
<path fill-rule="evenodd" clip-rule="evenodd" d="M45.9572 37.4419C45.6559 37.786 45.3545 38.1085 45.0747 38.4526L99.189 92.5142C99.5334 92.2346 99.8778 91.9336 100.201 91.6325L45.9572 37.4419Z" fill="#4A6CF7"/>
<path fill-rule="evenodd" clip-rule="evenodd" d="M44.2145 39.5283C43.9346 39.8939 43.6548 40.238 43.3965 40.625L97.0588 94.235C97.4247 93.977 97.7906 93.6974 98.1565 93.4179L44.2145 39.5283Z" fill="#4A6CF7"/>
<path fill-rule="evenodd" clip-rule="evenodd" d="M42.622 41.7212C42.3637 42.1083 42.1054 42.4953 41.8687 42.8824L94.7777 95.7398C95.1651 95.5033 95.5526 95.2452 95.9401 94.9872L42.622 41.7212Z" fill="#4A6CF7"/>
<path fill-rule="evenodd" clip-rule="evenodd" d="M41.157 44.0654C40.9202 44.474 40.705 44.8826 40.4897 45.2912L92.3654 97.1164C92.7744 96.9013 93.1834 96.6648 93.5924 96.4497L41.157 44.0654Z" fill="#4A6CF7"/>
<path fill-rule="evenodd" clip-rule="evenodd" d="M39.8439 46.5811C39.6287 47.0111 39.4349 47.4412 39.2412 47.8928L89.7608 98.3632C90.1913 98.1697 90.6433 97.9761 91.0739 97.7611L39.8439 46.5811Z" fill="#4A6CF7"/>
<path fill-rule="evenodd" clip-rule="evenodd" d="M38.6831 49.2266C38.5109 49.6782 38.3387 50.1512 38.1665 50.6243L87.0072 99.4174C87.4807 99.2669 87.9328 99.0949 88.4063 98.9013L38.6831 49.2266Z" fill="#4A6CF7"/>
<path fill-rule="evenodd" clip-rule="evenodd" d="M37.7142 52.0649C37.5635 52.5595 37.4343 53.0541 37.3052 53.5487L84.0794 100.299C84.5745 100.17 85.0696 100.041 85.5647 99.8903L37.7142 52.0649Z" fill="#4A6CF7"/>
<path fill-rule="evenodd" clip-rule="evenodd" d="M36.9381 55.0962C36.8305 55.6338 36.7228 56.1499 36.6367 56.6875L80.9357 100.943C81.4738 100.857 82.012 100.75 82.5286 100.642L36.9381 55.0962Z" fill="#4A6CF7"/>
<path fill-rule="evenodd" clip-rule="evenodd" d="M36.4002 58.3652C36.3357 58.9458 36.2711 59.5265 36.228 60.0856L77.5563 101.374C78.1374 101.331 78.7186 101.266 79.2783 101.202L36.4002 58.3652Z" fill="#4A6CF7"/>
<path fill-rule="evenodd" clip-rule="evenodd" d="M36.1206 61.8926C36.0991 62.5162 36.0991 63.1613 36.0991 63.7849L73.8326 101.482C74.4569 101.503 75.1026 101.482 75.7269 101.46L36.1206 61.8926Z" fill="#4A6CF7"/>
<path fill-rule="evenodd" clip-rule="evenodd" d="M36.1846 65.7842C36.2276 66.4938 36.2922 67.182 36.3998 67.8916L69.7425 101.202C70.4528 101.288 71.1416 101.352 71.852 101.417L36.1846 65.7842Z" fill="#4A6CF7"/>
<path fill-rule="evenodd" clip-rule="evenodd" d="M36.7437 70.1504C36.8943 70.9676 37.0665 71.7847 37.2818 72.5804L65.0492 100.321C65.8671 100.536 66.6635 100.708 67.4815 100.858L36.7437 70.1504Z" fill="#4A6CF7"/>
<path fill-rule="evenodd" clip-rule="evenodd" d="M38.0591 75.2681C38.4035 76.3003 38.7909 77.3325 39.2214 78.3432L59.2399 98.3636C60.2516 98.7937 61.2847 99.1808 62.318 99.5248L38.0591 75.2681Z" fill="#4A6CF7"/>
<path fill-rule="evenodd" clip-rule="evenodd" d="M41.1567 82.1709C42.8142 85.074 44.8806 87.7835 47.356 90.2565C49.8313 92.7295 52.565 94.7939 55.4494 96.4497L41.1567 82.1709Z" fill="#4A6CF7"/>
<path d="M96.9372 184.32C95.1746 183.665 93.2836 183.774 91.4648 183.424C87.8232 182.73 84.1735 182.079 80.6965 180.73C82.4551 178.823 84.2498 176.948 85.9642 175.009C91.7498 168.46 96.7284 161.378 100.017 153.219C102.092 148.048 103.518 142.748 102.695 137.063C101.607 129.543 97.2343 124.789 90.3406 122.087C89.9406 121.796 89.5114 121.547 89.0598 121.344C81.4809 118.792 73.4013 118.09 65.4957 119.297C64.4639 119.449 63.4882 120.144 62.3721 119.698L71.1328 111.877C71.7029 112.483 72.3373 112.563 73.1604 112.371C76.8542 111.495 80.4878 110.472 83.7881 108.52C84.2538 108.247 84.7316 108.079 85.1853 108.428C85.639 108.777 85.4583 109.307 85.2817 109.793C85.0608 110.399 84.8802 111.022 84.6995 111.64C84.2739 113.089 84.8119 113.728 86.2573 113.318C90.8505 112.025 95.2951 110.436 98.7038 106.814C99.559 105.903 100.286 106.156 100.551 107.404C100.845 108.926 100.98 110.475 100.952 112.025C100.952 113.471 101.414 113.904 102.755 113.631C107.448 112.736 111.612 110.821 114.599 106.942C115.531 105.738 116.205 105.866 117.064 106.862C118.333 108.713 119.337 110.68 119.642 112.945C119.742 113.696 120.044 114.29 120.943 114.23C121.698 114.547 122.019 115.274 122.392 115.9C126.909 123.44 129.242 131.506 128.583 140.391C128.252 144.868 127.245 149.269 125.596 153.444C123.312 159.294 120.437 164.923 118.843 171.034C117.819 174.965 116.984 178.887 120.381 182.22C117.149 183.24 113.796 183.593 110.452 184.002C110.05 184.051 109.54 183.774 109.247 184.303L96.9372 184.32Z" fill="#543438"/>
<path d="M120.895 114.242C119.98 114.302 119.691 113.708 119.594 112.957C119.289 110.693 118.285 108.725 117.017 106.874C117.229 105.048 117.547 103.225 117.639 101.39C117.845 97.403 117.549 93.406 116.756 89.4934C115.218 81.9251 112.106 75.0956 107.015 69.2337C105.297 67.2543 105.281 67.2904 107.758 66.636C108.252 66.5035 108.962 66.6561 109.163 65.9735C109.364 65.291 108.693 64.9336 108.304 64.5201C103.715 59.6619 98.0577 56.7029 91.6257 55.0407C86.9773 53.8819 82.1871 53.3939 77.4005 53.5913C77.0432 53.0251 76.8063 52.3225 75.9632 52.2864C74.9795 51.8287 74.0199 51.2947 73.0001 50.9173C69.7881 49.7128 67.1181 47.9622 65.199 44.9992C64.1591 43.3932 62.6253 42.0923 60.5576 41.759C61.8183 39.9001 63.7455 38.808 65.5362 37.6156C70.6714 34.1988 76.4169 32.1913 82.4514 31.1594C86.9241 30.4396 91.4682 30.2711 95.982 30.6576C102.807 31.1795 108.782 33.7853 114.451 37.3907C114.905 37.6798 115.39 37.9207 115.86 38.1937C116.017 38.6755 116.483 38.8201 116.84 39.081C119.461 41.005 121.947 43.1071 124.28 45.3725C130.162 51.0995 135.302 57.5433 139.577 64.5522C148.615 79.3555 155.874 94.8333 156.97 112.535C157.014 112.856 156.987 113.182 156.89 113.49C156.793 113.799 156.628 114.081 156.408 114.318C155.625 114.362 155.3 113.748 154.886 113.258C152.556 110.504 149.774 108.166 146.659 106.344C145.567 105.698 144.985 105.867 144.439 106.987C143.054 109.829 140.769 111.805 138.043 113.314C136.903 113.949 136.232 113.788 135.807 112.463C135.076 110.199 133.771 108.247 132.282 106.409C131.555 105.517 130.912 105.529 130.25 106.457C127.813 109.87 124.557 112.303 120.895 114.242ZM82.1262 50.2267C83.0127 50.2674 83.8968 50.1051 84.7111 49.7523C85.5254 49.3995 86.2484 48.8655 86.825 48.1909C87.4016 47.5163 87.8166 46.719 88.0383 45.8598C88.2601 45.0005 88.2827 44.1019 88.1045 43.2326C87.9921 42.6343 87.8235 42.2971 88.6666 42.0963C89.8711 41.8032 90.4935 40.8918 90.3088 39.603C90.1241 38.3142 89.293 37.6758 88.0323 37.6517C86.5835 37.5734 85.1313 37.5854 83.684 37.6878C80.2673 37.977 77.0144 39.2784 74.3411 41.4258C73.9294 41.7217 73.6292 42.1475 73.4886 42.6347C73.3481 43.1218 73.3754 43.6421 73.5662 44.1118C73.6965 44.5801 73.9965 44.983 74.4077 45.242C74.819 45.5011 75.3119 45.5977 75.7905 45.5131C76.6859 45.3725 76.8505 45.8383 77.1075 46.4927C77.4845 47.5394 78.1617 48.4518 79.0543 49.1158C79.9468 49.7799 81.0153 50.1663 82.1262 50.2267Z" fill="#E5EFFE"/>
<path d="M71.1089 111.873L62.3482 119.694C61.8383 120.091 61.2559 120.384 60.6338 120.557C55.338 122.204 50.5401 124.821 46.0473 128.045C42.0082 130.96 38.491 134.421 34.9619 137.89C32.8982 133.578 31.782 128.973 30.8786 124.323C29.9832 119.713 29.5568 115.024 29.6059 110.327C29.7665 95.1745 34.1214 81.3375 42.6707 68.8161C42.9959 68.3463 43.558 67.9609 43.4737 67.2663C43.9956 67.2301 44.1964 66.8648 44.357 66.4312C44.9953 65.6763 45.7662 65.0139 46.1236 64.0543V64.0904L46.4448 63.7893C47.1661 63.3455 47.9641 63.0405 48.7976 62.8899C52.4994 61.9946 56.2253 62.3278 59.9512 62.6611L65.6806 63.7491C66.6723 64.0744 67.6881 64.3594 68.6517 64.7328C78.9623 68.6755 83.9609 77.9823 81.7527 88.6381C80.4277 95.0621 77.6253 100.779 74.3972 106.372C73.3131 108.219 71.8115 109.809 71.1089 111.873Z" fill="#859DFF"/>
<path d="M120.894 114.241C124.556 112.302 127.812 109.869 130.249 106.456C130.912 105.529 131.554 105.517 132.281 106.408C133.77 108.247 135.091 110.198 135.806 112.463C136.231 113.788 136.902 113.948 138.042 113.314C140.768 111.796 143.053 109.829 144.438 106.986C144.984 105.866 145.566 105.697 146.658 106.344C149.773 108.165 152.555 110.503 154.885 113.258C155.287 113.748 155.624 114.362 156.407 114.318C159.145 124.423 160.249 134.714 160.109 145.173C160.048 149.63 159.583 154.046 159.161 158.471C152.709 166.24 144.848 172.218 135.842 176.711C130.946 179.208 125.75 181.065 120.38 182.235C116.983 178.903 117.819 174.98 118.842 171.05C120.448 164.939 123.311 159.31 125.596 153.46C127.227 149.282 128.218 144.881 128.535 140.407C129.193 131.518 126.86 123.452 122.344 115.916C121.97 115.301 121.649 114.559 120.894 114.241Z" fill="#725057"/>
<path d="M159.349 158.687C159.75 154.27 160.236 149.854 160.296 145.389C160.437 134.95 159.333 124.64 156.595 114.534C156.815 114.297 156.98 114.014 157.077 113.706C157.174 113.398 157.201 113.071 157.157 112.751C156.053 95.041 148.793 79.5712 139.756 64.7679C135.476 57.7552 130.331 51.3087 124.442 45.5802C122.11 43.3147 119.624 41.2126 117.003 39.2887C116.645 39.0277 116.2 38.8872 116.023 38.4014C123.841 39.6427 131.384 42.2335 138.314 46.058C152.025 53.5299 162.432 64.266 169.402 78.2502C173.611 86.6803 176.126 95.8535 176.806 105.251C177.913 119.143 175.026 133.061 168.483 145.365C166.017 150.176 162.947 154.653 159.349 158.687V158.687Z" fill="#859DFF"/>
<path d="M90.3168 122.086C97.2105 124.789 101.583 129.542 102.671 137.062C103.494 142.748 102.069 148.047 99.9929 153.219C96.7167 161.377 91.7381 168.476 85.9404 175.008C84.226 176.947 82.4313 178.822 80.6727 180.73C72.6927 178.228 65.2171 174.336 58.5902 169.235C57.003 168.103 55.5148 166.84 54.1416 165.456C56.4181 164.208 58.7067 162.983 60.9671 161.71C64.4441 159.759 68.0295 157.964 71.1251 155.415C74.3009 152.793 75.4934 149.545 71.8518 146.18C70.6794 145.096 69.4428 144.069 68.3226 142.948C65.1106 139.777 65.1106 136.344 68.3226 133.116C71.9923 129.394 76.6778 127.382 81.3834 125.439C84.3304 124.234 87.3376 123.199 90.3168 122.086Z" fill="#8D6876"/>
<path d="M90.3165 122.088C87.3374 123.2 84.3302 124.236 81.3912 125.448C76.6856 127.391 72.0001 129.403 68.3304 133.125C65.1465 136.337 65.1425 139.786 68.3304 142.958C69.4626 144.078 70.6872 145.106 71.8596 146.19C75.5012 149.546 74.3087 152.794 71.1328 155.424C68.0373 157.974 64.4519 159.768 60.9749 161.72C58.7144 162.992 56.4259 164.217 54.1494 165.466C50.9374 162.936 48.2955 159.889 45.742 156.745C41.4697 151.455 37.9649 145.589 35.3311 139.32C35.1384 138.866 34.8573 138.429 34.9296 137.895C38.4588 134.43 41.9759 130.953 46.015 128.054C50.5078 124.842 55.3057 122.212 60.6015 120.566C61.2237 120.392 61.806 120.099 62.3159 119.703C63.424 120.152 64.4077 119.458 65.4396 119.301C73.3451 118.094 81.4247 118.796 89.0036 121.349C89.4662 121.548 89.9063 121.796 90.3165 122.088V122.088Z" fill="#725057"/>
<path d="M44.3411 66.431C44.1805 66.8325 43.9798 67.234 43.4578 67.2661C41.8277 65.8568 41.5467 63.8011 41.109 61.9101C39.752 56.0803 41.4503 51.2382 46.2281 47.5645C50.464 44.3083 55.3984 42.7465 60.5537 41.7588C62.6214 42.092 64.1672 43.3929 65.195 44.9989C67.1142 47.962 69.7922 49.7286 72.9962 50.917C74.016 51.2944 74.9756 51.8284 75.9592 52.2861C74.3291 54.0447 72.1329 54.6951 69.9367 55.3777C66.8773 56.3091 63.6934 56.4577 60.5537 56.8953C58.2571 56.8552 56.0047 57.2527 53.7563 57.614C51.5922 57.9633 49.396 58.3849 47.7659 60.023C46.6056 61.1834 45.1802 62.2674 45.389 64.2307L45.2967 64.1625C45.2043 64.1764 45.1197 64.2222 45.0574 64.2918C44.9951 64.3614 44.959 64.4506 44.9554 64.5439C44.5398 65.0836 44.3229 65.75 44.3411 66.431ZM57.7151 45.7818C56.0729 45.7818 55.4948 46.7454 55.2378 47.8335C54.9809 48.9215 55.6995 49.7607 56.6431 50.2104C57.4269 50.5079 58.2322 50.7454 59.0521 50.921C59.6361 51.1428 60.2844 51.1236 60.8543 50.8676C61.4242 50.6116 61.8692 50.1398 62.0914 49.5559C62.2924 49.0158 62.2763 48.4187 62.0465 47.8902C61.8167 47.3616 61.391 46.9427 60.8588 46.7213C59.8334 46.3414 58.7847 46.0275 57.7191 45.7818H57.7151Z" fill="#FEE301"/>
<path d="M71.109 111.874C71.8116 109.81 73.3132 108.22 74.3772 106.373C77.5892 100.78 80.3997 95.0549 81.7327 88.6389C83.9409 77.9831 78.9423 68.6763 68.6317 64.7336C67.6601 64.3602 66.6523 64.0752 65.6606 63.7499C67.9572 59.7952 71.647 57.5709 75.654 55.7641C76.6537 55.3144 77.3443 54.7403 77.4005 53.592C82.1871 53.3946 86.9773 53.8827 91.6257 55.0414C98.0497 56.7036 103.715 59.6627 108.304 64.5208C108.705 64.9223 109.38 65.2395 109.163 65.9743C108.946 66.709 108.252 66.5042 107.758 66.6367C105.281 67.2912 105.297 67.255 107.015 69.2344C112.106 75.0963 115.218 81.9259 116.756 89.4941C117.549 93.4068 117.845 97.4037 117.639 101.391C117.546 103.225 117.237 105.048 117.017 106.875C116.161 105.879 115.483 105.747 114.551 106.955C111.564 110.834 107.401 112.749 102.707 113.644C101.366 113.901 100.904 113.468 100.904 112.038C100.932 110.488 100.797 108.939 100.503 107.417C100.238 106.168 99.5111 105.915 98.6559 106.827C95.2632 110.44 90.8186 112.046 86.2094 113.331C84.764 113.733 84.226 113.102 84.6516 111.653C84.8363 111.035 85.0129 110.412 85.2338 109.806C85.4104 109.32 85.6353 108.826 85.1374 108.441C84.6396 108.055 84.2059 108.26 83.7402 108.533C80.4399 110.485 76.8063 111.508 73.1125 112.384C72.3215 112.56 71.6791 112.492 71.109 111.874Z" fill="#C4DDF7"/>
<path d="M82.1259 50.2265C81.0131 50.1648 79.9433 49.7761 79.0505 49.109C78.1577 48.4419 77.4817 47.5261 77.1072 46.4765C76.8502 45.822 76.6856 45.3563 75.7902 45.4968C75.3116 45.5815 74.8187 45.4849 74.4075 45.2258C73.9962 44.9667 73.6962 44.5638 73.5659 44.0956C73.3792 43.6278 73.354 43.1111 73.4944 42.6274C73.6347 42.1437 73.9327 41.7207 74.3408 41.4256C77.0152 39.2775 80.2696 37.976 83.6877 37.6876C85.135 37.5852 86.5872 37.5732 88.036 37.6515C89.2967 37.6756 90.1278 38.3381 90.3125 39.6028C90.4972 40.8675 89.8829 41.803 88.6704 42.0961C87.8272 42.2969 87.9958 42.6341 88.1083 43.2324C88.2865 44.1021 88.2638 45.001 88.0419 45.8606C87.8199 46.7202 87.4045 47.5177 86.8275 48.1924C86.2504 48.867 85.5269 49.401 84.7121 49.7535C83.8973 50.106 83.0127 50.2678 82.1259 50.2265V50.2265ZM78.8938 44.5774C78.8938 45.9585 80.1987 47.2955 81.5076 47.2674C82.9169 47.2353 84.3382 45.81 84.286 44.481C84.2364 43.754 83.9064 43.0747 83.3656 42.5863C82.8248 42.0979 82.1154 41.8387 81.3871 41.8632C79.8052 41.8994 78.8898 42.8911 78.8938 44.5774Z" fill="#735259"/>
<path d="M77.4004 53.5915C77.3442 54.7398 76.6536 55.3139 75.6539 55.7636C71.6389 57.5704 67.9571 59.7786 65.6606 63.7494L59.9312 62.6614C62.3201 59.4494 62.3402 59.2004 60.5655 56.8958C63.7053 56.4582 66.8891 56.3097 69.9486 55.3782C72.1368 54.7117 74.333 54.0452 75.9711 52.2866C76.8062 52.3228 77.0431 53.0254 77.4004 53.5915Z" fill="#FCAD02"/>
<path d="M60.5654 56.8959C62.3441 59.2005 62.32 59.4334 59.9311 62.6614C56.2051 62.3282 52.4792 61.9949 48.7774 62.8903C47.944 63.0409 47.146 63.3459 46.4246 63.7896C46.2439 63.8097 46.0753 63.8458 46.1034 64.0908V64.0546L45.3928 64.2233C45.184 62.2599 46.5973 61.1759 47.7696 60.0155C49.3997 58.3854 51.5959 57.9639 53.76 57.6065C56.0164 57.2532 58.2689 56.8557 60.5654 56.8959Z" fill="#FBC901"/>
<path d="M45.4007 64.2223L46.1114 64.0537C45.754 65.0133 44.9831 65.6597 44.3448 66.4306C44.327 65.746 44.5469 65.0763 44.9671 64.5355C45.0795 64.407 45.1919 64.2786 45.3084 64.1541L45.4007 64.2223Z" fill="#F2F3DD"/>
<path d="M46.1032 64.0915C46.075 63.8459 46.2441 63.8097 46.4253 63.7896L46.1032 64.0915Z" fill="#F2F3DD"/>
<path d="M57.7189 45.7818C58.7913 46.0266 59.8468 46.3405 60.8788 46.7213C61.4109 46.9426 61.8366 47.3616 62.0664 47.8901C62.2963 48.4186 62.3124 49.0157 62.1114 49.5559C61.8892 50.1398 61.4442 50.6116 60.8743 50.8676C60.3043 51.1235 59.6561 51.1427 59.072 50.921C58.2522 50.7454 57.4469 50.5078 56.663 50.2103C55.7195 49.7606 54.9928 48.9536 55.2578 47.8334C55.5227 46.7132 56.0768 45.7777 57.7189 45.7818Z" fill="#FDAD00"/>
<path d="M45.3073 64.1548C45.1909 64.2791 45.0786 64.4075 44.9663 64.5359C44.9699 64.4426 45.006 64.3535 45.0682 64.284C45.1304 64.2144 45.215 64.1687 45.3073 64.1548Z" fill="#FBC901"/>
<path d="M78.894 44.578C78.894 42.8917 79.8055 41.9 81.3874 41.8639C82.1156 41.8393 82.825 42.0986 83.3658 42.5869C83.9066 43.0753 84.2366 43.7547 84.2862 44.4817C84.3384 45.8107 82.9171 47.236 81.5078 47.2681C80.1989 47.2962 78.8981 45.9592 78.894 44.578Z" fill="#62414D"/>
</svg>
