<svg width="20" height="20" fill="none" xmlns="http://www.w3.org/2000/svg"><path fill-rule="evenodd" clip-rule="evenodd" d="M3 0a3 3 0 00-3 3v14a3 3 0 003 3h14a3 3 0 003-3V3a3 3 0 00-3-3H3zm.111 1.111a2 2 0 00-2 2V16.89a2 2 0 002 2H16.89a2 2 0 002-2V3.11a2 2 0 00-2-2H3.11z" fill="currentColor"/><path fill-rule="evenodd" clip-rule="evenodd" d="M3.222 2.223a1 1 0 00-1 1v2.444a1 1 0 001 1h13.556a1 1 0 001-1V3.223a1 1 0 00-1-1H3.222zm1.222 3.333a1.111 1.111 0 100-2.222 1.111 1.111 0 000 2.222zM8.89 4.445a1.111 1.111 0 11-2.222 0 1.111 1.111 0 012.222 0zM11 3.334a1 1 0 00-1 1v.222a1 1 0 001 1h4.667a1 1 0 001-1v-.222a1 1 0 00-1-1H11zM3.222 7.777a1 1 0 00-1 1v2.445a1 1 0 001 1h13.556a1 1 0 001-1V8.777a1 1 0 00-1-1H3.222zm12.334 3.334a1.111 1.111 0 110-2.223 1.111 1.111 0 010 2.223zM11.11 10a1.111 1.111 0 102.222 0 1.111 1.111 0 00-2.222 0zM9 8.888a1 1 0 011 1v.223a1 1 0 01-1 1H4.333a1 1 0 01-1-1v-.223a1 1 0 011-1H9zm-5.778 4.445a1 1 0 00-1 1v2.444a1 1 0 001 1h13.556a1 1 0 001-1v-2.444a1 1 0 00-1-1H3.222zm1.222 3.333a1.111 1.111 0 100-2.222 1.111 1.111 0 000 2.222zm4.445-1.11a1.111 1.111 0 11-2.222 0 1.111 1.111 0 012.222 0zM11 14.443a1 1 0 00-1 1v.222a1 1 0 001 1h4.667a1 1 0 001-1v-.222a1 1 0 00-1-1H11z" fill="currentColor"/></svg>