<svg width="21" height="20" fill="none" xmlns="http://www.w3.org/2000/svg"><g clip-path="url(#clip0_51_4201)" fill="#959CB1"><path d="M7.843 1.25C3.7 1.25.343 4.049.343 7.5c0 1.99 1.122 3.755 2.863 4.898l-.988 1.977 2.693-1.154a8.512 8.512 0 001.819.453 5.233 5.233 0 01-.137-1.174c0-3.446 3.363-6.25 7.5-6.25.378 0 .748.031 1.113.076-.66-2.89-3.704-5.076-7.363-5.076zm-2.5 4.688a.938.938 0 110-1.876.938.938 0 010 1.875zm5 0a.938.938 0 110-1.876.938.938 0 010 1.875z"/><path d="M20.343 12.5c0-2.761-2.8-5-6.25-5-3.452 0-6.25 2.239-6.25 5s2.798 5 6.25 5a7.64 7.64 0 001.63-.194l3.37 1.444-1.166-2.329c1.46-.915 2.416-2.322 2.416-3.921zm-8.126-.313a.938.938 0 11.001-1.875.938.938 0 010 1.876zm3.75 0a.938.938 0 11.001-1.875.938.938 0 010 1.876z"/></g><defs><clipPath id="clip0_51_4201"><path fill="#fff" transform="translate(.343)" d="M0 0h20v20H0z"/></clipPath></defs></svg>