<svg width="20" height="20" fill="none" xmlns="http://www.w3.org/2000/svg"><path d="M10 20c5.523 0 10-4.477 10-10S15.523 0 10 0 0 4.477 0 10s4.477 10 10 10z" fill="#F7931A"/><path fill-rule="evenodd" clip-rule="evenodd" d="M14.16 8.444c.196-1.31-.802-2.014-2.166-2.484l.443-1.775-1.08-.269-.431 1.728c-.284-.07-.576-.138-.866-.204l.434-1.74-1.08-.268-.442 1.774a36.39 36.39 0 01-.69-.162l.001-.006-1.49-.372-.287 1.154s.801.184.784.195c.438.11.517.399.504.628L7.29 8.665c.03.008.069.019.112.036l-.036-.009a7.857 7.857 0 00-.078-.02l-.707 2.833c-.053.133-.189.332-.495.257.011.015-.785-.196-.785-.196l-.536 1.236 1.406.35.465.12.305.08-.447 1.795 1.079.269.443-1.776c.294.08.58.154.86.223l-.44 1.768 1.08.27.447-1.792c1.842.348 3.227.208 3.81-1.459.47-1.341-.023-2.115-.992-2.62.705-.162 1.237-.627 1.379-1.586zm-2.468 3.461c-.307 1.231-2.233.722-3.115.49l-.21-.055.593-2.378.265.061c.912.205 2.78.624 2.467 1.883zM9.409 8.92c.734.196 2.338.624 2.617-.495.285-1.144-1.273-1.49-2.034-1.658a9.318 9.318 0 01-.223-.05l-.538 2.156.178.047z" fill="#fff"/></svg>