<svg width="20" height="20" fill="none" xmlns="http://www.w3.org/2000/svg"><g clip-path="url(#clip0_421_10488)" fill-rule="evenodd" clip-rule="evenodd"><path d="M10.001-.001c5.523 0 10 4.476 10 9.999 0 5.522-4.477 9.998-10 9.998-5.522 0-9.998-4.476-9.998-9.998 0-5.523 4.476-10 9.998-10z" fill="#F01010"/><path d="M9.576 6.756h-.847c-.139-.016-.308-.016-.478-.031-.046.015-.062.062-.077.123a.177.177 0 00.031.154l.185.016c.23.046.4.092.508.139a.46.46 0 01.216.307c.03.14.046.324.03.555-.015.323-.03.708-.046 1.155-.015.447-.046.909-.077 1.386-.03.739-.097 2.538-.298 3.071a.437.437 0 01-.215.247 1.308 1.308 0 01-.386.108l-.247.03c-.046.031-.062.078-.046.155 0 .046.015.092.062.139l.586-.047h1.218c.231.016.432.031.617.047a.162.162 0 00.077-.139.196.196 0 00-.062-.154l-.431-.03c-.14-.017-.247-.047-.324-.109a.332.332 0 01-.093-.126c-.091-.22-.093-.59-.088-.82.01-.477.016-.954.03-1.432.016-.477.032-.894.047-1.248.015-.323.046-.662.061-1.001.016-.339.03-.678.047-1.017h.03c.124.262.247.524.355.817.123.277.246.554.37.816l1.031 2.202c.093.186.2.417.324.694.139.293.277.57.4.847.066.146.122.284.17.413.012 0 .098.284.108.317.06.06.156.059.216 0 .096-.23.196-.462.307-.684.292-.655.596-1.28.94-1.91l1.001-1.987c.077-.17.154-.354.262-.554.108-.216.215-.416.308-.585.077-.185.138-.308.169-.355h.015l.032 4.76c.015.246 0 .43-.016.569-.012.11-.043.215-.149.269-.062.077-.185.107-.386.123l-.34.03c-.03.031-.045.078-.03.155 0 .046.016.092.062.139l.709-.047h1.327l.694.047c.047-.031.062-.077.062-.139a.18.18 0 00-.031-.154l-.37-.03c-.17-.017-.294-.063-.371-.14a.498.498 0 01-.154-.293 4.367 4.367 0 01-.03-.494 60.035 60.035 0 01-.069-1.73c-.015-.616-.046-1.2-.061-1.755V8.111c0-.262.015-.462.046-.616a.57.57 0 01.215-.338c.108-.062.293-.109.54-.14l.23-.015c.032-.03.047-.077.032-.154a.175.175 0 00-.047-.123c-.185.015-.37.015-.539.03h-.831c-.14-.015-.294-.015-.493-.03-.016.261-.108.555-.247.894-.17.353-.37.785-.616 1.293l-1.078 2.172c-.28.591-.535 1.154-.877 1.714h-.031a36.063 36.063 0 01-.771-1.575l-1.31-2.619a17.83 17.83 0 01-.446-1.047c-.108-.323-.154-.6-.138-.832-.185.015-.355.015-.524.03zm-6.32 5.855c0 .392-.016.69-.047.895-.031.396-.293.526-.661.551l-.236.032c-.076.076-.07.241.016.298.487-.03.927-.047 1.415-.047.521 0 1.006.023 1.525.047.032-.031.048-.078.064-.141 0-.079-.016-.126-.048-.157l-.314-.032c-.252-.016-.425-.063-.519-.142a.441.441 0 01-.017-.012c-.095-.08-.163-.2-.192-.387a4.894 4.894 0 01-.03-.894v-1.1a4.5 4.5 0 01-.943-.047l-.013 1.136zM2.248 6.875c-.015.062.016.11.063.157l.409.046c.172.016.298.063.376.142.079.062.126.173.141.345.016.173.032.425.032.754v2.324c.314.015.628.015.942 0V7.439a.585.585 0 01.031-.298c.016-.047.079-.094.157-.11.095-.015.252-.015.456-.015.596.016 1.052.172 1.382.502.314.33.47.785.47 1.35.017.503-.11.927-.376 1.272-.236.299-.581.518-1.052.628-.455.11-1.1.157-1.963.141a28.93 28.93 0 01-2.465-.156c.99.204 1.727.345 2.198.392a8.116 8.116 0 002.23-.03c.36-.048.69-.142.989-.252a5.52 5.52 0 00.864-.503c.172-.125.33-.33.471-.596.11-.252.173-.55.188-.911a2.212 2.212 0 00-.282-1.037 1.998 1.998 0 00-.644-.706 3.214 3.214 0 00-.974-.362 7.54 7.54 0 00-1.272-.094c-.47 0-.895 0-1.271.016a16.69 16.69 0 00-1.021.063.166.166 0 00-.079.142z" fill="#fff"/></g><defs><clipPath id="clip0_421_10488"><path fill="#fff" d="M0 0h20v20H0z"/></clipPath></defs></svg>