<svg width="20" height="20" fill="none" xmlns="http://www.w3.org/2000/svg"><path d="M10 20c5.523 0 10-4.477 10-10S15.523 0 10 0 0 4.477 0 10s4.477 10 10 10z" fill="#26A17B"/><path d="M15.272 8.48c-.52-.476-1.24-1.202-1.826-1.717l-.035-.024a.663.663 0 00-.192-.107c-1.413-.26-7.991-1.478-8.12-1.462a.244.244 0 00-.1.037l-.033.026a.382.382 0 00-.09.144l-.009.023v.141c.74 2.04 3.664 8.727 4.24 10.296.035.106.1.309.224.32h.028c.066 0 .347-.368.347-.368s5.022-6.03 5.53-6.671c.066-.08.124-.164.173-.254a.41.41 0 00-.137-.385zm-4.278.701l2.143-1.76 1.258 1.148-3.401.612zm-.832-.115l-3.69-2.993 5.97 1.09-2.28 1.903zm.333.785l3.777-.603-4.319 5.15.542-4.547zM5.97 6.37l3.883 3.262-.562 4.769-3.32-8.03z" fill="#fff"/></svg>