<svg width="20" height="20" fill="none" xmlns="http://www.w3.org/2000/svg"><path d="M10 20c5.523 0 10-4.477 10-10S15.523 0 10 0 0 4.477 0 10s4.477 10 10 10z" fill="#26A17B"/><path d="M11.063 10.923v-.002a19.5 19.5 0 01-1.22.026c-.635 0-1.08-.018-1.238-.026v.002C6.163 10.815 4.34 10.39 4.34 9.88c0-.508 1.823-.934 4.264-1.042V10.5a18.6 18.6 0 001.25.039c.758 0 1.137-.033 1.208-.039V8.84c2.437.11 4.254.535 4.254 1.043 0 .508-1.818.932-4.254 1.041v-.001zm0-2.254V7.183h3.4V4.918H5.206v2.265h3.4V8.67c-2.763.127-4.84.673-4.84 1.33 0 .655 2.078 1.202 4.84 1.33v4.763h2.459V11.33c2.758-.127 4.833-.674 4.833-1.33 0-.654-2.075-1.203-4.833-1.33" fill="#fff"/></svg>