<svg width="24" height="24" fill="none" xmlns="http://www.w3.org/2000/svg"><path d="M9 1.5C4.029 1.5 0 4.859 0 9c0 2.388 1.347 4.506 3.437 5.877L2.25 17.25l3.232-1.384c.694.245 1.413.448 2.183.543A6.28 6.28 0 017.5 15c0-4.136 4.037-7.5 9-7.5.454 0 .898.037 1.337.091C17.044 4.123 13.392 1.5 9 1.5zM6 7.125a1.125 1.125 0 110-2.25 1.125 1.125 0 010 2.25zm6 0a1.125 1.125 0 110-2.25 1.125 1.125 0 010 2.25z" fill="#28CD7D"/><path d="M24 15c0-3.313-3.358-6-7.5-6C12.358 9 9 11.687 9 15c0 3.314 3.358 6 7.5 6 .681 0 1.329-.096 1.957-.233L22.5 22.5l-1.398-2.794C22.854 18.608 24 16.919 24 15zm-9.75-.375a1.125 1.125 0 110-2.25 1.125 1.125 0 010 2.25zm4.5 0a1.125 1.125 0 110-2.25 1.125 1.125 0 010 2.25z" fill="#28CD7D"/></svg>