<svg width="36" height="26" fill="none" xmlns="http://www.w3.org/2000/svg"><rect y=".143" width="36" height="25.714" rx="2" fill="#fff"/><mask id="a" style="mask-type:alpha" maskUnits="userSpaceOnUse" x="0" y="0" width="36" height="26"><rect y=".143" width="36" height="25.714" rx="2" fill="#fff"/></mask><g mask="url(#a)"><path fill-rule="evenodd" clip-rule="evenodd" d="M36 .143H0v1.714h36V.143zm0 3.428H0v1.715h36V3.57zM0 7h36v1.714H0V7zm36 3.429H0v1.714h36v-1.714zM0 13.857h36v1.714H0v-1.714zm36 3.429H0V19h36v-1.714zM0 20.714h36v1.715H0v-1.715zm36 3.429H0v1.714h36v-1.714z" fill="#D02F44"/><path fill="#46467F" d="M0 .143h15.429v12H0z"/><g filter="url(#filter0_d_292_16757)"><path fill-rule="evenodd" clip-rule="evenodd" d="M3.429 2.714a.857.857 0 11-1.715 0 .857.857 0 011.715 0zm3.428 0a.857.857 0 11-1.714 0 .857.857 0 011.714 0zm2.572.857a.857.857 0 100-1.714.857.857 0 000 1.714zm4.285-.857a.857.857 0 11-1.714 0 .857.857 0 011.714 0zM4.286 5.286a.857.857 0 100-1.715.857.857 0 000 1.715zm4.286-.857a.857.857 0 11-1.715 0 .857.857 0 011.715 0zm2.57.857a.857.857 0 100-1.715.857.857 0 000 1.715zm2.572.857a.857.857 0 11-1.714 0 .857.857 0 011.714 0zM9.43 7a.857.857 0 100-1.714.857.857 0 000 1.714zm-2.572-.857a.857.857 0 11-1.714 0 .857.857 0 011.714 0zM2.572 7a.857.857 0 100-1.714.857.857 0 000 1.714zm2.57.857a.857.857 0 11-1.713 0 .857.857 0 011.714 0zm2.572.857a.857.857 0 100-1.714.857.857 0 000 1.714zM12 7.857a.857.857 0 11-1.714 0 .857.857 0 011.714 0zm.857 2.572a.857.857 0 100-1.715.857.857 0 000 1.715zm-2.571-.858a.857.857 0 11-1.715 0 .857.857 0 011.715 0zM6 10.43a.857.857 0 100-1.715.857.857 0 000 1.715zm-2.57-.86a.857.857 0 11-1.715 0 .857.857 0 011.715 0z" fill="url(#paint0_linear_292_16757)"/></g></g><defs><linearGradient id="paint0_linear_292_16757" x1="1.714" y1="1.857" x2="1.714" y2="10.429" gradientUnits="userSpaceOnUse"><stop stop-color="#fff"/><stop offset="1" stop-color="#F0F0F0"/></linearGradient><filter id="filter0_d_292_16757" x="1.714" y="1.857" width="12" height="9.571" filterUnits="userSpaceOnUse" color-interpolation-filters="sRGB"><feFlood flood-opacity="0" result="BackgroundImageFix"/><feColorMatrix in="SourceAlpha" values="0 0 0 0 0 0 0 0 0 0 0 0 0 0 0 0 0 0 127 0" result="hardAlpha"/><feOffset dy="1"/><feColorMatrix values="0 0 0 0 0 0 0 0 0 0 0 0 0 0 0 0 0 0 0.06 0"/><feBlend in2="BackgroundImageFix" result="effect1_dropShadow_292_16757"/><feBlend in="SourceGraphic" in2="effect1_dropShadow_292_16757" result="shape"/></filter></defs></svg>