<svg width="20" height="20" viewBox="0 0 20 20" fill="none" xmlns="http://www.w3.org/2000/svg">
<path d="M10 20C15.5228 20 20 15.5228 20 10C20 4.47717 15.5228 0 10 0C4.47717 0 0 4.47717 0 10C0 15.5228 4.47717 20 10 20Z" fill="#F7931A"/>
<path fill-rule="evenodd" clip-rule="evenodd" d="M14.16 8.44427C14.356 7.13411 13.3584 6.42982 11.9944 5.95994L12.4369 4.18519L11.3566 3.91595L10.9258 5.64394C10.6418 5.57319 10.3501 5.5064 10.0603 5.44027L10.4941 3.70087L9.41443 3.43164L8.97164 5.20582C8.73656 5.15227 8.50581 5.09932 8.28181 5.04365L8.28302 5.03811L6.79318 4.66611L6.50581 5.81994C6.50581 5.81994 7.30735 6.00365 7.29043 6.01502C7.72798 6.12427 7.80702 6.41382 7.79381 6.64332L7.28981 8.66519C7.31998 8.67286 7.35902 8.68394 7.4021 8.70119L7.36552 8.69202H7.36548C7.34043 8.68573 7.31448 8.67923 7.28798 8.67286L6.58148 11.5052C6.52798 11.6381 6.39227 11.8375 6.08643 11.7618C6.09718 11.7775 5.30118 11.5658 5.30118 11.5658L4.76489 12.8024L6.17073 13.1529C6.32773 13.1922 6.48285 13.2326 6.63635 13.2727L6.63656 13.2728C6.73868 13.2994 6.8401 13.3258 6.94089 13.3517L6.49381 15.1467L7.57289 15.4159L8.01564 13.6399C8.31043 13.7199 8.59656 13.7938 8.87656 13.8633L8.43535 15.631L9.51564 15.9003L9.96273 14.1086C11.8049 14.4572 13.1901 14.3166 13.7732 12.6504C14.243 11.3089 13.7498 10.535 12.7806 10.0304C13.4864 9.86765 14.0181 9.40332 14.16 8.44427ZM11.6916 11.9055C11.3854 13.1363 9.45881 12.6274 8.57735 12.3946H8.57723C8.49798 12.3736 8.42714 12.3549 8.36673 12.3399L8.95998 9.96182C9.03356 9.98015 9.12348 10.0004 9.22535 10.0232H9.22539C10.1371 10.2278 12.0055 10.647 11.6916 11.9055ZM9.40856 8.91957C10.1435 9.11569 11.7466 9.54352 12.0258 8.42486C12.311 7.28065 10.7529 6.93573 9.99193 6.76727C9.90635 6.74836 9.83085 6.73161 9.76918 6.71627L9.23135 8.87319C9.28214 8.88586 9.34177 8.90177 9.40856 8.91957Z" fill="white"/>
</svg>
