<svg width="20" height="20" viewBox="0 0 20 20" fill="none" xmlns="http://www.w3.org/2000/svg">
<g>
<path d="M20 6.35463V5.85635C20 4.46055 18.8644 3.32495 17.4686 3.32495H2.53139C1.1356 3.32495 0 4.46055 0 5.85635V6.35463H20Z" fill="#090E34"/>
<path d="M0 7.61792H20V9.17952H0V7.61792Z" fill="#090E34"/>
<path d="M0 10.4426V14.1436C0 15.5394 1.1356 16.675 2.53139 16.675H17.4686C18.8644 16.675 20 15.5394 20 14.1436V10.4426H0ZM14.6671 13.8287C14.2991 13.8287 14.0008 13.5304 14.0008 13.1624C14.0008 12.7943 14.2991 12.496 14.6671 12.496C15.0352 12.496 15.3335 12.7943 15.3335 13.1624C15.3335 13.5304 15.0352 13.8287 14.6671 13.8287ZM16.5355 13.8287C16.1674 13.8287 15.8691 13.5304 15.8691 13.1624C15.8691 12.7943 16.1674 12.496 16.5355 12.496C16.9035 12.496 17.2019 12.7943 17.2019 13.1624C17.2019 13.5304 16.9035 13.8287 16.5355 13.8287Z" fill="#090E34"/>
</g>
</svg>
