<svg width="20" height="20" viewBox="0 0 20 20" fill="none" xmlns="http://www.w3.org/2000/svg">
<path d="M19.9999 9.99994C19.9999 15.5228 15.5228 20 10 20C4.47713 20 0 15.5228 0 9.99994C0 4.47712 4.47713 0 10 0C15.5228 0 19.9999 4.47712 19.9999 9.99994Z" fill="#2A92CE"/>
<path d="M17.8768 10C17.8768 14.35 14.3503 17.8769 10 17.8769C5.64985 17.8769 2.12305 14.35 2.12305 10C2.12305 5.64966 5.64985 2.12305 10 2.12305C14.3503 2.12305 17.8768 5.6496 17.8768 10Z" fill="#2A92CE"/>
<path d="M9.41566 12.6713L10.0652 10.2255L11.6029 9.66369L11.9854 8.22633L11.9724 8.19067L10.4587 8.74368L11.5493 4.63696H8.45622L7.02992 9.99632L5.83905 10.4314L5.44556 11.9132L6.63551 11.4785L5.79489 14.637H14.0268L14.5546 12.6713H9.41566Z" fill="white"/>
</svg>
