<svg width="20" height="20" viewBox="0 0 20 20" fill="none" xmlns="http://www.w3.org/2000/svg">
<g clip-path="url(#clip0_421_10488)">
<path fill-rule="evenodd" clip-rule="evenodd" d="M10.0014 -0.0012207C15.5236 -0.0012207 20.0003 4.47528 20.0003 9.99751C20.0003 15.5197 15.5236 19.9962 10.0014 19.9962C4.47935 19.9962 0.00268555 15.5197 0.00268555 9.99751C0.00268555 4.47528 4.47935 -0.0012207 10.0014 -0.0012207Z" fill="#F01010"/>
<path fill-rule="evenodd" clip-rule="evenodd" d="M9.57576 6.7559H8.72868C8.59002 6.74013 8.42063 6.74013 8.25141 6.72501C8.20541 6.74013 8.18948 6.78694 8.17403 6.84839C8.15875 6.91016 8.17403 6.95633 8.20541 7.00233L8.39007 7.01794C8.62058 7.06362 8.78996 7.10994 8.89839 7.1566C9.00584 7.21788 9.08257 7.32582 9.11378 7.46448C9.1445 7.60314 9.15978 7.78765 9.1445 8.01896C9.12873 8.34229 9.11378 8.72706 9.09833 9.17377C9.08257 9.62097 9.052 10.0828 9.02096 10.5605C8.99056 11.299 8.92423 13.0984 8.72348 13.6311C8.67698 13.7543 8.60026 13.8315 8.50776 13.8783C8.39966 13.9239 8.27596 13.9702 8.12201 13.9861L7.87493 14.0168C7.82892 14.0472 7.81332 14.0941 7.82892 14.1711C7.82892 14.2174 7.8442 14.2633 7.89053 14.3098C8.0908 14.2945 8.27596 14.2789 8.47655 14.2633H9.69541C9.9264 14.2789 10.1272 14.2945 10.3121 14.3098C10.3586 14.2789 10.3894 14.2327 10.3894 14.1711C10.3894 14.109 10.3741 14.063 10.3274 14.0168L9.89584 13.9861C9.75669 13.9702 9.64875 13.9396 9.57186 13.8783C9.53317 13.847 9.50213 13.8041 9.47904 13.7517C9.38801 13.5327 9.38606 13.1623 9.39077 12.9323C9.40069 12.4548 9.40654 11.9776 9.42166 11.5C9.4371 11.0225 9.45255 10.6062 9.46766 10.2522C9.48262 9.92885 9.51432 9.58959 9.52927 9.25082C9.54471 8.91238 9.55983 8.57312 9.57576 8.23435H9.60632C9.72971 8.49607 9.85309 8.75795 9.96086 9.05055C10.0842 9.32804 10.2073 9.60536 10.3302 9.8674L11.3623 12.0692C11.4552 12.2547 11.5627 12.4857 11.6856 12.7629C11.8246 13.0555 11.9628 13.3325 12.0863 13.6096C12.1515 13.7564 12.2079 13.8939 12.2557 14.0233C12.268 14.0233 12.3544 14.3072 12.3639 14.3402C12.4233 14.4003 12.5205 14.3988 12.58 14.3402C12.6757 14.1106 12.7757 13.8783 12.8871 13.6563C13.1788 13.0015 13.4832 12.3761 13.8268 11.7464L14.828 9.75946C14.9052 9.58959 14.9819 9.40477 15.0897 9.20482C15.1976 8.98927 15.3053 8.789 15.3979 8.61961C15.4748 8.43462 15.5362 8.31157 15.5668 8.26524H15.5824L15.6136 13.0251C15.6286 13.2712 15.6136 13.4552 15.5982 13.594C15.5858 13.7042 15.5548 13.8089 15.449 13.8627C15.3869 13.9396 15.2636 13.9702 15.0632 13.9861L14.7238 14.0168C14.6929 14.0472 14.6776 14.0941 14.6929 14.1711C14.6929 14.2174 14.7085 14.2633 14.755 14.3098C14.986 14.2945 15.2324 14.2789 15.4639 14.2633H16.7909C17.0219 14.2789 17.2532 14.2945 17.4851 14.3098C17.5315 14.2789 17.5466 14.2327 17.5466 14.1711C17.5619 14.109 17.5466 14.063 17.5159 14.0168L17.1456 13.9861C16.9759 13.9702 16.8525 13.9239 16.7749 13.8468C16.6987 13.7699 16.6368 13.6773 16.6213 13.5539C16.6056 13.4154 16.5901 13.2452 16.5901 13.0604C16.5586 12.4873 16.5371 11.9051 16.5222 11.3307C16.5066 10.7138 16.4757 10.1291 16.4605 9.57512V8.1113C16.4605 7.84942 16.4757 7.64931 16.5066 7.49504C16.5379 7.35671 16.6148 7.23365 16.7223 7.1566C16.8304 7.09499 17.0149 7.04834 17.2613 7.01794L17.4926 7.00233C17.5237 6.97145 17.5388 6.92528 17.5237 6.84839C17.5237 6.8019 17.5081 6.7559 17.4773 6.72501C17.2924 6.74013 17.1074 6.74013 16.9381 6.7559H16.1065C15.9675 6.74013 15.8132 6.74013 15.6136 6.72501C15.5982 6.9864 15.5057 7.27965 15.367 7.61859C15.1976 7.97215 14.9977 8.40423 14.7513 8.91238L13.6727 11.0838C13.3931 11.675 13.1384 12.2376 12.7957 12.7981H12.765C12.4924 12.2838 12.2411 11.7501 11.9938 11.2228L10.6849 8.60401C10.5157 8.23435 10.3614 7.88047 10.2382 7.55698C10.1302 7.23365 10.0842 6.95633 10.0995 6.72501C9.91486 6.74013 9.74515 6.74013 9.57576 6.7559ZM3.2557 12.6109C3.2557 13.0031 3.24026 13.3017 3.20889 13.5062C3.17784 13.9022 2.91644 14.032 2.54793 14.0573L2.31189 14.0887C2.23598 14.1649 2.24183 14.3301 2.32831 14.3871C2.81501 14.3569 3.25505 14.3398 3.74337 14.3398C4.26404 14.3398 4.74944 14.3628 5.26849 14.3871C5.29986 14.3558 5.31611 14.3086 5.33172 14.2459C5.33172 14.1674 5.31611 14.1197 5.28442 14.0887L4.96987 14.0573C4.71823 14.0411 4.54543 13.9939 4.45115 13.9152C4.44546 13.9112 4.43977 13.9069 4.43424 13.9026C4.33915 13.8236 4.27103 13.7029 4.24242 13.516C4.21121 13.3118 4.19544 13.0137 4.21121 12.6219V11.5219C3.86562 11.5378 3.55172 11.5219 3.26887 11.4749L3.2557 12.6109ZM2.24801 6.87456C2.23257 6.93715 2.2641 6.98413 2.31124 7.03159L2.71959 7.07808C2.89206 7.09434 3.01788 7.14116 3.09623 7.21983C3.17459 7.28242 3.22205 7.39263 3.2375 7.5651C3.25343 7.73774 3.26887 7.98954 3.26887 8.31872V10.6426C3.58293 10.6584 3.89683 10.6584 4.21121 10.6426V7.43945C4.19544 7.31395 4.21121 7.21983 4.24242 7.14116C4.25803 7.09434 4.32094 7.04655 4.39929 7.03159C4.49357 7.01582 4.65093 7.01582 4.85494 7.01582C5.45136 7.03159 5.90685 7.1883 6.23651 7.51813C6.55057 7.84747 6.70744 8.30311 6.70744 8.86881C6.7237 9.37095 6.59788 9.7949 6.33096 10.14C6.09541 10.439 5.74998 10.6584 5.27873 10.7683C4.82357 10.8783 4.17984 10.9255 3.31601 10.9094C2.56223 10.8946 1.74587 10.8471 0.85083 10.753C1.84032 10.957 2.578 11.0981 3.04942 11.1451C3.81831 11.2399 4.57209 11.2236 5.27873 11.1142C5.63977 11.0666 5.96959 10.9728 6.26805 10.8629C6.55057 10.7374 6.83342 10.5646 7.13172 10.3601C7.30435 10.2348 7.46138 10.03 7.60297 9.76353C7.71302 9.51222 7.77561 9.21392 7.79105 8.85256C7.77561 8.45982 7.68132 8.1152 7.50885 7.81642C7.33589 7.51813 7.13172 7.28242 6.86463 7.11027C6.59788 6.95291 6.26805 6.82693 5.89124 6.74842C5.53004 6.68583 5.10593 6.6543 4.61939 6.6543C4.14814 6.6543 3.72419 6.6543 3.34755 6.6699C2.97058 6.68583 2.62514 6.70144 2.32652 6.73281C2.27971 6.76451 2.24801 6.81149 2.24801 6.87456Z" fill="white"/>
</g>
<defs>
<clipPath id="clip0_421_10488">
<rect width="20" height="20" fill="white"/>
</clipPath>
</defs>
</svg>
