<svg width="20" height="20" viewBox="0 0 20 20" fill="none" xmlns="http://www.w3.org/2000/svg">
<path d="M10 20C15.5228 20 20 15.5228 20 10C20 4.47715 15.5228 0 10 0C4.47715 0 0 4.47715 0 10C0 15.5228 4.47715 20 10 20Z" fill="#26A17B"/>
<path d="M15.2722 8.47928C14.7519 8.00377 14.0323 7.27762 13.4461 6.76263L13.4114 6.7386C13.3537 6.69272 13.2887 6.65675 13.2189 6.63216C11.8056 6.37123 5.22789 5.15413 5.09957 5.16958C5.06361 5.17456 5.02924 5.18747 4.99898 5.20735L4.96604 5.2331C4.92546 5.27388 4.89465 5.32316 4.87586 5.37729L4.86719 5.39961V5.52149V5.54038C5.60768 7.58147 8.53149 14.2678 9.10723 15.8368C9.14191 15.9433 9.20781 16.1458 9.33094 16.1561H9.35868C9.42458 16.1561 9.70552 15.7888 9.70552 15.7888C9.70552 15.7888 14.7277 9.7599 15.2358 9.11787C15.3016 9.03879 15.3596 8.95372 15.4092 8.86381C15.4219 8.79346 15.4159 8.72106 15.3919 8.65368C15.3679 8.58629 15.3266 8.5262 15.2722 8.47928ZM10.994 9.18139L13.1374 7.42182L14.3947 8.56854L10.994 9.18139ZM10.1616 9.06637L6.47129 6.07254L12.442 7.16261L10.1616 9.06637ZM10.4946 9.85088L14.2716 9.24834L9.9535 14.3983L10.4946 9.85088ZM5.97012 6.37123L9.85292 9.63287L9.29105 14.4017L5.97012 6.37123Z" fill="white"/>
</svg>
