<svg width="20" height="20" viewBox="0 0 20 20" fill="none" xmlns="http://www.w3.org/2000/svg">
<path d="M10 20C15.5228 20 20 15.5228 20 10C20 4.47715 15.5228 0 10 0C4.47715 0 0 4.47715 0 10C0 15.5228 4.47715 20 10 20Z" fill="#26A17B"/>
<path d="M11.0631 10.9228V10.9212C10.9939 10.926 10.637 10.9469 9.8428 10.9469C9.20775 10.9469 8.76241 10.9292 8.60485 10.9212V10.9228C6.16273 10.8151 4.34119 10.3906 4.34119 9.88099C4.34119 9.37295 6.16434 8.94691 8.60485 8.83919V10.5C8.76402 10.5112 9.22222 10.5385 9.85405 10.5385C10.6129 10.5385 10.9923 10.5064 11.0631 10.5V8.8408C13.5004 8.95012 15.3171 9.37456 15.3171 9.8826C15.3171 10.3906 13.4987 10.8151 11.0631 10.9244V10.9228ZM11.0631 8.66877V7.18324H14.4634V4.91797H5.20614V7.18324H8.60646V8.66877C5.8428 8.79578 3.76562 9.34241 3.76562 9.99836C3.76562 10.6543 5.8444 11.2009 8.60646 11.3295V16.0916H11.0647V11.3295C13.8235 11.2025 15.8975 10.6559 15.8975 9.99996C15.8975 9.34562 13.8235 8.79739 11.0647 8.67038" fill="white"/>
</svg>
