<svg width="24" height="24" viewBox="0 0 24 24" fill="none" xmlns="http://www.w3.org/2000/svg">
<path d="M9 1.5C4.029 1.5 0 4.8585 0 9C0 11.388 1.347 13.506 3.4365 14.877L2.25 17.25L5.4825 15.8655C6.1755 16.1115 6.8955 16.314 7.665 16.4085C7.56 15.951 7.5 15.4815 7.5 15C7.5 10.8645 11.5365 7.5 16.5 7.5C16.9545 7.5 17.3985 7.5375 17.8365 7.5915C17.0445 4.1235 13.392 1.5 9 1.5ZM6 7.125C5.379 7.125 4.875 6.621 4.875 6C4.875 5.379 5.379 4.875 6 4.875C6.621 4.875 7.125 5.379 7.125 6C7.125 6.621 6.621 7.125 6 7.125ZM12 7.125C11.379 7.125 10.875 6.621 10.875 6C10.875 5.379 11.379 4.875 12 4.875C12.621 4.875 13.125 5.379 13.125 6C13.125 6.621 12.621 7.125 12 7.125Z" fill="#28CD7D"/>
<path d="M24 15C24 11.6865 20.6415 9 16.5 9C12.3585 9 9 11.6865 9 15C9 18.3135 12.3585 21 16.5 21C17.181 21 17.829 20.904 18.4575 20.7675L22.5 22.5L21.102 19.7055C22.854 18.6075 24 16.9185 24 15ZM14.25 14.625C13.629 14.625 13.125 14.121 13.125 13.5C13.125 12.879 13.629 12.375 14.25 12.375C14.871 12.375 15.375 12.879 15.375 13.5C15.375 14.121 14.871 14.625 14.25 14.625ZM18.75 14.625C18.129 14.625 17.625 14.121 17.625 13.5C17.625 12.879 18.129 12.375 18.75 12.375C19.371 12.375 19.875 12.879 19.875 13.5C19.875 14.121 19.371 14.625 18.75 14.625Z" fill="#28CD7D"/>
</svg>
