<svg width="246" height="196" viewBox="0 0 246 196" fill="none" xmlns="http://www.w3.org/2000/svg">
<path fill-rule="evenodd" clip-rule="evenodd" d="M155.962 52.2667C155.962 41.8152 147.489 33.3425 137.038 33.3425H82.0674C71.6159 33.3425 63.1433 41.8152 63.1433 52.2667L63.1433 177.076C63.1433 187.527 71.6159 196 82.0674 196H126.224H155.962H226.251C236.703 196 245.175 187.527 245.175 177.076V79.7517C245.175 69.3002 236.703 60.8276 226.251 60.8276H164.072C159.593 60.8276 155.962 57.1965 155.962 52.7172V52.2667Z" fill="url(#paint0_linear_79_15263)"/>
<path fill-rule="evenodd" clip-rule="evenodd" d="M75.3088 4.05517C75.3088 1.81556 77.1244 0 79.364 0H86.8436C89.0832 0 90.8987 1.81556 90.8987 4.05517C90.8987 6.29478 89.0832 8.11034 86.8436 8.11034H83.4192V11.5347C83.4192 13.7743 81.6036 15.5899 79.364 15.5899C77.1244 15.5899 75.3088 13.7743 75.3088 11.5347V4.05517ZM97.7475 4.05517C97.7475 1.81556 99.563 0 101.803 0H116.762C119.001 0 120.817 1.81556 120.817 4.05517C120.817 6.29478 119.001 8.11034 116.762 8.11034H101.803C99.563 8.11034 97.7475 6.29478 97.7475 4.05517ZM127.666 4.05517C127.666 1.81556 129.481 0 131.721 0H146.68C148.919 0 150.735 1.81556 150.735 4.05517C150.735 6.29478 148.919 8.11034 146.68 8.11034H131.721C129.481 8.11034 127.666 6.29478 127.666 4.05517ZM157.584 4.05517C157.584 1.81556 159.399 0 161.639 0H176.598C178.838 0 180.653 1.81556 180.653 4.05517C180.653 6.29478 178.838 8.11034 176.598 8.11034H161.639C159.399 8.11034 157.584 6.29478 157.584 4.05517ZM187.502 4.05517C187.502 1.81556 189.318 0 191.557 0H206.516C208.756 0 210.571 1.81556 210.571 4.05517C210.571 6.29478 208.756 8.11034 206.516 8.11034H191.557C189.318 8.11034 187.502 6.29478 187.502 4.05517ZM217.42 4.05517C217.42 1.81556 219.236 0 221.475 0H228.955C231.194 0 233.01 1.81556 233.01 4.05517V11.5347C233.01 13.7743 231.194 15.5899 228.955 15.5899C226.715 15.5899 224.9 13.7743 224.9 11.5347V8.11034H221.475C219.236 8.11034 217.42 6.29478 217.42 4.05517ZM79.364 22.4386C81.6036 22.4386 83.4192 24.2542 83.4192 26.4938V41.4529C83.4192 43.6925 81.6036 45.508 79.364 45.508C77.1244 45.508 75.3088 43.6925 75.3088 41.4529V26.4938C75.3088 24.2542 77.1244 22.4386 79.364 22.4386ZM228.955 22.4386C231.194 22.4386 233.01 24.2542 233.01 26.4938V41.4529C233.01 43.6925 231.194 45.5081 228.955 45.5081C226.715 45.5081 224.9 43.6925 224.9 41.4529V26.4938C224.9 24.2542 226.715 22.4386 228.955 22.4386ZM79.364 52.3568C81.6036 52.3568 83.4192 54.1723 83.4192 56.412V71.371C83.4192 73.6106 81.6036 75.4262 79.364 75.4262C77.1244 75.4262 75.3088 73.6106 75.3088 71.371V56.412C75.3088 54.1723 77.1244 52.3568 79.364 52.3568ZM228.955 52.3568C231.194 52.3568 233.01 54.1723 233.01 56.412V71.371C233.01 73.6106 231.194 75.4262 228.955 75.4262C226.715 75.4262 224.9 73.6106 224.9 71.371V56.412C224.9 54.1723 226.715 52.3568 228.955 52.3568ZM79.364 82.2749C81.6036 82.2749 83.4192 84.0905 83.4192 86.3301V101.289C83.4192 103.529 81.6036 105.344 79.364 105.344C77.1244 105.344 75.3088 103.529 75.3088 101.289V86.3301C75.3088 84.0905 77.1244 82.2749 79.364 82.2749ZM228.955 82.2749C231.194 82.2749 233.01 84.0905 233.01 86.3301V101.289C233.01 103.529 231.194 105.344 228.955 105.344C226.715 105.344 224.9 103.529 224.9 101.289V86.3301C224.9 84.0905 226.715 82.2749 228.955 82.2749ZM79.364 112.193C81.6036 112.193 83.4192 114.009 83.4192 116.248V131.207C83.4192 133.447 81.6036 135.263 79.364 135.263C77.1244 135.263 75.3088 133.447 75.3088 131.207V116.248C75.3088 114.009 77.1244 112.193 79.364 112.193ZM228.955 112.193C231.194 112.193 233.01 114.009 233.01 116.248V131.207C233.01 133.447 231.194 135.263 228.955 135.263C226.715 135.263 224.9 133.447 224.9 131.207V116.248C224.9 114.009 226.715 112.193 228.955 112.193ZM79.364 142.111C81.6036 142.111 83.4192 143.927 83.4192 146.166V149.591H86.8436C89.0832 149.591 90.8987 151.406 90.8987 153.646C90.8987 155.886 89.0832 157.701 86.8436 157.701H79.364C77.1244 157.701 75.3088 155.886 75.3088 153.646V146.166C75.3088 143.927 77.1244 142.111 79.364 142.111ZM228.955 142.111C231.194 142.111 233.01 143.927 233.01 146.166V153.646C233.01 155.886 231.194 157.701 228.955 157.701H221.475C219.236 157.701 217.42 155.886 217.42 153.646C217.42 151.406 219.236 149.591 221.475 149.591H224.9V146.166C224.9 143.927 226.715 142.111 228.955 142.111ZM97.7475 153.646C97.7475 151.406 99.563 149.591 101.803 149.591H116.762C119.001 149.591 120.817 151.406 120.817 153.646C120.817 155.886 119.001 157.701 116.762 157.701H101.803C99.563 157.701 97.7475 155.886 97.7475 153.646ZM127.666 153.646C127.666 151.406 129.481 149.591 131.721 149.591H146.68C148.919 149.591 150.735 151.406 150.735 153.646C150.735 155.886 148.919 157.701 146.68 157.701H131.721C129.481 157.701 127.666 155.886 127.666 153.646ZM157.584 153.646C157.584 151.406 159.399 149.591 161.639 149.591H176.598C178.838 149.591 180.653 151.406 180.653 153.646C180.653 155.886 178.838 157.701 176.598 157.701H161.639C159.399 157.701 157.584 155.886 157.584 153.646ZM187.502 153.646C187.502 151.406 189.318 149.591 191.557 149.591H206.516C208.756 149.591 210.571 151.406 210.571 153.646C210.571 155.886 208.756 157.701 206.516 157.701H191.557C189.318 157.701 187.502 155.886 187.502 153.646Z" fill="white"/>
<path d="M151.456 123.007C151.456 132.463 143.79 140.129 134.334 140.129C124.878 140.129 117.212 132.463 117.212 123.007C117.212 113.551 124.878 105.885 134.334 105.885C143.79 105.885 151.456 113.551 151.456 123.007Z" fill="url(#paint1_radial_79_15263)"/>
<path d="M3.1932 143.253C-2.43915 136.167 2.60683 125.71 11.6585 125.71H154.788C165.778 125.71 176.167 130.724 183.006 139.327L228.054 196H50.3386C47.0417 196 43.9248 194.496 41.8733 191.915L3.1932 143.253Z" fill="url(#paint2_linear_79_15263)"/>
<path fill-rule="evenodd" clip-rule="evenodd" d="M32.8305 22.4049C30.747 24.4883 30.7475 27.8664 32.8305 29.9493L35.5249 32.6438L32.8305 35.3383C30.747 37.4217 30.7475 40.7998 32.8305 42.8827C34.9134 44.9657 38.2915 44.9662 40.3749 42.8827L43.0694 40.1883L45.7639 42.8827C47.8468 44.9657 51.2249 44.9662 53.3083 42.8827C55.3918 40.7993 55.3913 37.4212 53.3083 35.3383L50.6139 32.6438L53.3083 29.9493C55.3918 27.8659 55.3913 24.4878 53.3083 22.4049C51.2254 20.3219 47.8473 20.3214 45.7639 22.4049L43.0694 25.0993L40.3749 22.4049C38.292 20.3219 34.9139 20.3214 32.8305 22.4049Z" fill="url(#paint3_linear_79_15263)"/>
<path fill-rule="evenodd" clip-rule="evenodd" d="M36.7993 32.6438L33.4677 35.9755C31.7362 37.7069 31.7366 40.5144 33.4677 42.2455C35.1988 43.9766 38.0063 43.977 39.7377 42.2455L43.0694 38.9139L46.4011 42.2455C48.1321 43.9766 50.9396 43.977 52.6711 42.2455C54.4026 40.514 54.4022 37.7065 52.6711 35.9755L49.3395 32.6438L52.6711 29.3121C54.4026 27.5807 54.4022 24.7732 52.6711 23.0421C50.94 21.311 48.1325 21.3106 46.4011 23.0421L43.0694 26.3737L39.7377 23.0421C38.0067 21.311 35.1992 21.3106 33.4677 23.0421C31.7362 24.7736 31.7366 27.5811 33.4677 29.3121L36.7993 32.6438ZM32.8305 29.9493C30.7475 27.8664 30.747 24.4883 32.8305 22.4049C34.9139 20.3214 38.292 20.3219 40.3749 22.4049L43.0694 25.0993L45.7639 22.4049C47.8473 20.3214 51.2254 20.3219 53.3083 22.4049C55.3913 24.4878 55.3918 27.8659 53.3083 29.9493L50.6139 32.6438L53.3083 35.3383C55.3913 37.4212 55.3918 40.7993 53.3083 42.8827C51.2249 44.9662 47.8468 44.9657 45.7639 42.8827L43.0694 40.1883L40.3749 42.8827C38.2915 44.9662 34.9134 44.9657 32.8305 42.8827C30.7475 40.7998 30.747 37.4217 32.8305 35.3383L35.5249 32.6438L32.8305 29.9493Z" fill="url(#paint4_linear_79_15263)"/>
<path fill-rule="evenodd" clip-rule="evenodd" d="M161.578 86.2696C160.069 87.7793 160.069 90.227 161.578 91.7363L163.531 93.6887L161.578 95.6411C160.069 97.1508 160.069 99.5985 161.578 101.108C163.088 102.617 165.535 102.618 167.045 101.108L168.998 99.1554L170.95 101.108C172.459 102.617 174.907 102.618 176.417 101.108C177.926 99.5982 177.926 97.1504 176.417 95.6411L174.464 93.6887L176.417 91.7363C177.926 90.2266 177.926 87.7789 176.417 86.2696C174.907 84.7603 172.46 84.7599 170.95 86.2696L168.998 88.222L167.045 86.2696C165.536 84.7603 163.088 84.7599 161.578 86.2696Z" fill="url(#paint5_radial_79_15263)"/>
<path fill-rule="evenodd" clip-rule="evenodd" d="M164.805 93.6887L162.216 96.2783C161.058 97.436 161.058 99.3132 162.216 100.471C163.373 101.628 165.25 101.628 166.408 100.471L168.998 97.881L171.587 100.471C172.745 101.628 174.622 101.628 175.779 100.471C176.937 99.3129 176.937 97.4358 175.779 96.2783L173.19 93.6887L175.779 91.0991C176.937 89.9414 176.937 88.0642 175.779 86.9068C174.622 85.7494 172.745 85.7491 171.587 86.9068L168.998 89.4964L166.408 86.9068C165.25 85.7494 163.373 85.7491 162.216 86.9068C161.058 88.0645 161.058 89.9417 162.216 91.0991L164.805 93.6887ZM161.578 91.7363C160.069 90.227 160.069 87.7793 161.578 86.2696C163.088 84.7599 165.536 84.7603 167.045 86.2696L168.998 88.222L170.95 86.2696C172.46 84.7599 174.907 84.7603 176.417 86.2696C177.926 87.7789 177.926 90.2266 176.417 91.7363L174.464 93.6887L176.417 95.6411C177.926 97.1504 177.926 99.5982 176.417 101.108C174.907 102.618 172.459 102.617 170.95 101.108L168.998 99.1554L167.045 101.108C165.535 102.618 163.088 102.617 161.578 101.108C160.069 99.5985 160.069 97.1508 161.578 95.6411L163.531 93.6887L161.578 91.7363Z" fill="url(#paint6_linear_79_15263)"/>
<g filter="url(#filter0_ddddd_79_15263)">
<path d="M135.235 35.1448C135.235 42.3613 129.385 48.2115 122.169 48.2115C114.952 48.2115 109.102 42.3613 109.102 35.1448C109.102 27.9283 114.952 22.0781 122.169 22.0781C129.385 22.0781 135.235 27.9283 135.235 35.1448Z" fill="url(#paint7_radial_79_15263)"/>
</g>
<g filter="url(#filter1_ddddd_79_15263)">
<path d="M69.4513 91.0161C69.4513 97.7349 64.0046 103.182 57.2858 103.182C50.5669 103.182 45.1202 97.7349 45.1202 91.0161C45.1202 84.2973 50.5669 78.8506 57.2858 78.8506C64.0046 78.8506 69.4513 84.2973 69.4513 91.0161Z" fill="url(#paint8_radial_79_15263)"/>
</g>
<defs>
<filter id="filter0_ddddd_79_15263" x="107.102" y="21.0781" width="39.1333" height="43.1333" filterUnits="userSpaceOnUse" color-interpolation-filters="sRGB">
<feFlood flood-opacity="0" result="BackgroundImageFix"/>
<feColorMatrix in="SourceAlpha" type="matrix" values="0 0 0 0 0 0 0 0 0 0 0 0 0 0 0 0 0 0 127 0" result="hardAlpha"/>
<feOffset/>
<feColorMatrix type="matrix" values="0 0 0 0 0 0 0 0 0 0 0 0 0 0 0 0 0 0 0.15 0"/>
<feBlend mode="normal" in2="BackgroundImageFix" result="effect1_dropShadow_79_15263"/>
<feColorMatrix in="SourceAlpha" type="matrix" values="0 0 0 0 0 0 0 0 0 0 0 0 0 0 0 0 0 0 127 0" result="hardAlpha"/>
<feOffset dy="1"/>
<feGaussianBlur stdDeviation="1"/>
<feColorMatrix type="matrix" values="0 0 0 0 0 0 0 0 0 0 0 0 0 0 0 0 0 0 0.15 0"/>
<feBlend mode="normal" in2="effect1_dropShadow_79_15263" result="effect2_dropShadow_79_15263"/>
<feColorMatrix in="SourceAlpha" type="matrix" values="0 0 0 0 0 0 0 0 0 0 0 0 0 0 0 0 0 0 127 0" result="hardAlpha"/>
<feOffset dx="1" dy="3"/>
<feGaussianBlur stdDeviation="1.5"/>
<feColorMatrix type="matrix" values="0 0 0 0 0 0 0 0 0 0 0 0 0 0 0 0 0 0 0.13 0"/>
<feBlend mode="normal" in2="effect2_dropShadow_79_15263" result="effect3_dropShadow_79_15263"/>
<feColorMatrix in="SourceAlpha" type="matrix" values="0 0 0 0 0 0 0 0 0 0 0 0 0 0 0 0 0 0 127 0" result="hardAlpha"/>
<feOffset dx="3" dy="6"/>
<feGaussianBlur stdDeviation="2"/>
<feColorMatrix type="matrix" values="0 0 0 0 0 0 0 0 0 0 0 0 0 0 0 0 0 0 0.08 0"/>
<feBlend mode="normal" in2="effect3_dropShadow_79_15263" result="effect4_dropShadow_79_15263"/>
<feColorMatrix in="SourceAlpha" type="matrix" values="0 0 0 0 0 0 0 0 0 0 0 0 0 0 0 0 0 0 127 0" result="hardAlpha"/>
<feOffset dx="6" dy="11"/>
<feGaussianBlur stdDeviation="2.5"/>
<feColorMatrix type="matrix" values="0 0 0 0 0 0 0 0 0 0 0 0 0 0 0 0 0 0 0.02 0"/>
<feBlend mode="normal" in2="effect4_dropShadow_79_15263" result="effect5_dropShadow_79_15263"/>
<feBlend mode="normal" in="SourceGraphic" in2="effect5_dropShadow_79_15263" result="shape"/>
</filter>
<filter id="filter1_ddddd_79_15263" x="44.1202" y="77.8506" width="46.3311" height="42.3311" filterUnits="userSpaceOnUse" color-interpolation-filters="sRGB">
<feFlood flood-opacity="0" result="BackgroundImageFix"/>
<feColorMatrix in="SourceAlpha" type="matrix" values="0 0 0 0 0 0 0 0 0 0 0 0 0 0 0 0 0 0 127 0" result="hardAlpha"/>
<feOffset/>
<feColorMatrix type="matrix" values="0 0 0 0 0 0 0 0 0 0 0 0 0 0 0 0 0 0 0.15 0"/>
<feBlend mode="normal" in2="BackgroundImageFix" result="effect1_dropShadow_79_15263"/>
<feColorMatrix in="SourceAlpha" type="matrix" values="0 0 0 0 0 0 0 0 0 0 0 0 0 0 0 0 0 0 127 0" result="hardAlpha"/>
<feOffset dx="1" dy="1"/>
<feGaussianBlur stdDeviation="1"/>
<feColorMatrix type="matrix" values="0 0 0 0 0 0 0 0 0 0 0 0 0 0 0 0 0 0 0.15 0"/>
<feBlend mode="normal" in2="effect1_dropShadow_79_15263" result="effect2_dropShadow_79_15263"/>
<feColorMatrix in="SourceAlpha" type="matrix" values="0 0 0 0 0 0 0 0 0 0 0 0 0 0 0 0 0 0 127 0" result="hardAlpha"/>
<feOffset dx="4" dy="3"/>
<feGaussianBlur stdDeviation="2"/>
<feColorMatrix type="matrix" values="0 0 0 0 0 0 0 0 0 0 0 0 0 0 0 0 0 0 0.13 0"/>
<feBlend mode="normal" in2="effect2_dropShadow_79_15263" result="effect3_dropShadow_79_15263"/>
<feColorMatrix in="SourceAlpha" type="matrix" values="0 0 0 0 0 0 0 0 0 0 0 0 0 0 0 0 0 0 127 0" result="hardAlpha"/>
<feOffset dx="8" dy="6"/>
<feGaussianBlur stdDeviation="3"/>
<feColorMatrix type="matrix" values="0 0 0 0 0 0 0 0 0 0 0 0 0 0 0 0 0 0 0.08 0"/>
<feBlend mode="normal" in2="effect3_dropShadow_79_15263" result="effect4_dropShadow_79_15263"/>
<feColorMatrix in="SourceAlpha" type="matrix" values="0 0 0 0 0 0 0 0 0 0 0 0 0 0 0 0 0 0 127 0" result="hardAlpha"/>
<feOffset dx="14" dy="10"/>
<feGaussianBlur stdDeviation="3.5"/>
<feColorMatrix type="matrix" values="0 0 0 0 0 0 0 0 0 0 0 0 0 0 0 0 0 0 0.02 0"/>
<feBlend mode="normal" in2="effect4_dropShadow_79_15263" result="effect5_dropShadow_79_15263"/>
<feBlend mode="normal" in="SourceGraphic" in2="effect5_dropShadow_79_15263" result="shape"/>
</filter>
<linearGradient id="paint0_linear_79_15263" x1="154.159" y1="33.3425" x2="154.159" y2="196" gradientUnits="userSpaceOnUse">
<stop stop-color="#3D4372"/>
<stop offset="1" stop-color="#19215C"/>
</linearGradient>
<radialGradient id="paint1_radial_79_15263" cx="0" cy="0" r="1" gradientUnits="userSpaceOnUse" gradientTransform="translate(124.733 109.94) rotate(64.6538) scale(28.4184)">
<stop stop-color="#D5DBF6"/>
<stop offset="1" stop-color="#11216E"/>
</radialGradient>
<linearGradient id="paint2_linear_79_15263" x1="114.439" y1="125.71" x2="114.439" y2="196" gradientUnits="userSpaceOnUse">
<stop stop-color="#7D97FF"/>
<stop offset="0.505208" stop-color="#4A6CF7"/>
<stop offset="1" stop-color="#254AE2"/>
</linearGradient>
<linearGradient id="paint3_linear_79_15263" x1="32.8305" y1="22.4049" x2="53.3083" y2="42.8827" gradientUnits="userSpaceOnUse">
<stop stop-color="#7D97FF"/>
<stop offset="0.505208" stop-color="#4A6CF7"/>
<stop offset="1" stop-color="#254AE2"/>
</linearGradient>
<linearGradient id="paint4_linear_79_15263" x1="32.8305" y1="22.4049" x2="53.3083" y2="42.8827" gradientUnits="userSpaceOnUse">
<stop stop-color="#B8C5FC"/>
<stop offset="1" stop-color="#7085DE"/>
</linearGradient>
<radialGradient id="paint5_radial_79_15263" cx="0" cy="0" r="1" gradientUnits="userSpaceOnUse" gradientTransform="translate(160.932 92.3825) rotate(1.27303) scale(17.5759 17.6749)">
<stop stop-color="white"/>
<stop offset="1" stop-color="#F0DDFC"/>
</radialGradient>
<linearGradient id="paint6_linear_79_15263" x1="161.578" y1="86.2696" x2="176.417" y2="101.108" gradientUnits="userSpaceOnUse">
<stop stop-color="#B7C5FC"/>
<stop offset="1" stop-color="#7186DF"/>
</linearGradient>
<radialGradient id="paint7_radial_79_15263" cx="0" cy="0" r="1" gradientUnits="userSpaceOnUse" gradientTransform="translate(118.425 30.639) rotate(77.9721) scale(17.9669)">
<stop stop-color="#7D97FF"/>
<stop offset="0.505208" stop-color="#4A6CF7"/>
<stop offset="1" stop-color="#254AE2"/>
</radialGradient>
<radialGradient id="paint8_radial_79_15263" cx="0" cy="0" r="1" gradientUnits="userSpaceOnUse" gradientTransform="translate(51.7442 83.3326) rotate(46.273) scale(20.3789 20.4937)">
<stop stop-color="white"/>
<stop offset="1" stop-color="#F0DDFC"/>
</radialGradient>
</defs>
</svg>
