<svg width="176" height="48" viewBox="0 0 176 48" fill="none" xmlns="http://www.w3.org/2000/svg">
<g clip-path="url(#clip0_76_6085)">
<path d="M121.902 10.479H69.0674C66.7372 10.479 64.8482 12.368 64.8482 14.6982V33.3743C64.8482 35.7045 66.7372 37.5935 69.0674 37.5935H121.902C124.233 37.5935 126.122 35.7045 126.122 33.3743V14.6982C126.122 12.368 124.233 10.479 121.902 10.479Z" fill="#4A6CF7"/>
<path d="M81.3874 33.096H69.4334V14.9766H74.1063V29.0193H81.3874V33.096Z" fill="white"/>
<path d="M89.9967 33.4201C87.9321 33.4201 86.221 32.7911 84.8636 31.533C83.5061 30.2749 82.8267 28.6041 82.8252 26.5204C82.8044 25.6141 82.9686 24.713 83.3078 23.8723C83.6469 23.0315 84.1539 22.2687 84.7978 21.6305C86.1129 20.3155 87.7837 19.6543 89.8104 19.647C91.783 19.647 93.3947 20.3125 94.6455 21.6437C95.8963 22.9748 96.5202 24.7465 96.5173 26.9588V27.8552H87.1715C87.306 28.5205 87.6844 29.1116 88.2323 29.5122C88.8756 29.9856 89.6612 30.2253 90.4592 30.1916C91.056 30.1769 91.6472 30.072 92.2126 29.8804C92.769 29.7295 93.2844 29.4553 93.7205 29.0782L95.4871 31.6864C94.7799 32.2871 93.9505 32.7268 93.0564 32.9752C92.0642 33.2742 91.033 33.4242 89.9967 33.4201ZM92.5238 25.1352C92.4462 24.5457 92.1793 23.9973 91.7633 23.5725C91.3249 23.1122 90.6732 22.8813 89.8082 22.8798C88.9929 22.8798 88.3682 23.099 87.9321 23.5593C87.5088 23.9909 87.2254 24.5401 87.1189 25.1352H92.5238Z" fill="white"/>
<path d="M104.883 33.4201C102.819 33.4201 101.108 32.7911 99.7501 31.533C98.3927 30.2749 97.7132 28.604 97.7117 26.5204C97.6904 25.614 97.8544 24.7128 98.1936 23.872C98.5328 23.0312 99.0401 22.2684 99.6843 21.6305C100.999 20.3155 102.67 19.6543 104.695 19.647C106.669 19.647 108.281 20.3125 109.53 21.6437C110.779 22.9748 111.403 24.7465 111.402 26.9588V27.8552H102.058C102.192 28.52 102.57 29.1109 103.117 29.5122C103.761 29.9861 104.547 30.2258 105.346 30.1916C105.943 30.1769 106.534 30.072 107.099 29.8804C107.656 29.7295 108.171 29.4553 108.607 29.0782L110.361 31.6864C109.654 32.2875 108.824 32.7273 107.93 32.9752C106.942 33.2733 105.915 33.4233 104.883 33.4201ZM107.41 25.1352C107.332 24.546 107.065 23.9979 106.65 23.5725C106.211 23.1122 105.559 22.8813 104.693 22.8798C103.877 22.8798 103.253 23.099 102.819 23.5593C102.395 23.9914 102.112 24.5402 102.003 25.1352H107.41Z" fill="white"/>
<path d="M118.437 33.4203C117.097 33.4203 116.079 33.0944 115.382 32.4427C114.685 31.7852 114.336 30.8318 114.336 29.5627V23.6142H112.162V19.9737H114.336V16.3879H118.501V19.9737H121.164V23.6142H118.492V28.3945C118.474 28.7436 118.586 29.0869 118.805 29.3589C118.911 29.4811 119.042 29.5776 119.19 29.641C119.339 29.7045 119.499 29.7332 119.66 29.7249C120.186 29.7249 120.539 29.6168 120.719 29.4005L121.534 32.5501C120.919 33.1317 119.887 33.4217 118.437 33.4203Z" fill="white"/>
<path d="M138.334 33.4202C135.22 33.4202 132.767 32.4602 130.974 30.5402L132.728 28.0964C133.449 28.8985 134.334 29.5366 135.322 29.9676C136.311 30.3987 137.381 30.6126 138.459 30.595C139.673 30.595 140.584 30.3503 141.19 29.8608C141.467 29.6626 141.694 29.4021 141.852 29.1001C142.01 28.7982 142.095 28.4634 142.1 28.1227C142.1 27.4345 141.734 26.8865 141.004 26.4789C140.178 26.0337 139.292 25.709 138.374 25.5145C137.342 25.2807 136.305 25.0001 135.264 24.6728C134.256 24.3608 133.348 23.7885 132.631 23.0137C131.901 22.2363 131.535 21.231 131.535 19.9978C131.529 19.2684 131.692 18.5474 132.011 17.8917C132.331 17.236 132.798 16.6634 133.376 16.2191C134.599 15.2153 136.189 14.7134 138.146 14.7134C140.934 14.7134 143.199 15.555 144.94 17.2383L143.123 19.5945C141.742 18.221 139.993 17.5342 137.874 17.5342C136.931 17.5342 136.184 17.7373 135.632 18.1435C135.368 18.3275 135.155 18.574 135.01 18.8609C134.865 19.1478 134.794 19.4662 134.803 19.7874C134.803 20.0105 134.856 20.2304 134.958 20.429C135.06 20.6276 135.207 20.7991 135.388 20.9293C135.84 21.2687 136.351 21.5221 136.894 21.6767C137.509 21.8652 138.193 22.0507 138.946 22.2334C139.698 22.4131 140.449 22.6367 141.201 22.8909C141.918 23.1377 142.605 23.461 143.253 23.8553C143.877 24.2476 144.395 24.7891 144.758 25.4312C145.166 26.1655 145.368 26.9961 145.344 27.8356C145.363 28.5944 145.215 29.3482 144.91 30.0431C144.605 30.738 144.149 31.3568 143.577 31.8553C142.398 32.8986 140.65 33.4202 138.334 33.4202Z" fill="#090E34"/>
<path d="M154.117 33.4201C152.088 33.4201 150.458 32.7546 149.227 31.4234C147.997 30.0923 147.381 28.4579 147.38 26.5204C147.38 24.5829 147.996 22.9529 149.227 21.6305C150.459 20.3082 152.089 19.647 154.117 19.647C156.163 19.647 157.802 20.3082 159.033 21.6305C160.265 22.9529 160.88 24.5829 160.877 26.5204C160.877 28.4755 160.261 30.1142 159.029 31.4366C157.797 32.7589 156.16 33.4201 154.117 33.4201ZM154.117 30.893C155.293 30.893 156.221 30.4722 156.901 29.6305C157.563 28.7337 157.92 27.6483 157.92 26.5335C157.92 25.4188 157.563 24.3334 156.901 23.4366C156.221 22.5949 155.293 22.1741 154.117 22.1741C153.591 22.1533 153.067 22.2568 152.588 22.4761C152.109 22.6954 151.688 23.0245 151.36 23.4366C150.698 24.3334 150.341 25.4188 150.341 26.5335C150.341 27.6483 150.698 28.7337 151.36 29.6305C151.687 30.0446 152.107 30.3758 152.586 30.597C153.065 30.8183 153.59 30.9235 154.117 30.904V30.893Z" fill="#090E34"/>
<path d="M175.25 33.0958H172.055L168.66 28.2608L165.227 33.0958H162.049L166.858 26.3605L162.321 19.9758H165.525L168.651 24.4317L171.746 19.9758H174.952L170.415 26.3605L175.25 33.0958Z" fill="#090E34"/>
<path d="M36.8131 0.105225H11.2351C5.08094 0.105225 0.092041 5.09412 0.092041 11.2482V36.8263C0.092041 42.9804 5.08094 47.9693 11.2351 47.9693H36.8131C42.9672 47.9693 47.9561 42.9804 47.9561 36.8263V11.2482C47.9561 5.09412 42.9672 0.105225 36.8131 0.105225Z" fill="#4A6CF7"/>
<path d="M40.6334 14.2664C34.3123 7.70418 24.0241 7.63623 24.0241 7.63623C24.0241 7.63623 13.7228 7.70418 7.41262 14.2664C7.41262 14.2664 4.57864 36.548 22.6301 43.417V34.4307C21.611 34.5688 20.3332 34.8691 19.3885 35.4675L18.4417 36.0746L17.6592 35.2592C17.5518 35.1475 15.0291 32.4647 13.6351 27.5705L13.5386 27.2329L16.1973 26.4417L16.2937 26.788C16.8614 28.8352 17.781 30.768 19.0115 32.4998C20.8263 31.7129 22.8691 31.542 23.6669 31.5047V31.4916H24.3792V31.5047C25.177 31.542 27.2285 31.7129 29.0345 32.4998C30.265 30.768 31.1847 28.8352 31.7523 26.788L31.851 26.4417L34.5074 27.2329L34.411 27.5727C33.0236 32.4669 30.4943 35.1497 30.3869 35.2614L29.6044 36.0768L28.6575 35.4697C27.7129 34.8625 26.4373 34.571 25.4159 34.4329V43.4192C43.4674 36.548 40.6334 14.2664 40.6334 14.2664ZM20.8219 20.7387L16.4537 18.479L11.0751 19.1365L16.3792 15.4718L22.3562 18.6105L20.8219 20.7387ZM31.5967 18.479L27.2285 20.7387L25.6943 18.6105L31.6647 15.4653L36.9688 19.1299L31.5967 18.479Z" fill="#090E34"/>
<path d="M43.3994 25.5254H38.1918V27.7961H43.3994V25.5254Z" fill="#090E34"/>
<path d="M33.7885 41.4575H26.1326V43.0619H33.7885V41.4575Z" fill="#090E34"/>
<path d="M40.5611 38.676H35.8224V40.2804H40.5611V38.676Z" fill="#090E34"/>
<path d="M14.8318 36.594H9.62189V38.1984H14.8318V36.594Z" fill="#090E34"/>
<path d="M7.25044 36.594H5.64606V38.1984H7.25044V36.594Z" fill="#090E34"/>
<path d="M5.90248 21.177H4.2981V22.7814H5.90248V21.177Z" fill="white"/>
<path d="M44.7277 14.6631H43.1233V16.2675H44.7277V14.6631Z" fill="white"/>
<path d="M40.6334 12.7781C34.3123 6.20274 24.0241 6.14575 24.0241 6.14575C24.0241 6.14575 13.7228 6.2137 7.41262 12.7781C7.41262 12.7781 4.57864 35.0597 22.6301 41.9288V32.9425C21.611 33.0827 20.3332 33.3808 19.3885 33.9792L18.4417 34.5885L17.6592 33.771C17.5518 33.6592 15.0291 30.9764 13.6351 26.0844L13.5386 25.7447L16.1973 24.9534L16.2937 25.2997C16.8615 27.3476 17.7811 29.281 19.0115 31.0137C20.8263 30.2268 22.8691 30.0537 23.6669 30.0164V30.0033H24.3792V30.0274C25.177 30.0647 27.2285 30.2466 29.0345 31.0247C30.2649 29.292 31.1846 27.3585 31.7523 25.3107L31.851 24.9644L34.5074 25.7556L34.411 26.0822C33.0236 30.9742 30.4943 33.657 30.3869 33.7688L29.6044 34.5863L28.6575 33.9726C27.7129 33.3677 26.4373 33.0762 25.4159 32.9359V41.9222C43.4674 35.0685 40.6334 12.7781 40.6334 12.7781ZM20.8219 19.2504L16.4537 16.9885L11.0751 17.646L16.3792 13.9792L22.3562 17.12L20.8219 19.2504ZM31.5967 16.9885L27.2285 19.2504L25.6943 17.12L31.6647 13.9748L36.9688 17.6416L31.5967 16.9885Z" fill="white"/>
<path d="M43.3994 21.9792H38.1918V24.2499H43.3994V21.9792Z" fill="#4A6CF7"/>
<path d="M11.4477 20.8438H6.23999V23.1144H11.4477V20.8438Z" fill="#4A6CF7"/>
<path d="M34.5973 5.75781H27.4104V8.0285H34.5973V5.75781Z" fill="#4A6CF7"/>
<path d="M38.1918 6.50073H31.0049V8.77142H38.1918V6.50073Z" fill="white"/>
<path d="M10.5885 14.9524H3.40167V16.6138H10.5885V14.9524Z" fill="white"/>
<path d="M11.9408 30.5623H4.75397V32.8329H11.9408V30.5623Z" fill="white"/>
<path d="M18.4285 6.77686H16.7101V8.49521H18.4285V6.77686Z" fill="#4A6CF7"/>
</g>
<defs>
<clipPath id="clip0_76_6085">
<rect width="175.342" height="48" fill="white"/>
</clipPath>
</defs>
</svg>
