<svg width="29" height="20" viewBox="0 0 29 20" fill="none" xmlns="http://www.w3.org/2000/svg">
<rect x="0.5" width="28" height="20" rx="5" fill="white"/>
<g clip-path="url(#clip0_549_4425)">
<path d="M14.8547 13.4603V13.4601C14.0342 13.227 13.2111 13.8473 13.2111 14.7036C13.2111 15.4161 13.7908 15.9958 14.5033 15.9958C15.2159 15.9958 15.7956 15.4161 15.7956 14.7036C15.7956 14.1128 15.397 13.6137 14.8547 13.4603Z" fill="#4A6CF7"/>
<path d="M19.2077 13.4117C18.617 13.4117 18.1179 13.8103 17.9644 14.3525H17.3009V12.6495C17.3009 12.2396 16.9675 11.9062 16.5576 11.9062H15.5574V12.609H16.5576C16.5801 12.609 16.5981 12.6273 16.5981 12.6495V14.4036C16.5981 14.7629 16.8905 15.0552 17.2498 15.0552H17.9644C18.1178 15.5975 18.6169 15.9962 19.2077 15.9962C19.9203 15.9962 20.5 15.4165 20.5 14.7039C20.5 13.9914 19.9203 13.4117 19.2077 13.4117Z" fill="#4A6CF7"/>
<path d="M10.9582 10.9383C10.9663 10.9383 10.8799 10.9385 14.1519 10.9315V12.7405C14.3768 12.7003 14.6179 12.6982 14.8547 12.7405C14.8547 12.6502 14.8547 11.2177 14.8547 10.93L18.0632 10.9232C19.3824 10.9205 20.5 9.86785 20.5 8.49461C20.5 6.86892 19.0769 5.63641 17.5328 5.92713C17.185 5.42498 16.6139 5.12437 15.9869 5.13255C14.8799 3.37088 12.1939 3.7474 11.6139 5.74599C9.4701 5.31692 7.83795 7.63771 8.76612 9.57357C9.1646 10.4031 10.0246 10.9384 10.9582 10.9383Z" fill="#4A6CF7"/>
<path d="M13.4492 11.9062H12.449C12.039 11.9062 11.7057 12.2396 11.7057 12.6495V14.3525H11.0421C10.8886 13.8103 10.3896 13.4117 9.79886 13.4117C9.0863 13.4117 8.50659 13.9914 8.50659 14.7039C8.50659 15.4165 9.0863 15.9962 9.79886 15.9962C10.3896 15.9962 10.8887 15.5975 11.0422 15.0552H11.7568C12.1161 15.0552 12.4084 14.7629 12.4084 14.4036V12.6495C12.4084 12.6273 12.4265 12.609 12.449 12.609H13.4492V11.9062Z" fill="#4A6CF7"/>
</g>
<defs>
<clipPath id="clip0_549_4425">
<rect width="12" height="12" fill="white" transform="translate(8.5 4)"/>
</clipPath>
</defs>
</svg>
