<svg width="36" height="26" viewBox="0 0 36 26" fill="none" xmlns="http://www.w3.org/2000/svg">
<rect y="0.142853" width="36" height="25.7143" rx="2" fill="white"/>
<mask id="mask0_292_16757" style="mask-type:alpha" maskUnits="userSpaceOnUse" x="0" y="0" width="36" height="26">
<rect y="0.142853" width="36" height="25.7143" rx="2" fill="white"/>
</mask>
<g mask="url(#mask0_292_16757)">
<path fill-rule="evenodd" clip-rule="evenodd" d="M36 0.142853H0V1.85714H36V0.142853ZM36 3.57142H0V5.28571H36V3.57142ZM0 7H36V8.71428H0V7ZM36 10.4286H0V12.1429H36V10.4286ZM0 13.8571H36V15.5714H0V13.8571ZM36 17.2857H0V19H36V17.2857ZM0 20.7143H36V22.4286H0V20.7143ZM36 24.1428H0V25.8571H36V24.1428Z" fill="#D02F44"/>
<rect y="0.142853" width="15.4286" height="12" fill="#46467F"/>
<g filter="url(#filter0_d_292_16757)">
<path fill-rule="evenodd" clip-rule="evenodd" d="M3.42864 2.71429C3.42864 3.18768 3.04489 3.57143 2.5715 3.57143C2.09811 3.57143 1.71436 3.18768 1.71436 2.71429C1.71436 2.2409 2.09811 1.85715 2.5715 1.85715C3.04489 1.85715 3.42864 2.2409 3.42864 2.71429ZM6.85721 2.71429C6.85721 3.18768 6.47346 3.57143 6.00007 3.57143C5.52668 3.57143 5.14293 3.18768 5.14293 2.71429C5.14293 2.2409 5.52668 1.85715 6.00007 1.85715C6.47346 1.85715 6.85721 2.2409 6.85721 2.71429ZM9.42864 3.57143C9.90203 3.57143 10.2858 3.18768 10.2858 2.71429C10.2858 2.2409 9.90203 1.85715 9.42864 1.85715C8.95525 1.85715 8.5715 2.2409 8.5715 2.71429C8.5715 3.18768 8.95525 3.57143 9.42864 3.57143ZM13.7144 2.71429C13.7144 3.18768 13.3306 3.57143 12.8572 3.57143C12.3838 3.57143 12.0001 3.18768 12.0001 2.71429C12.0001 2.2409 12.3838 1.85715 12.8572 1.85715C13.3306 1.85715 13.7144 2.2409 13.7144 2.71429ZM4.28578 5.28572C4.75917 5.28572 5.14293 4.90196 5.14293 4.42858C5.14293 3.95519 4.75917 3.57143 4.28578 3.57143C3.8124 3.57143 3.42864 3.95519 3.42864 4.42858C3.42864 4.90196 3.8124 5.28572 4.28578 5.28572ZM8.5715 4.42858C8.5715 4.90196 8.18774 5.28572 7.71436 5.28572C7.24097 5.28572 6.85721 4.90196 6.85721 4.42858C6.85721 3.95519 7.24097 3.57143 7.71436 3.57143C8.18774 3.57143 8.5715 3.95519 8.5715 4.42858ZM11.1429 5.28572C11.6163 5.28572 12.0001 4.90196 12.0001 4.42858C12.0001 3.95519 11.6163 3.57143 11.1429 3.57143C10.6695 3.57143 10.2858 3.95519 10.2858 4.42858C10.2858 4.90196 10.6695 5.28572 11.1429 5.28572ZM13.7144 6.14286C13.7144 6.61625 13.3306 7 12.8572 7C12.3838 7 12.0001 6.61625 12.0001 6.14286C12.0001 5.66947 12.3838 5.28572 12.8572 5.28572C13.3306 5.28572 13.7144 5.66947 13.7144 6.14286ZM9.42864 7C9.90203 7 10.2858 6.61625 10.2858 6.14286C10.2858 5.66947 9.90203 5.28572 9.42864 5.28572C8.95525 5.28572 8.5715 5.66947 8.5715 6.14286C8.5715 6.61625 8.95525 7 9.42864 7ZM6.85721 6.14286C6.85721 6.61625 6.47346 7 6.00007 7C5.52668 7 5.14293 6.61625 5.14293 6.14286C5.14293 5.66947 5.52668 5.28572 6.00007 5.28572C6.47346 5.28572 6.85721 5.66947 6.85721 6.14286ZM2.5715 7C3.04489 7 3.42864 6.61625 3.42864 6.14286C3.42864 5.66947 3.04489 5.28572 2.5715 5.28572C2.09811 5.28572 1.71436 5.66947 1.71436 6.14286C1.71436 6.61625 2.09811 7 2.5715 7ZM5.14293 7.85715C5.14293 8.33053 4.75917 8.71429 4.28578 8.71429C3.8124 8.71429 3.42864 8.33053 3.42864 7.85715C3.42864 7.38376 3.8124 7 4.28578 7C4.75917 7 5.14293 7.38376 5.14293 7.85715ZM7.71436 8.71429C8.18774 8.71429 8.5715 8.33053 8.5715 7.85715C8.5715 7.38376 8.18774 7 7.71436 7C7.24097 7 6.85721 7.38376 6.85721 7.85715C6.85721 8.33053 7.24097 8.71429 7.71436 8.71429ZM12.0001 7.85715C12.0001 8.33053 11.6163 8.71429 11.1429 8.71429C10.6695 8.71429 10.2858 8.33053 10.2858 7.85715C10.2858 7.38376 10.6695 7 11.1429 7C11.6163 7 12.0001 7.38376 12.0001 7.85715ZM12.8572 10.4286C13.3306 10.4286 13.7144 10.0448 13.7144 9.57143C13.7144 9.09805 13.3306 8.71429 12.8572 8.71429C12.3838 8.71429 12.0001 9.09805 12.0001 9.57143C12.0001 10.0448 12.3838 10.4286 12.8572 10.4286ZM10.2858 9.57143C10.2858 10.0448 9.90203 10.4286 9.42864 10.4286C8.95525 10.4286 8.5715 10.0448 8.5715 9.57143C8.5715 9.09805 8.95525 8.71429 9.42864 8.71429C9.90203 8.71429 10.2858 9.09805 10.2858 9.57143ZM6.00007 10.4286C6.47346 10.4286 6.85721 10.0448 6.85721 9.57143C6.85721 9.09805 6.47346 8.71429 6.00007 8.71429C5.52668 8.71429 5.14293 9.09805 5.14293 9.57143C5.14293 10.0448 5.52668 10.4286 6.00007 10.4286ZM3.42864 9.57143C3.42864 10.0448 3.04489 10.4286 2.5715 10.4286C2.09811 10.4286 1.71436 10.0448 1.71436 9.57143C1.71436 9.09805 2.09811 8.71429 2.5715 8.71429C3.04489 8.71429 3.42864 9.09805 3.42864 9.57143Z" fill="url(#paint0_linear_292_16757)"/>
</g>
</g>
<defs>
<filter id="filter0_d_292_16757" x="1.71436" y="1.85715" width="12" height="9.57144" filterUnits="userSpaceOnUse" color-interpolation-filters="sRGB">
<feFlood flood-opacity="0" result="BackgroundImageFix"/>
<feColorMatrix in="SourceAlpha" type="matrix" values="0 0 0 0 0 0 0 0 0 0 0 0 0 0 0 0 0 0 127 0" result="hardAlpha"/>
<feOffset dy="1"/>
<feColorMatrix type="matrix" values="0 0 0 0 0 0 0 0 0 0 0 0 0 0 0 0 0 0 0.06 0"/>
<feBlend mode="normal" in2="BackgroundImageFix" result="effect1_dropShadow_292_16757"/>
<feBlend mode="normal" in="SourceGraphic" in2="effect1_dropShadow_292_16757" result="shape"/>
</filter>
<linearGradient id="paint0_linear_292_16757" x1="1.71436" y1="1.85715" x2="1.71436" y2="10.4286" gradientUnits="userSpaceOnUse">
<stop stop-color="white"/>
<stop offset="1" stop-color="#F0F0F0"/>
</linearGradient>
</defs>
</svg>
