<svg width="246" height="196" fill="none" xmlns="http://www.w3.org/2000/svg"><path fill-rule="evenodd" clip-rule="evenodd" d="M155.962 52.267c0-10.452-8.473-18.925-18.924-18.925h-54.97c-10.452 0-18.925 8.473-18.925 18.925v124.809c0 10.451 8.473 18.924 18.924 18.924h144.184c10.452 0 18.924-8.473 18.924-18.924V79.752c0-10.452-8.472-18.924-18.924-18.924h-62.179a8.11 8.11 0 01-8.11-8.11v-.451z" fill="url(#paint0_linear_79_15263)"/><path fill-rule="evenodd" clip-rule="evenodd" d="M75.309 4.055A4.055 4.055 0 0179.364 0h7.48a4.055 4.055 0 010 8.11h-3.425v3.425a4.055 4.055 0 01-8.11 0v-7.48zm22.439 0A4.055 4.055 0 01101.803 0h14.959a4.055 4.055 0 010 8.11h-14.959a4.055 4.055 0 01-4.055-4.055zm29.918 0A4.055 4.055 0 01131.721 0h14.959a4.055 4.055 0 010 8.11h-14.959a4.055 4.055 0 01-4.055-4.055zm29.918 0A4.055 4.055 0 01161.639 0h14.959a4.055 4.055 0 110 8.11h-14.959a4.055 4.055 0 01-4.055-4.055zm29.918 0A4.055 4.055 0 01191.557 0h14.959a4.055 4.055 0 110 8.11h-14.959a4.055 4.055 0 01-4.055-4.055zm29.918 0A4.055 4.055 0 01221.475 0h7.48a4.055 4.055 0 014.055 4.055v7.48a4.055 4.055 0 01-8.11 0V8.11h-3.425a4.055 4.055 0 01-4.055-4.055zM79.364 22.44a4.055 4.055 0 014.055 4.055v14.959a4.055 4.055 0 01-8.11 0v-14.96a4.055 4.055 0 014.055-4.054zm149.591 0a4.055 4.055 0 014.055 4.055v14.959a4.055 4.055 0 01-8.11 0v-14.96a4.055 4.055 0 014.055-4.054zM79.364 52.357a4.055 4.055 0 014.055 4.055v14.959a4.055 4.055 0 01-8.11 0V56.412a4.055 4.055 0 014.055-4.055zm149.591 0a4.055 4.055 0 014.055 4.055v14.959a4.055 4.055 0 01-8.11 0V56.412a4.055 4.055 0 014.055-4.055zM79.364 82.275a4.055 4.055 0 014.055 4.055v14.959a4.055 4.055 0 11-8.11 0V86.33a4.055 4.055 0 014.055-4.055zm149.591 0a4.055 4.055 0 014.055 4.055v14.959a4.055 4.055 0 01-8.11 0V86.33a4.055 4.055 0 014.055-4.055zM79.364 112.193a4.055 4.055 0 014.055 4.055v14.959a4.056 4.056 0 11-8.11 0v-14.959a4.055 4.055 0 014.055-4.055zm149.591 0a4.056 4.056 0 014.055 4.055v14.959a4.056 4.056 0 11-8.11 0v-14.959a4.055 4.055 0 014.055-4.055zM79.364 142.111a4.055 4.055 0 014.055 4.055v3.425h3.425a4.055 4.055 0 110 8.11h-7.48a4.055 4.055 0 01-4.055-4.055v-7.48a4.055 4.055 0 014.055-4.055zm149.591 0a4.056 4.056 0 014.055 4.055v7.48a4.055 4.055 0 01-4.055 4.055h-7.48a4.055 4.055 0 010-8.11h3.425v-3.425a4.055 4.055 0 014.055-4.055zM97.747 153.646a4.055 4.055 0 014.056-4.055h14.959a4.055 4.055 0 010 8.11h-14.959a4.055 4.055 0 01-4.055-4.055zm29.919 0a4.054 4.054 0 014.055-4.055h14.959a4.055 4.055 0 010 8.11h-14.959a4.054 4.054 0 01-4.055-4.055zm29.918 0a4.054 4.054 0 014.055-4.055h14.959a4.054 4.054 0 110 8.11h-14.959a4.054 4.054 0 01-4.055-4.055zm29.918 0a4.055 4.055 0 014.055-4.055h14.959a4.054 4.054 0 110 8.11h-14.959a4.055 4.055 0 01-4.055-4.055z" fill="#fff"/><path d="M151.456 123.007c0 9.456-7.666 17.122-17.122 17.122s-17.122-7.666-17.122-17.122 7.666-17.122 17.122-17.122 17.122 7.666 17.122 17.122z" fill="url(#paint1_radial_79_15263)"/><path d="M3.193 143.253c-5.632-7.086-.586-17.543 8.465-17.543h143.13a36.048 36.048 0 0128.218 13.617L228.054 196H50.339a10.814 10.814 0 01-8.466-4.085l-38.68-48.662z" fill="url(#paint2_linear_79_15263)"/><path fill-rule="evenodd" clip-rule="evenodd" d="M32.83 22.405a5.335 5.335 0 000 7.544l2.695 2.695-2.694 2.694a5.335 5.335 0 007.544 7.545l2.694-2.695 2.695 2.695a5.335 5.335 0 007.544-7.545l-2.694-2.694 2.694-2.695a5.335 5.335 0 00-7.544-7.544l-2.695 2.694-2.694-2.694a5.335 5.335 0 00-7.544 0z" fill="url(#paint3_linear_79_15263)"/><path fill-rule="evenodd" clip-rule="evenodd" d="M36.8 32.644l-3.332 3.331a4.434 4.434 0 006.27 6.27l3.331-3.331 3.332 3.331a4.434 4.434 0 006.27-6.27l-3.331-3.331 3.331-3.332a4.434 4.434 0 00-6.27-6.27l-3.332 3.332-3.331-3.332a4.434 4.434 0 00-6.27 6.27l3.331 3.332zm-3.97-2.695a5.335 5.335 0 017.545-7.544l2.694 2.694 2.695-2.694a5.335 5.335 0 017.544 7.544l-2.694 2.695 2.694 2.694a5.335 5.335 0 01-7.544 7.545l-2.695-2.695-2.694 2.695a5.335 5.335 0 01-7.544-7.545l2.694-2.694-2.694-2.695z" fill="url(#paint4_linear_79_15263)"/><path fill-rule="evenodd" clip-rule="evenodd" d="M161.578 86.27a3.867 3.867 0 000 5.466l1.953 1.953-1.953 1.952a3.867 3.867 0 005.467 5.467l1.953-1.953 1.952 1.953a3.866 3.866 0 005.467-5.467l-1.953-1.952 1.953-1.953a3.867 3.867 0 00-5.467-5.466l-1.952 1.952-1.953-1.952a3.866 3.866 0 00-5.467 0z" fill="url(#paint5_radial_79_15263)"/><path fill-rule="evenodd" clip-rule="evenodd" d="M164.805 93.689l-2.589 2.59a2.964 2.964 0 104.192 4.192l2.59-2.59 2.589 2.59a2.965 2.965 0 004.192-4.193l-2.589-2.59 2.589-2.589a2.964 2.964 0 10-4.192-4.192l-2.589 2.59-2.59-2.59a2.964 2.964 0 10-4.192 4.192l2.589 2.59zm-3.227-1.953a3.867 3.867 0 015.467-5.466l1.953 1.952 1.952-1.952a3.866 3.866 0 015.467 5.466l-1.953 1.953 1.953 1.952a3.867 3.867 0 01-5.467 5.467l-1.952-1.953-1.953 1.953a3.866 3.866 0 01-5.467-5.467l1.953-1.952-1.953-1.953z" fill="url(#paint6_linear_79_15263)"/><g filter="url(#filter0_ddddd_79_15263)"><path d="M135.235 35.145c0 7.216-5.85 13.066-13.066 13.066-7.217 0-13.067-5.85-13.067-13.066 0-7.217 5.85-13.067 13.067-13.067 7.216 0 13.066 5.85 13.066 13.067z" fill="url(#paint7_radial_79_15263)"/></g><g filter="url(#filter1_ddddd_79_15263)"><path d="M69.451 91.016c0 6.719-5.446 12.166-12.165 12.166-6.72 0-12.166-5.447-12.166-12.166s5.447-12.165 12.166-12.165S69.45 84.297 69.45 91.016z" fill="url(#paint8_radial_79_15263)"/></g><defs><linearGradient id="paint0_linear_79_15263" x1="154.159" y1="33.343" x2="154.159" y2="196" gradientUnits="userSpaceOnUse"><stop stop-color="#3D4372"/><stop offset="1" stop-color="#19215C"/></linearGradient><linearGradient id="paint2_linear_79_15263" x1="114.439" y1="125.71" x2="114.439" y2="196" gradientUnits="userSpaceOnUse"><stop stop-color="#7D97FF"/><stop offset=".505" stop-color="#4A6CF7"/><stop offset="1" stop-color="#254AE2"/></linearGradient><linearGradient id="paint3_linear_79_15263" x1="32.831" y1="22.405" x2="53.308" y2="42.883" gradientUnits="userSpaceOnUse"><stop stop-color="#7D97FF"/><stop offset=".505" stop-color="#4A6CF7"/><stop offset="1" stop-color="#254AE2"/></linearGradient><linearGradient id="paint4_linear_79_15263" x1="32.831" y1="22.405" x2="53.308" y2="42.883" gradientUnits="userSpaceOnUse"><stop stop-color="#B8C5FC"/><stop offset="1" stop-color="#7085DE"/></linearGradient><linearGradient id="paint6_linear_79_15263" x1="161.578" y1="86.27" x2="176.417" y2="101.108" gradientUnits="userSpaceOnUse"><stop stop-color="#B7C5FC"/><stop offset="1" stop-color="#7186DF"/></linearGradient><radialGradient id="paint1_radial_79_15263" cx="0" cy="0" r="1" gradientUnits="userSpaceOnUse" gradientTransform="rotate(64.654 -24.497 153.522) scale(28.4184)"><stop stop-color="#D5DBF6"/><stop offset="1" stop-color="#11216E"/></radialGradient><radialGradient id="paint5_radial_79_15263" cx="0" cy="0" r="1" gradientUnits="userSpaceOnUse" gradientTransform="matrix(17.57156 .39048 -.39268 17.67054 160.932 92.382)"><stop stop-color="#fff"/><stop offset="1" stop-color="#F0DDFC"/></radialGradient><radialGradient id="paint7_radial_79_15263" cx="0" cy="0" r="1" gradientUnits="userSpaceOnUse" gradientTransform="rotate(77.972 40.285 88.477) scale(17.9669)"><stop stop-color="#7D97FF"/><stop offset=".505" stop-color="#4A6CF7"/><stop offset="1" stop-color="#254AE2"/></radialGradient><radialGradient id="paint8_radial_79_15263" cx="0" cy="0" r="1" gradientUnits="userSpaceOnUse" gradientTransform="matrix(14.08636 14.72664 -14.8096 14.16572 51.744 83.333)"><stop stop-color="#fff"/><stop offset="1" stop-color="#F0DDFC"/></radialGradient><filter id="filter0_ddddd_79_15263" x="107.102" y="21.078" width="39.133" height="43.133" filterUnits="userSpaceOnUse" color-interpolation-filters="sRGB"><feFlood flood-opacity="0" result="BackgroundImageFix"/><feColorMatrix in="SourceAlpha" values="0 0 0 0 0 0 0 0 0 0 0 0 0 0 0 0 0 0 127 0" result="hardAlpha"/><feOffset/><feColorMatrix values="0 0 0 0 0 0 0 0 0 0 0 0 0 0 0 0 0 0 0.15 0"/><feBlend in2="BackgroundImageFix" result="effect1_dropShadow_79_15263"/><feColorMatrix in="SourceAlpha" values="0 0 0 0 0 0 0 0 0 0 0 0 0 0 0 0 0 0 127 0" result="hardAlpha"/><feOffset dy="1"/><feGaussianBlur stdDeviation="1"/><feColorMatrix values="0 0 0 0 0 0 0 0 0 0 0 0 0 0 0 0 0 0 0.15 0"/><feBlend in2="effect1_dropShadow_79_15263" result="effect2_dropShadow_79_15263"/><feColorMatrix in="SourceAlpha" values="0 0 0 0 0 0 0 0 0 0 0 0 0 0 0 0 0 0 127 0" result="hardAlpha"/><feOffset dx="1" dy="3"/><feGaussianBlur stdDeviation="1.5"/><feColorMatrix values="0 0 0 0 0 0 0 0 0 0 0 0 0 0 0 0 0 0 0.13 0"/><feBlend in2="effect2_dropShadow_79_15263" result="effect3_dropShadow_79_15263"/><feColorMatrix in="SourceAlpha" values="0 0 0 0 0 0 0 0 0 0 0 0 0 0 0 0 0 0 127 0" result="hardAlpha"/><feOffset dx="3" dy="6"/><feGaussianBlur stdDeviation="2"/><feColorMatrix values="0 0 0 0 0 0 0 0 0 0 0 0 0 0 0 0 0 0 0.08 0"/><feBlend in2="effect3_dropShadow_79_15263" result="effect4_dropShadow_79_15263"/><feColorMatrix in="SourceAlpha" values="0 0 0 0 0 0 0 0 0 0 0 0 0 0 0 0 0 0 127 0" result="hardAlpha"/><feOffset dx="6" dy="11"/><feGaussianBlur stdDeviation="2.5"/><feColorMatrix values="0 0 0 0 0 0 0 0 0 0 0 0 0 0 0 0 0 0 0.02 0"/><feBlend in2="effect4_dropShadow_79_15263" result="effect5_dropShadow_79_15263"/><feBlend in="SourceGraphic" in2="effect5_dropShadow_79_15263" result="shape"/></filter><filter id="filter1_ddddd_79_15263" x="44.12" y="77.851" width="46.331" height="42.331" filterUnits="userSpaceOnUse" color-interpolation-filters="sRGB"><feFlood flood-opacity="0" result="BackgroundImageFix"/><feColorMatrix in="SourceAlpha" values="0 0 0 0 0 0 0 0 0 0 0 0 0 0 0 0 0 0 127 0" result="hardAlpha"/><feOffset/><feColorMatrix values="0 0 0 0 0 0 0 0 0 0 0 0 0 0 0 0 0 0 0.15 0"/><feBlend in2="BackgroundImageFix" result="effect1_dropShadow_79_15263"/><feColorMatrix in="SourceAlpha" values="0 0 0 0 0 0 0 0 0 0 0 0 0 0 0 0 0 0 127 0" result="hardAlpha"/><feOffset dx="1" dy="1"/><feGaussianBlur stdDeviation="1"/><feColorMatrix values="0 0 0 0 0 0 0 0 0 0 0 0 0 0 0 0 0 0 0.15 0"/><feBlend in2="effect1_dropShadow_79_15263" result="effect2_dropShadow_79_15263"/><feColorMatrix in="SourceAlpha" values="0 0 0 0 0 0 0 0 0 0 0 0 0 0 0 0 0 0 127 0" result="hardAlpha"/><feOffset dx="4" dy="3"/><feGaussianBlur stdDeviation="2"/><feColorMatrix values="0 0 0 0 0 0 0 0 0 0 0 0 0 0 0 0 0 0 0.13 0"/><feBlend in2="effect2_dropShadow_79_15263" result="effect3_dropShadow_79_15263"/><feColorMatrix in="SourceAlpha" values="0 0 0 0 0 0 0 0 0 0 0 0 0 0 0 0 0 0 127 0" result="hardAlpha"/><feOffset dx="8" dy="6"/><feGaussianBlur stdDeviation="3"/><feColorMatrix values="0 0 0 0 0 0 0 0 0 0 0 0 0 0 0 0 0 0 0.08 0"/><feBlend in2="effect3_dropShadow_79_15263" result="effect4_dropShadow_79_15263"/><feColorMatrix in="SourceAlpha" values="0 0 0 0 0 0 0 0 0 0 0 0 0 0 0 0 0 0 127 0" result="hardAlpha"/><feOffset dx="14" dy="10"/><feGaussianBlur stdDeviation="3.5"/><feColorMatrix values="0 0 0 0 0 0 0 0 0 0 0 0 0 0 0 0 0 0 0.02 0"/><feBlend in2="effect4_dropShadow_79_15263" result="effect5_dropShadow_79_15263"/><feBlend in="SourceGraphic" in2="effect5_dropShadow_79_15263" result="shape"/></filter></defs></svg>