<svg width="176" height="48" fill="none" xmlns="http://www.w3.org/2000/svg"><g clip-path="url(#clip0_76_6085)"><path d="M121.902 10.479H69.067a4.22 4.22 0 00-4.219 4.22v18.675a4.22 4.22 0 004.22 4.22h52.834a4.22 4.22 0 004.22-4.22V14.698a4.22 4.22 0 00-4.22-4.219z" fill="#4A6CF7"/><path d="M81.387 33.096H69.433v-18.12h4.673V29.02h7.281v4.077zm8.61.324c-2.065 0-3.776-.629-5.133-1.887-1.358-1.258-2.037-2.929-2.039-5.013a6.669 6.669 0 011.973-4.89c1.315-1.314 2.986-1.976 5.012-1.983 1.973 0 3.585.666 4.835 1.997 1.251 1.33 1.875 3.103 1.872 5.315v.896h-9.346a2.72 2.72 0 001.061 1.657 3.508 3.508 0 002.227.68 5.917 5.917 0 001.754-.312 3.844 3.844 0 001.508-.802l1.766 2.608a6.401 6.401 0 01-2.43 1.29c-.993.298-2.024.448-3.06.444zm2.527-8.285a2.746 2.746 0 00-.76-1.563c-.44-.46-1.09-.69-1.956-.692-.815 0-1.44.219-1.876.68-.423.43-.707.98-.813 1.575h5.405zm12.359 8.285c-2.064 0-3.775-.629-5.133-1.887-1.357-1.258-2.037-2.929-2.038-5.013a6.66 6.66 0 011.972-4.89c1.315-1.314 2.986-1.976 5.011-1.983 1.974 0 3.586.666 4.835 1.997 1.249 1.33 1.873 3.103 1.872 5.315v.896h-9.344a2.723 2.723 0 001.059 1.657c.644.474 1.43.714 2.229.68a5.911 5.911 0 001.753-.312 3.84 3.84 0 001.508-.802l1.754 2.608a6.39 6.39 0 01-2.431 1.29 10.48 10.48 0 01-3.047.444zm2.527-8.285a2.757 2.757 0 00-.76-1.563c-.439-.46-1.091-.69-1.957-.692-.816 0-1.44.219-1.874.68a3.02 3.02 0 00-.816 1.575h5.407zm11.027 8.285c-1.34 0-2.358-.326-3.055-.977-.697-.658-1.046-1.611-1.046-2.88v-5.949h-2.174v-3.64h2.174v-3.586h4.165v3.586h2.663v3.64h-2.672v4.78c-.018.35.094.693.313.965a1.064 1.064 0 00.855.366c.526 0 .879-.108 1.059-.325l.815 3.15c-.615.582-1.647.872-3.097.87z" fill="#fff"/><path d="M138.334 33.42c-3.114 0-5.567-.96-7.36-2.88l1.754-2.444a7.545 7.545 0 005.731 2.499c1.214 0 2.125-.245 2.731-.734a2.176 2.176 0 00.91-1.738c0-.689-.366-1.236-1.096-1.644a9.845 9.845 0 00-2.63-.964 39.378 39.378 0 01-3.11-.842 6.008 6.008 0 01-2.633-1.66c-.73-.777-1.096-1.782-1.096-3.015a4.72 4.72 0 011.841-3.779c1.223-1.004 2.813-1.506 4.77-1.506 2.788 0 5.053.842 6.794 2.525l-1.817 2.357c-1.381-1.374-3.13-2.06-5.249-2.06-.943 0-1.69.202-2.242.608a1.94 1.94 0 00-.829 1.644 1.404 1.404 0 00.585 1.142c.452.34.963.593 1.506.748a36.04 36.04 0 002.052.556c.752.18 1.503.404 2.255.658.717.247 1.404.57 2.052.964a4.449 4.449 0 011.505 1.576c.408.735.61 1.565.586 2.405a5.152 5.152 0 01-1.767 4.02c-1.179 1.043-2.927 1.564-5.243 1.564zm15.783 0c-2.029 0-3.659-.665-4.89-1.997-1.23-1.33-1.846-2.965-1.847-4.903 0-1.937.616-3.567 1.847-4.89 1.232-1.322 2.862-1.983 4.89-1.983 2.046 0 3.685.661 4.916 1.984 1.232 1.322 1.847 2.952 1.844 4.89 0 1.954-.616 3.593-1.848 4.916-1.232 1.322-2.869 1.983-4.912 1.983zm0-2.527c1.176 0 2.104-.42 2.784-1.262a5.214 5.214 0 000-6.194c-.68-.842-1.608-1.263-2.784-1.263a3.355 3.355 0 00-2.757 1.263 5.214 5.214 0 000 6.194 3.354 3.354 0 002.757 1.273v-.011zm21.133 2.203h-3.195l-3.395-4.835-3.433 4.835h-3.178l4.809-6.735-4.537-6.385h3.204l3.126 4.456 3.095-4.456h3.206l-4.537 6.384 4.835 6.736z" fill="#090E34"/><path d="M36.813.105H11.235C5.081.105.092 5.095.092 11.248v25.578c0 6.154 4.989 11.143 11.143 11.143h25.578c6.154 0 11.143-4.989 11.143-11.143V11.248c0-6.154-4.989-11.143-11.143-11.143z" fill="#4A6CF7"/><path d="M40.633 14.266c-6.32-6.562-16.609-6.63-16.609-6.63s-10.301.068-16.611 6.63c0 0-2.834 22.282 15.217 29.151v-8.986c-1.019.138-2.297.438-3.241 1.037l-.947.607-.783-.816c-.107-.111-2.63-2.794-4.024-7.689l-.096-.337 2.658-.791.097.346a18.308 18.308 0 002.718 5.712c1.814-.787 3.857-.958 4.655-.995v-.013h.712v.013c.798.037 2.85.208 4.655.995a18.305 18.305 0 002.718-5.712l.099-.346 2.656.79-.096.34c-1.387 4.895-3.917 7.578-4.024 7.69l-.783.815-.947-.607c-.944-.608-2.22-.899-3.241-1.037v8.986c18.051-6.871 15.217-29.153 15.217-29.153zM20.822 20.74l-4.368-2.26-5.379.658 5.304-3.665 5.977 3.138-1.534 2.129zm10.775-2.26l-4.369 2.26-1.534-2.129 5.97-3.145 5.305 3.665-5.372-.651z" fill="#090E34"/><path d="M43.4 25.525h-5.208v2.271h5.207v-2.27zm-9.612 15.933h-7.655v1.604h7.655v-1.604zm6.773-2.782h-4.739v1.604h4.74v-1.604zm-25.729-2.082h-5.21v1.604h5.21v-1.604zm-7.582 0H5.646v1.604H7.25v-1.604z" fill="#090E34"/><path d="M5.902 21.177H4.298v1.604h1.604v-1.604zm38.826-6.514h-1.605v1.604h1.605v-1.604zm-4.095-1.885c-6.32-6.575-16.609-6.632-16.609-6.632s-10.301.068-16.611 6.632c0 0-2.834 22.282 15.217 29.15v-8.985c-1.019.14-2.297.438-3.241 1.036l-.947.61-.783-.818c-.107-.112-2.63-2.795-4.024-7.687l-.096-.34 2.658-.79.097.346a18.326 18.326 0 002.718 5.714c1.814-.787 3.857-.96 4.655-.998v-.013h.712v.024c.798.038 2.85.22 4.655.998a18.324 18.324 0 002.718-5.714l.099-.347 2.656.792-.096.326c-1.387 4.892-3.917 7.575-4.024 7.687l-.783.817-.947-.613c-.944-.605-2.22-.897-3.241-1.037v8.986c18.051-6.853 15.217-29.144 15.217-29.144zM20.822 19.25l-4.368-2.262-5.379.658 5.304-3.667 5.977 3.141-1.534 2.13zm10.775-2.262l-4.369 2.262-1.534-2.13 5.97-3.145 5.305 3.667-5.372-.654z" fill="#fff"/><path d="M43.4 21.98h-5.208v2.27h5.207v-2.27zm-31.952-1.136H6.24v2.27h5.208v-2.27zM34.597 5.758H27.41v2.27h7.187v-2.27z" fill="#4A6CF7"/><path d="M38.192 6.5h-7.187v2.271h7.187v-2.27zm-27.604 8.452H3.402v1.662h7.186v-1.662zm1.352 15.61H4.755v2.27h7.187v-2.27z" fill="#fff"/><path d="M18.428 6.777H16.71v1.718h1.718V6.777z" fill="#4A6CF7"/></g><defs><clipPath id="clip0_76_6085"><path fill="#fff" d="M0 0h175.342v48H0z"/></clipPath></defs></svg>