<svg width="326" height="348" fill="none" xmlns="http://www.w3.org/2000/svg"><path d="M54.858 273.596c-22.6-39.146-33.9-58.719-32.46-78.203a63.446 63.446 0 016.138-22.909c8.495-17.595 28.068-28.895 67.214-51.496 39.145-22.601 58.718-33.901 78.203-32.46a63.457 63.457 0 0122.909 6.138c17.595 8.494 28.895 28.067 51.496 67.213 22.601 39.146 33.901 58.719 32.46 78.203a63.437 63.437 0 01-6.138 22.909c-8.495 17.595-28.068 28.896-67.213 51.496-39.146 22.601-58.719 33.902-78.204 32.461a63.45 63.45 0 01-22.909-6.139c-17.594-8.494-28.895-28.067-51.496-67.213z" fill="#5A6EC0"/><path d="M93.743 190.398c-23.135-40.072-34.703-60.107-33.228-80.053a64.95 64.95 0 016.284-23.451c8.695-18.01 28.731-29.579 68.803-52.714C175.674 11.044 195.71-.523 215.655.952a64.948 64.948 0 0123.451 6.283c18.011 8.696 29.579 28.732 52.714 68.803 23.136 40.072 34.704 60.108 33.229 80.054a64.955 64.955 0 01-6.284 23.451c-8.696 18.011-28.731 29.578-68.803 52.714-40.072 23.135-60.108 34.703-80.054 33.228a64.973 64.973 0 01-23.451-6.283c-18.01-8.696-29.578-28.732-52.714-68.804z" fill="#FC7183"/><path clip-rule="evenodd" d="M1.267 47.085a6.422 6.422 0 006.424 6.424 6.421 6.421 0 006.423-6.424 6.421 6.421 0 00-6.423-6.424 6.422 6.422 0 00-6.424 6.424z" stroke="#4A6CF7" stroke-width="2" stroke-miterlimit="2.613"/><path clip-rule="evenodd" d="M178.116 57.665a7.182 7.182 0 007.179 7.18c3.951 0 7.18-3.205 7.18-7.18 0-3.974-3.229-7.18-7.18-7.18a7.182 7.182 0 00-7.179 7.18z" stroke="#fff" stroke-width="2" stroke-miterlimit="2.613"/><path d="M127.176 13.453l2.797-3m2.796 3l-2.796-3 2.796 3zm-27.963 0l2.796-3-2.796 3zm5.592 0l-2.796-3 2.796 3zm0 0l2.797-3-2.797 3zm5.593 0l-2.796-3 2.796 3zm0 0l2.796-3-2.796 3zm5.593 0l-2.797-3 2.797 3zm0 0l2.796-3.023-2.796 3.023zm5.592 0l-2.796-3.023 2.796 3.023z" stroke="#4A6CF7" stroke-width="2" stroke-miterlimit="2.613" stroke-linecap="round" stroke-linejoin="round"/><path d="M61.123 193.324l5.593-5.999m5.592 5.999l-5.593-5.999 5.593 5.999zm-55.926 0l5.592-5.999-5.592 5.999zm11.185 0l-5.593-5.999 5.593 5.999zm0 0l5.593-5.999-5.593 5.999zm11.185 0l-5.592-5.999 5.592 5.999zm0 0l5.593-5.999-5.593 5.999zm11.186 0l-5.593-5.999 5.593 5.999zm0 0l5.592-6.046-5.592 6.046zm11.185 0l-5.593-6.046 5.593 6.046z" stroke="#fff" stroke-width="2" stroke-miterlimit="2.613" stroke-linecap="round" stroke-linejoin="round"/><path d="M172.825 163.704h10.661m-5.331 5.331l.006-10.476" stroke="#59598D" stroke-width="4" stroke-miterlimit="2.613" stroke-linecap="round" stroke-linejoin="round"/><path d="M19.406 150.896h6.046m-3.024 3.023l.004-5.941" stroke="#4A6CF7" stroke-width="2" stroke-miterlimit="2.613" stroke-linecap="round" stroke-linejoin="round"/><path d="M179.138 129.744c13.474-13.462 13.474-35.288 0-48.75-13.475-13.461-35.322-13.461-48.797 0-13.475 13.462-13.475 35.288 0 48.75 13.475 13.462 35.322 13.462 48.797 0z" fill="#4A6CF7"/><path fill-rule="evenodd" clip-rule="evenodd" d="M101.686 35.98a38.727 38.727 0 00-8.093-6.193l14.293 14.279c-1.679-2.882-3.724-5.613-6.2-8.086zM89.76 27.873a41.031 41.031 0 00-3.077-1.161l24.28 24.257a40.928 40.928 0 00-1.162-3.075l-20.04-20.02zm-5.788-1.958a32.904 32.904 0 00-2.432-.538l30.738 30.73a30.332 30.332 0 00-.539-2.43L83.972 25.915zm-4.693-.881c-.71-.086-1.4-.15-2.11-.215l35.668 35.632a23.15 23.15 0 00-.216-2.107l-33.342-33.31zm-4.091-.28c-.624-.021-1.27 0-1.895.021L112.9 64.344c.021-.623.021-1.269.021-1.892L75.188 24.754zm-3.702.107c-.582.043-1.163.108-1.722.172l42.878 42.837c.064-.58.129-1.162.172-1.72L71.486 24.86zm-3.401.409c-.539.086-1.077.194-1.593.301l45.59 45.546c.108-.538.215-1.054.301-1.591L68.085 25.27zm-3.142.667c-.495.129-.99.258-1.485.409l47.85 47.803c.151-.494.28-.989.409-1.483L64.943 25.937zm-2.928.881c-.473.15-.925.323-1.399.516L110.34 77.01c.173-.451.345-.924.517-1.398l-48.84-48.793zm-2.755 1.076c-.43.194-.882.387-1.313.602l51.23 51.18c.216-.43.409-.86.603-1.311L59.26 27.894zm-2.584 1.226c-.41.215-.818.452-1.227.667l52.414 52.363c.236-.41.452-.818.667-1.226L56.676 29.12zm-2.433 1.376c-.387.237-.775.495-1.162.753L106.4 84.515c.258-.387.517-.775.753-1.162l-52.91-52.857zm-2.259 1.527c-.366.258-.732.537-1.098.817l53.921 53.868c.28-.366.56-.731.818-1.097L51.984 32.022zM49.833 33.7c-.345.28-.69.58-1.012.881l54.265 54.212c.301-.344.602-.666.882-1.01L49.832 33.7zm-2.003 1.806a4.8 4.8 0 00-.473.473l-.474.473 54.309 54.255a4.8 4.8 0 00.473-.473l.474-.473L47.83 35.506zm-1.873 1.936c-.301.344-.602.666-.882 1.01l54.114 54.062c.344-.28.689-.58 1.012-.882l-54.244-54.19zm-1.742 2.086c-.28.366-.56.71-.819 1.097l53.663 53.61c.366-.258.732-.538 1.097-.817l-53.942-53.89zm-1.593 2.193c-.258.387-.517.774-.753 1.161L94.778 95.74c.387-.237.775-.495 1.162-.753L42.622 41.721zm-1.465 2.344c-.237.409-.452.818-.667 1.226l51.875 51.825c.41-.215.818-.451 1.227-.666L41.157 44.065zm-1.313 2.516c-.215.43-.41.86-.603 1.312l50.52 50.47c.43-.193.882-.387 1.313-.602l-51.23-51.18zm-1.161 2.646a99.29 99.29 0 00-.517 1.397l48.841 48.793c.474-.15.926-.322 1.4-.516L38.682 49.227zm-.969 2.838c-.15.495-.28.99-.409 1.484l46.774 46.75c.496-.129.99-.258 1.486-.409l-47.85-47.825zm-.776 3.031c-.108.538-.215 1.054-.301 1.592l44.299 44.255a34.208 34.208 0 001.593-.301l-45.59-45.546zm-.538 3.269c-.064.58-.129 1.161-.172 1.72l41.328 41.289a43.362 43.362 0 001.722-.172L36.4 58.365zm-.28 3.528c-.02.623-.02 1.268-.02 1.892l37.733 37.697c.624.021 1.27 0 1.894-.022L36.12 61.893zm.065 3.891c.043.71.107 1.398.215 2.108l33.343 33.31c.71.086 1.399.15 2.109.215L36.185 65.784zm.559 4.366c.15.818.322 1.635.538 2.43l27.767 27.741c.818.215 1.614.387 2.432.537L36.745 70.15zm1.316 5.118a40.887 40.887 0 001.161 3.075l20.019 20.02c1.012.43 2.045.818 3.078 1.162L38.059 75.268zm3.097 6.902a38.159 38.159 0 006.199 8.087 38.731 38.731 0 008.093 6.193L41.157 82.17z" fill="#4A6CF7"/><path d="M96.937 184.32c-1.762-.655-3.653-.546-5.472-.896-3.642-.694-7.291-1.345-10.769-2.694 1.76-1.907 3.554-3.782 5.268-5.721 5.786-6.549 10.764-13.631 14.053-21.79 2.075-5.171 3.501-10.471 2.678-16.156-1.088-7.52-5.46-12.274-12.354-14.976-.4-.291-.83-.54-1.281-.743a50.132 50.132 0 00-23.564-2.047c-1.032.152-2.008.847-3.124.401l8.76-7.821c.57.606 1.205.686 2.028.494 3.694-.876 7.328-1.899 10.628-3.851.466-.273.944-.441 1.397-.092.454.349.273.879.097 1.365-.221.606-.402 1.229-.582 1.847-.426 1.449.112 2.088 1.557 1.678 4.593-1.293 9.038-2.882 12.447-6.504.855-.911 1.582-.658 1.847.59.294 1.522.429 3.071.401 4.621 0 1.446.462 1.879 1.803 1.606 4.693-.895 8.857-2.81 11.844-6.689.932-1.204 1.606-1.076 2.465-.08 1.269 1.851 2.273 3.818 2.578 6.083.1.751.402 1.345 1.301 1.285.755.317 1.076 1.044 1.449 1.67 4.517 7.54 6.85 15.606 6.191 24.491a44.455 44.455 0 01-2.987 13.053c-2.284 5.85-5.159 11.479-6.753 17.59-1.024 3.931-1.859 7.853 1.538 11.186-3.232 1.02-6.585 1.373-9.929 1.782-.402.049-.912-.228-1.205.301l-12.31.017z" fill="#543438"/><path d="M120.895 114.242c-.915.06-1.204-.534-1.301-1.285-.305-2.264-1.309-4.232-2.577-6.083.212-1.826.53-3.649.622-5.484a47.54 47.54 0 00-.883-11.897c-1.538-7.568-4.65-14.397-9.741-20.26-1.718-1.979-1.734-1.943.743-2.597.494-.132 1.204.02 1.405-.662.201-.683-.47-1.04-.859-1.454-4.589-4.858-10.246-7.817-16.678-9.48A50.25 50.25 0 0077.4 53.592c-.357-.566-.594-1.269-1.437-1.305-.983-.457-1.943-.991-2.963-1.369-3.212-1.204-5.882-2.955-7.801-5.918-1.04-1.606-2.574-2.907-4.641-3.24 1.26-1.859 3.188-2.951 4.978-4.143 5.135-3.417 10.88-5.425 16.915-6.457a55.407 55.407 0 0113.531-.501c6.825.521 12.8 3.127 18.469 6.733.454.289.939.53 1.409.803.157.481.623.626.98.887a70.934 70.934 0 017.44 6.291 97.98 97.98 0 0115.297 19.18c9.038 14.803 16.297 30.281 17.393 47.983a2.189 2.189 0 01-.562 1.783c-.783.044-1.108-.57-1.522-1.06a31.82 31.82 0 00-8.227-6.914c-1.092-.646-1.674-.477-2.22.643-1.385 2.842-3.67 4.818-6.396 6.327-1.14.635-1.811.474-2.236-.851-.731-2.264-2.036-4.216-3.525-6.054-.727-.892-1.37-.88-2.032.048-2.437 3.413-5.693 5.846-9.355 7.785zM82.126 50.227a5.83 5.83 0 005.978-6.994c-.112-.599-.28-.936.563-1.137 1.204-.293 1.826-1.204 1.642-2.493-.185-1.289-1.016-1.927-2.277-1.951a34.914 34.914 0 00-4.348.036 17.24 17.24 0 00-9.343 3.738 2.26 2.26 0 00-.775 2.686 1.955 1.955 0 002.224 1.401c.896-.14 1.06.325 1.317.98a5.66 5.66 0 005.02 3.734z" fill="#E5EFFE"/><path d="M71.109 111.873l-8.76 7.821c-.51.397-1.093.69-1.715.863-5.296 1.647-10.094 4.264-14.587 7.488-4.039 2.915-7.556 6.376-11.085 9.845-2.064-4.312-3.18-8.917-4.083-13.567a69.589 69.589 0 01-1.273-13.996c.16-15.153 4.515-28.99 13.065-41.51.325-.47.887-.856.803-1.55.522-.037.722-.402.883-.836.638-.755 1.41-1.417 1.767-2.377v.036l.32-.3a6.795 6.795 0 012.354-.9c3.701-.895 7.427-.562 11.153-.229l5.73 1.088c.991.325 2.007.61 2.97.984 10.311 3.942 15.31 13.25 13.102 23.905-1.325 6.424-4.128 12.141-7.356 17.734-1.084 1.847-2.586 3.437-3.288 5.501z" fill="#859DFF"/><path d="M120.894 114.241c3.662-1.939 6.918-4.372 9.355-7.785.663-.927 1.305-.939 2.032-.048 1.489 1.839 2.81 3.79 3.525 6.055.425 1.325 1.096 1.485 2.236.851 2.726-1.518 5.011-3.485 6.396-6.328.546-1.12 1.128-1.289 2.22-.642a31.78 31.78 0 018.227 6.914c.402.49.739 1.104 1.522 1.06 2.738 10.105 3.842 20.396 3.702 30.855-.061 4.457-.526 8.873-.948 13.298-6.452 7.769-14.313 13.747-23.319 18.24a64.037 64.037 0 01-15.462 5.524c-3.397-3.332-2.561-7.255-1.538-11.185 1.606-6.111 4.469-11.74 6.754-17.59a44.556 44.556 0 002.939-13.053c.658-8.889-1.675-16.955-6.191-24.491-.374-.615-.695-1.357-1.45-1.675z" fill="#725057"/><path d="M159.349 158.687c.401-4.417.887-8.833.947-13.298.141-10.439-.963-20.749-3.701-30.855a2.181 2.181 0 00.562-1.783c-1.104-17.71-8.364-33.18-17.401-47.983a97.972 97.972 0 00-15.314-19.188 70.797 70.797 0 00-7.439-6.291c-.358-.261-.803-.402-.98-.888a68.301 68.301 0 0122.291 7.657c13.711 7.472 24.118 18.208 31.088 32.192a72.092 72.092 0 017.404 27.001 73.072 73.072 0 01-8.323 40.114 63.599 63.599 0 01-9.134 13.322z" fill="#859DFF"/><path d="M90.317 122.086c6.894 2.703 11.266 7.456 12.354 14.976.823 5.686-.602 10.985-2.678 16.157-3.276 8.158-8.255 15.257-14.053 21.789-1.714 1.939-3.509 3.814-5.267 5.722a71.055 71.055 0 01-22.083-11.495 34.414 34.414 0 01-4.448-3.779c2.276-1.248 4.565-2.473 6.825-3.746 3.477-1.951 7.063-3.746 10.158-6.295 3.176-2.622 4.368-5.87.727-9.235-1.173-1.084-2.41-2.111-3.53-3.232-3.211-3.171-3.211-6.604 0-9.832 3.67-3.722 8.356-5.734 13.061-7.677 2.947-1.205 5.955-2.24 8.934-3.353z" fill="#8D6876"/><path d="M90.317 122.088c-2.98 1.112-5.987 2.148-8.926 3.36-4.705 1.943-9.39 3.955-13.06 7.677-3.184 3.212-3.189 6.661 0 9.833 1.132 1.12 2.356 2.148 3.529 3.232 3.641 3.356 2.449 6.604-.727 9.234-3.096 2.55-6.681 4.344-10.158 6.296-2.26 1.272-4.55 2.497-6.826 3.746-3.212-2.53-5.854-5.577-8.407-8.721a72.312 72.312 0 01-10.41-17.425c-.194-.454-.475-.891-.402-1.425 3.529-3.465 7.046-6.942 11.085-9.841 4.493-3.212 9.29-5.842 14.587-7.488a4.983 4.983 0 001.714-.863c1.108.449 2.092-.245 3.124-.402a50.119 50.119 0 0123.564 2.048c.462.199.902.447 1.313.739z" fill="#725057"/><path d="M44.341 66.431c-.16.401-.361.803-.883.835-1.63-1.41-1.911-3.465-2.349-5.356-1.357-5.83.341-10.672 5.12-14.345 4.235-3.257 9.17-4.819 14.325-5.806 2.067.333 3.613 1.634 4.641 3.24 1.92 2.963 4.597 4.73 7.801 5.918 1.02.377 1.98.911 2.963 1.37-1.63 1.758-3.826 2.408-6.022 3.09-3.06.932-6.244 1.08-9.383 1.518-2.297-.04-4.55.358-6.798.719-2.164.35-4.36.77-5.99 2.409-1.16 1.16-2.586 2.244-2.377 4.208l-.092-.069a.401.401 0 00-.342.382 2.963 2.963 0 00-.614 1.887zm13.374-20.65c-1.642 0-2.22.964-2.477 2.053-.257 1.087.462 1.927 1.405 2.376.784.298 1.59.535 2.41.711a2.357 2.357 0 003.038-1.365 2.228 2.228 0 00-1.232-2.835 25.582 25.582 0 00-3.14-.94h-.004z" fill="#FEE301"/><path d="M71.109 111.874c.703-2.064 2.204-3.654 3.268-5.501 3.212-5.593 6.023-11.318 7.356-17.734 2.208-10.656-2.79-19.963-13.101-23.905-.972-.374-1.98-.659-2.971-.984 2.296-3.955 5.986-6.18 9.993-7.986 1-.45 1.69-1.024 1.746-2.172 4.787-.197 9.577.29 14.226 1.45 6.424 1.662 12.089 4.62 16.678 9.479.401.401 1.076.719.859 1.453-.217.735-.911.53-1.405.663-2.477.654-2.461.618-.743 2.597 5.091 5.862 8.203 12.692 9.741 20.26a47.542 47.542 0 01.883 11.897c-.093 1.834-.402 3.657-.622 5.484-.856-.996-1.534-1.128-2.466.08-2.987 3.879-7.15 5.794-11.844 6.689-1.341.257-1.803-.176-1.803-1.606a22.249 22.249 0 00-.401-4.621c-.265-1.249-.992-1.502-1.847-.59-3.393 3.613-7.837 5.219-12.447 6.504-1.445.402-1.983-.229-1.557-1.678.184-.618.36-1.241.582-1.847.176-.486.401-.98-.097-1.365-.497-.386-.931-.181-1.397.092-3.3 1.952-6.934 2.975-10.627 3.851-.791.176-1.434.108-2.004-.51z" fill="#C4DDF7"/><path d="M82.126 50.227a5.661 5.661 0 01-5.019-3.75c-.257-.655-.421-1.12-1.317-.98a1.955 1.955 0 01-2.224-1.401 2.26 2.26 0 01.775-2.67 17.24 17.24 0 019.347-3.738c1.447-.103 2.9-.115 4.348-.037 1.26.025 2.092.687 2.276 1.952.185 1.264-.43 2.2-1.642 2.493-.843.2-.674.538-.562 1.136a5.832 5.832 0 01-5.982 6.995zm-3.232-5.65c0 1.382 1.305 2.718 2.614 2.69 1.409-.032 2.83-1.457 2.778-2.786a2.81 2.81 0 00-2.899-2.618c-1.582.036-2.497 1.028-2.493 2.714z" fill="#735259"/><path d="M77.4 53.592c-.056 1.148-.746 1.722-1.746 2.172-4.015 1.806-7.697 4.015-9.993 7.985l-5.73-1.088c2.39-3.212 2.41-3.46.635-5.765 3.14-.438 6.323-.586 9.383-1.518 2.188-.666 4.384-1.333 6.022-3.091.835.036 1.072.738 1.43 1.305z" fill="#FCAD02"/><path d="M60.565 56.896c1.78 2.304 1.755 2.537-.634 5.765-3.726-.333-7.452-.666-11.154.23a6.799 6.799 0 00-2.352.899c-.181.02-.35.056-.322.3v-.035l-.71.168c-.209-1.963 1.204-3.047 2.377-4.207 1.63-1.63 3.826-2.052 5.99-2.41 2.256-.353 4.509-.75 6.805-.71z" fill="#FBC901"/><path d="M45.4 64.222l.711-.168c-.357.96-1.128 1.606-1.766 2.377a2.963 2.963 0 01.622-1.895c.113-.129.225-.257.341-.382l.093.068z" fill="#F2F3DD"/><path d="M46.103 64.091c-.028-.245.141-.281.322-.301l-.322.301z" fill="#F2F3DD"/><path d="M57.719 45.782a25.56 25.56 0 013.16.94 2.228 2.228 0 011.232 2.834 2.357 2.357 0 01-3.039 1.365 16.571 16.571 0 01-2.409-.71c-.944-.45-1.67-1.257-1.405-2.378.265-1.12.819-2.055 2.46-2.051z" fill="#FDAD00"/><path d="M45.307 64.155c-.116.124-.228.252-.34.38a.401.401 0 01.34-.38z" fill="#FBC901"/><path d="M78.894 44.578c0-1.686.911-2.678 2.493-2.714a2.81 2.81 0 012.9 2.618c.051 1.329-1.37 2.754-2.78 2.786-1.308.028-2.609-1.309-2.613-2.69z" fill="#62414D"/></svg>