<svg width="29" height="20" fill="none" xmlns="http://www.w3.org/2000/svg"><rect x=".5" width="28" height="20" rx="5" fill="#fff"/><g clip-path="url(#clip0_549_4425)" fill="#4A6CF7"><path d="M14.855 13.46a1.294 1.294 0 00-1.644 1.244c0 .712.58 1.292 1.292 1.292.713 0 1.293-.58 1.293-1.292 0-.591-.399-1.09-.941-1.244zm4.353-.048c-.591 0-1.09.398-1.244.94h-.663V12.65a.744.744 0 00-.743-.743h-1v.703h1a.04.04 0 01.04.04v1.755c0 .359.293.651.652.651h.714a1.294 1.294 0 002.536-.351c0-.713-.58-1.292-1.292-1.292z"/><path d="M10.958 10.938l3.194-.007v1.81a2.01 2.01 0 01.703 0V10.93l3.208-.007A2.43 2.43 0 0020.5 8.495c0-1.626-1.423-2.859-2.967-2.568a1.84 1.84 0 00-1.546-.794c-1.107-1.762-3.793-1.386-4.373.613-2.144-.43-3.776 1.892-2.848 3.828a2.437 2.437 0 002.192 1.364z"/><path d="M13.45 11.906h-1.001a.744.744 0 00-.743.743v1.704h-.664a1.294 1.294 0 00-1.243-.941c-.713 0-1.292.58-1.292 1.292 0 .712.58 1.292 1.292 1.292.59 0 1.09-.399 1.243-.94h.715c.36 0 .651-.293.651-.652v-1.755a.04.04 0 01.041-.04h1v-.703z"/></g><defs><clipPath id="clip0_549_4425"><path fill="#fff" transform="translate(8.5 4)" d="M0 0h12v12H0z"/></clipPath></defs></svg>