<svg width="30" height="26" viewBox="0 0 30 26" fill="none" xmlns="http://www.w3.org/2000/svg">
<path d="M13.0576 26C14.4935 26 15.6576 24.836 15.6576 23.4C15.6576 21.9641 14.4935 20.8 13.0576 20.8C11.6217 20.8 10.4576 21.9641 10.4576 23.4C10.4576 24.836 11.6217 26 13.0576 26Z" fill="#4A6CF7"/>
<path d="M21.7821 26C23.218 26 24.3821 24.836 24.3821 23.4C24.3821 21.9641 23.218 20.8 21.7821 20.8C20.3462 20.8 19.1821 21.9641 19.1821 23.4C19.1821 24.836 20.3462 26 21.7821 26Z" fill="#4A6CF7"/>
<path d="M0.866654 1.73336H4.48077L8.66486 16.3806L8.33669 17.0369C7.47258 18.7633 8.72697 20.7997 10.6624 20.7997H25.2485C25.7275 20.7997 26.1152 20.4121 26.1152 19.9331C26.1152 19.4541 25.7275 19.0664 25.2485 19.0664H10.6624C10.0189 19.0664 9.59825 18.3888 9.88719 17.8122L10.1267 17.3331H25.2485C25.6353 17.3331 25.9755 17.0767 26.0822 16.7043L29.5488 4.57114C29.6233 4.30964 29.5708 4.02861 29.4075 3.81114C29.2433 3.59447 28.9868 3.46667 28.7152 3.46667H6.77856L5.96778 0.628844C5.86112 0.256472 5.52093 0 5.13411 0H0.866654C0.387625 0 0 0.387625 0 0.866654C0 1.34568 0.387625 1.73336 0.866654 1.73336Z" fill="#4A6CF7"/>
</svg>
