<svg width="10" height="7" viewBox="0 0 10 7" fill="none" xmlns="http://www.w3.org/2000/svg">
<path d="M4.6098 6.33709L0.159755 1.79221C0.0567475 1.6871 -4.57559e-08 1.54677 -3.92157e-08 1.39715C-3.26756e-08 1.24753 0.0567475 1.10721 0.159755 1.00209L0.487394 0.667391C0.700889 0.4496 1.04788 0.4496 1.26105 0.667391L4.99793 4.48384L8.73895 0.663157C8.84196 0.558039 8.97928 0.5 9.1257 0.5C9.27228 0.5 9.4096 0.558039 9.51269 0.663157L9.84025 0.997855C9.94325 1.10306 10 1.2433 10 1.39292C10 1.54254 9.94325 1.68286 9.84025 1.78798L5.38614 6.33709C5.2828 6.44246 5.14484 6.50033 4.99817 6.5C4.85094 6.50033 4.71305 6.44246 4.6098 6.33709Z" fill="#595E6A"/>
</svg>