<svg width="20" height="20" viewBox="0 0 20 20" fill="none" xmlns="http://www.w3.org/2000/svg">
<path fill-rule="evenodd" clip-rule="evenodd" d="M6.33325 2C4.6764 2 3.33325 3.34315 3.33325 5V14.5556C3.33325 16.2124 4.6764 17.5556 6.33325 17.5556H13.6666C15.3234 17.5556 16.6666 16.2124 16.6666 14.5556V5C16.6666 3.34315 15.3234 2 13.6666 2H6.33325ZM6.27391 2.86426C5.05888 2.86426 4.07391 3.84923 4.07391 5.06426V14.4914C4.07391 15.7064 5.05888 16.6914 6.27391 16.6914H13.7258C14.9408 16.6914 15.9258 15.7064 15.9258 14.4914V5.06426C15.9258 3.84923 14.9408 2.86426 13.7258 2.86426H6.27391Z" fill="currentColor"/>
<path fill-rule="evenodd" clip-rule="evenodd" d="M6 3.72852C5.44772 3.72852 5 4.17623 5 4.72852V6.18531C5 6.73759 5.44772 7.18531 6 7.18531H14C14.5523 7.18531 15 6.73759 15 6.1853V4.72852C15 4.17623 14.5523 3.72852 14 3.72852H6ZM6.66667 6.3209C7.1269 6.3209 7.5 5.93398 7.5 5.4567C7.5 4.97942 7.1269 4.5925 6.66667 4.5925C6.20643 4.5925 5.83333 4.97942 5.83333 5.4567C5.83333 5.93398 6.20643 6.3209 6.66667 6.3209ZM10 5.4567C10 5.93398 9.6269 6.3209 9.16667 6.3209C8.70643 6.3209 8.33333 5.93398 8.33333 5.4567C8.33333 4.97942 8.70643 4.5925 9.16667 4.5925C9.6269 4.5925 10 4.97942 10 5.4567ZM11.6975 4.5925C11.2202 4.5925 10.8333 4.97942 10.8333 5.4567C10.8333 5.93398 11.2202 6.3209 11.6975 6.3209H13.3025C13.7798 6.3209 14.1667 5.93398 14.1667 5.4567C14.1667 4.97942 13.7798 4.5925 13.3025 4.5925H11.6975Z" fill="currentColor"/>
<path fill-rule="evenodd" clip-rule="evenodd" d="M6 8.04883C5.44772 8.04883 5 8.49654 5 9.04883V10.5056C5 11.0579 5.44772 11.5056 6 11.5056H14C14.5523 11.5056 15 11.0579 15 10.5056V9.04883C15 8.49654 14.5523 8.04883 14 8.04883H6ZM13.3333 10.6414C12.8731 10.6414 12.5 10.2545 12.5 9.77723C12.5 9.29995 12.8731 8.91303 13.3333 8.91303C13.7936 8.91303 14.1667 9.29995 14.1667 9.77723C14.1667 10.2545 13.7936 10.6414 13.3333 10.6414ZM10 9.77723C10 10.2545 10.3731 10.6414 10.8333 10.6414C11.2936 10.6414 11.6667 10.2545 11.6667 9.77723C11.6667 9.29995 11.2936 8.91303 10.8333 8.91303C10.3731 8.91303 10 9.29995 10 9.77723ZM8.30233 8.91303C8.77962 8.91303 9.16653 9.29995 9.16653 9.77723C9.16653 10.2545 8.77962 10.6414 8.30233 10.6414H6.6974C6.22011 10.6414 5.8332 10.2545 5.8332 9.77723C5.8332 9.29995 6.22011 8.91303 6.69739 8.91303H8.30233Z" fill="currentColor"/>
<path fill-rule="evenodd" clip-rule="evenodd" d="M6 12.3701C5.44772 12.3701 5 12.8178 5 13.3701V14.8269C5 15.3792 5.44772 15.8269 6 15.8269H14C14.5523 15.8269 15 15.3792 15 14.8269V13.3701C15 12.8178 14.5523 12.3701 14 12.3701H6ZM6.66667 14.9627C7.1269 14.9627 7.5 14.5758 7.5 14.0985C7.5 13.6212 7.1269 13.2343 6.66667 13.2343C6.20643 13.2343 5.83333 13.6212 5.83333 14.0985C5.83333 14.5758 6.20643 14.9627 6.66667 14.9627ZM10 14.0985C10 14.5758 9.6269 14.9627 9.16667 14.9627C8.70643 14.9627 8.33333 14.5758 8.33333 14.0985C8.33333 13.6212 8.70643 13.2343 9.16667 13.2343C9.6269 13.2343 10 13.6212 10 14.0985ZM11.6975 13.2343C11.2202 13.2343 10.8333 13.6212 10.8333 14.0985C10.8333 14.5758 11.2202 14.9627 11.6975 14.9627H13.3025C13.7798 14.9627 14.1667 14.5758 14.1667 14.0985C14.1667 13.6212 13.7798 13.2343 13.3025 13.2343H11.6975Z" fill="currentColor"/>
<path fill-rule="evenodd" clip-rule="evenodd" d="M3.33346 12.3701H2.77786C2.16421 12.3701 1.66675 12.8676 1.66675 13.4812V14.7158C1.66675 15.3294 2.16421 15.8269 2.77786 15.8269H3.61549C3.4895 15.5581 3.40222 15.2675 3.36083 14.9623C3.35172 14.9626 3.34257 14.9628 3.33338 14.9628C2.87314 14.9628 2.50005 14.5759 2.50005 14.0986C2.50005 13.6213 2.87314 13.2344 3.33338 13.2344C3.33341 13.2344 3.33343 13.2344 3.33346 13.2344V12.3701Z" fill="currentColor"/>
<path fill-rule="evenodd" clip-rule="evenodd" d="M16.6665 12.3701H17.2221C17.8358 12.3701 18.3333 12.8676 18.3333 13.4812V14.7158C18.3333 15.3294 17.8358 15.8269 17.2221 15.8269H16.3845C16.5105 15.5581 16.5978 15.2675 16.6392 14.9623C16.6483 14.9626 16.6574 14.9628 16.6666 14.9628C17.1269 14.9628 17.5 14.5759 17.5 14.0986C17.5 13.6213 17.1269 13.2344 16.6666 13.2344C16.6666 13.2344 16.6666 13.2344 16.6665 13.2344V12.3701Z" fill="currentColor"/>
<path fill-rule="evenodd" clip-rule="evenodd" d="M3.33346 8.04883H2.77786C2.16421 8.04883 1.66675 8.54629 1.66675 9.15994V10.3945C1.66675 11.0082 2.16421 11.5056 2.77786 11.5056H3.33346V10.6409C2.87037 10.6248 2.49992 10.2443 2.49992 9.77728C2.49992 9.31026 2.87037 8.92977 3.33346 8.91362V8.04883Z" fill="currentColor"/>
<path fill-rule="evenodd" clip-rule="evenodd" d="M16.6665 8.04883H17.2221C17.8358 8.04883 18.3333 8.54629 18.3333 9.15994V10.3945C18.3333 11.0082 17.8358 11.5056 17.2221 11.5056H16.6665V10.6409C17.1296 10.6248 17.5001 10.2443 17.5001 9.77728C17.5001 9.31026 17.1296 8.92977 16.6665 8.91362V8.04883Z" fill="currentColor"/>
<path fill-rule="evenodd" clip-rule="evenodd" d="M3.33346 6.3209C3.33343 6.3209 3.33341 6.3209 3.33338 6.3209C2.87314 6.3209 2.50005 5.93398 2.50005 5.4567C2.50005 4.97942 2.87314 4.5925 3.33338 4.5925C3.34257 4.5925 3.35172 4.59266 3.36084 4.59296C3.40222 4.28785 3.48948 3.99731 3.61544 3.72852H2.77786C2.16421 3.72852 1.66675 4.22598 1.66675 4.83963V6.07419C1.66675 6.68784 2.16421 7.18531 2.77786 7.18531H3.33346V6.3209Z" fill="currentColor"/>
<path fill-rule="evenodd" clip-rule="evenodd" d="M16.6665 6.3209C16.6666 6.3209 16.6666 6.3209 16.6666 6.3209C17.1269 6.3209 17.5 5.93398 17.5 5.4567C17.5 4.97942 17.1269 4.5925 16.6666 4.5925C16.6574 4.5925 16.6483 4.59266 16.6392 4.59296C16.5978 4.28785 16.5105 3.99731 16.3846 3.72852H17.2221C17.8358 3.72852 18.3333 4.22598 18.3333 4.83963V6.07419C18.3333 6.68784 17.8358 7.18531 17.2221 7.18531H16.6665V6.3209Z" fill="currentColor"/>
<path fill-rule="evenodd" clip-rule="evenodd" d="M0 5.33333C0 3.49238 1.49238 2 3.33333 2H6.33333C5.51227 2 4.76824 2.32985 4.22653 2.86426H3.18513C1.8351 2.86426 0.740682 3.95867 0.740682 5.3087V14.247C0.740682 15.597 1.8351 16.6914 3.18513 16.6914H4.22665C4.76782 17.2252 5.51087 17.5549 6.33091 17.5556H3.33333C1.49238 17.5556 0 16.0632 0 14.2222V5.33333Z" fill="currentColor"/>
<path fill-rule="evenodd" clip-rule="evenodd" d="M20 5.33333C20 3.49238 18.5076 2 16.6667 2H13.6667C14.4877 2 15.2318 2.32985 15.7735 2.86426H16.8149C18.1649 2.86426 19.2593 3.95867 19.2593 5.3087V14.247C19.2593 15.597 18.1649 16.6914 16.8149 16.6914H15.7733C15.2322 17.2252 14.4891 17.5549 13.6691 17.5556H16.6667C18.5076 17.5556 20 16.0632 20 14.2222V5.33333Z" fill="currentColor"/>
</svg>
