<svg width="20" height="20" viewBox="0 0 20 20" fill="none" xmlns="http://www.w3.org/2000/svg">
    <path fill-rule="evenodd" clip-rule="evenodd"
          d="M3 0C1.34315 0 0 1.34315 0 3V17C0 18.6569 1.34315 20 3 20H17C18.6569 20 20 18.6569 20 17V3C20 1.34315 18.6569 0 17 0H3ZM3.11111 1.11111C2.00654 1.11111 1.11111 2.00654 1.11111 3.11111V16.8889C1.11111 17.9935 2.00654 18.8889 3.11111 18.8889H16.8889C17.9935 18.8889 18.8889 17.9935 18.8889 16.8889V3.11111C18.8889 2.00654 17.9935 1.11111 16.8889 1.11111H3.11111Z"
          fill="currentColor"/>
    <path fill-rule="evenodd" clip-rule="evenodd"
          d="M3.22217 2.22266C2.66988 2.22266 2.22217 2.67037 2.22217 3.22266V5.6671C2.22217 6.21939 2.66988 6.6671 3.22217 6.6671H16.7777C17.33 6.6671 17.7777 6.21939 17.7777 5.6671V3.22266C17.7777 2.67037 17.33 2.22266 16.7777 2.22266H3.22217ZM4.44444 5.55604C5.05809 5.55604 5.55556 5.05858 5.55556 4.44493C5.55556 3.83128 5.05809 3.33382 4.44444 3.33382C3.83079 3.33382 3.33333 3.83128 3.33333 4.44493C3.33333 5.05858 3.83079 5.55604 4.44444 5.55604ZM8.88889 4.44493C8.88889 5.05858 8.39143 5.55604 7.77778 5.55604C7.16413 5.55604 6.66667 5.05858 6.66667 4.44493C6.66667 3.83128 7.16413 3.33382 7.77778 3.33382C8.39143 3.33382 8.88889 3.83128 8.88889 4.44493ZM11 3.33382C10.4477 3.33382 10 3.78154 10 4.33382V4.55604C10 5.10833 10.4477 5.55604 11 5.55604H15.6667C16.219 5.55604 16.6667 5.10833 16.6667 4.55604V4.33382C16.6667 3.78154 16.219 3.33382 15.6667 3.33382H11Z"
          fill="currentColor"/>
    <path fill-rule="evenodd" clip-rule="evenodd"
          d="M3.22217 7.77734C2.66988 7.77734 2.22217 8.22506 2.22217 8.77734V11.2218C2.22217 11.7741 2.66988 12.2218 3.22217 12.2218H16.7777C17.33 12.2218 17.7777 11.7741 17.7777 11.2218V8.77734C17.7777 8.22506 17.33 7.77734 16.7777 7.77734H3.22217ZM15.5556 11.1106C14.9419 11.1106 14.4444 10.6132 14.4444 9.99951C14.4444 9.38586 14.9419 8.8884 15.5556 8.8884C16.1692 8.8884 16.6667 9.38586 16.6667 9.99951C16.6667 10.6132 16.1692 11.1106 15.5556 11.1106ZM11.1111 9.99951C11.1111 10.6132 11.6086 11.1106 12.2222 11.1106C12.8359 11.1106 13.3333 10.6132 13.3333 9.99951C13.3333 9.38586 12.8359 8.8884 12.2222 8.8884C11.6086 8.8884 11.1111 9.38586 11.1111 9.99951ZM9 8.8884C9.55228 8.8884 10 9.33612 10 9.8884V10.1106C10 10.6629 9.55229 11.1106 9 11.1106H4.33333C3.78105 11.1106 3.33333 10.6629 3.33333 10.1106V9.8884C3.33333 9.33612 3.78105 8.8884 4.33333 8.8884H9Z"
          fill="currentColor"/>
    <path fill-rule="evenodd" clip-rule="evenodd"
          d="M3.22217 13.333C2.66988 13.333 2.22217 13.7807 2.22217 14.333V16.7775C2.22217 17.3297 2.66988 17.7775 3.22217 17.7775H16.7777C17.33 17.7775 17.7777 17.3297 17.7777 16.7775V14.333C17.7777 13.7807 17.33 13.333 16.7777 13.333H3.22217ZM4.44444 16.6664C5.05809 16.6664 5.55556 16.169 5.55556 15.5553C5.55556 14.9417 5.05809 14.4442 4.44444 14.4442C3.83079 14.4442 3.33333 14.9417 3.33333 15.5553C3.33333 16.169 3.83079 16.6664 4.44444 16.6664ZM8.88889 15.5553C8.88889 16.169 8.39143 16.6664 7.77778 16.6664C7.16413 16.6664 6.66667 16.169 6.66667 15.5553C6.66667 14.9417 7.16413 14.4442 7.77778 14.4442C8.39143 14.4442 8.88889 14.9417 8.88889 15.5553ZM11 14.4442C10.4477 14.4442 10 14.8919 10 15.4442V15.6664C10 16.2187 10.4477 16.6664 11 16.6664H15.6667C16.219 16.6664 16.6667 16.2187 16.6667 15.6664V15.4442C16.6667 14.8919 16.219 14.4442 15.6667 14.4442H11Z"
          fill="currentColor"/>
</svg>
