<svg width="21" height="20" viewBox="0 0 21 20" fill="none" xmlns="http://www.w3.org/2000/svg">
<g clip-path="url(#clip0_51_4201)">
<path d="M7.84253 1.25C3.70003 1.25 0.342529 4.04875 0.342529 7.5C0.342529 9.49 1.46503 11.255 3.20628 12.3975L2.21753 14.375L4.91128 13.2212C5.48878 13.4262 6.08878 13.595 6.73003 13.6737C6.64253 13.2925 6.59253 12.9012 6.59253 12.5C6.59253 9.05375 9.95628 6.25 14.0925 6.25C14.4713 6.25 14.8413 6.28125 15.2063 6.32625C14.5463 3.43625 11.5025 1.25 7.84253 1.25ZM5.34253 5.9375C4.82503 5.9375 4.40503 5.5175 4.40503 5C4.40503 4.4825 4.82503 4.0625 5.34253 4.0625C5.86003 4.0625 6.28003 4.4825 6.28003 5C6.28003 5.5175 5.86003 5.9375 5.34253 5.9375ZM10.3425 5.9375C9.82503 5.9375 9.40503 5.5175 9.40503 5C9.40503 4.4825 9.82503 4.0625 10.3425 4.0625C10.86 4.0625 11.28 4.4825 11.28 5C11.28 5.5175 10.86 5.9375 10.3425 5.9375Z" fill="#959CB1"/>
<path d="M20.3425 12.5C20.3425 9.73875 17.5438 7.5 14.0925 7.5C10.6413 7.5 7.84253 9.73875 7.84253 12.5C7.84253 15.2613 10.6413 17.5 14.0925 17.5C14.66 17.5 15.2 17.42 15.7238 17.3063L19.0925 18.75L17.9275 16.4213C19.3875 15.5063 20.3425 14.0988 20.3425 12.5ZM12.2175 12.1875C11.7 12.1875 11.28 11.7675 11.28 11.25C11.28 10.7325 11.7 10.3125 12.2175 10.3125C12.735 10.3125 13.155 10.7325 13.155 11.25C13.155 11.7675 12.735 12.1875 12.2175 12.1875ZM15.9675 12.1875C15.45 12.1875 15.03 11.7675 15.03 11.25C15.03 10.7325 15.45 10.3125 15.9675 10.3125C16.485 10.3125 16.905 10.7325 16.905 11.25C16.905 11.7675 16.485 12.1875 15.9675 12.1875Z" fill="#959CB1"/>
</g>
<defs>
<clipPath id="clip0_51_4201">
<rect width="20" height="20" fill="white" transform="translate(0.342529)"/>
</clipPath>
</defs>
</svg>
