<svg width="71" height="18" fill="none" xmlns="http://www.w3.org/2000/svg"><path d="M51.819 4.603a.888.888 0 01-.248.615.846.846 0 01-.599.255.829.829 0 01-.6-.255.873.873 0 01-.247-.615.888.888 0 01.248-.614.847.847 0 01.599-.255.829.829 0 01.599.255.873.873 0 01.248.614zM66.88 8.42h-2.157v2.2h2.156v-2.2zm-42.755 0h-2.156v2.2h2.156v-2.2zm-6.469 0H15.5v2.2h2.156v-2.2zm-6.368 0H9.133v2.2h2.155v-2.2zm-6.593 0H2.539v2.2h2.156v-2.2z" fill="#283446"/><path d="M7.715 4.03h.255c1.652 0 2.422.883 2.744 3.24l.512-.023-.069-3.74H2.752l-.083 3.74.492.023c.086-.884.188-1.36.41-1.836.392-.884 1.21-1.405 2.217-1.405h.358v8.136c0 .86-.05 1.133-.255 1.337-.171.158-.512.226-.905.226h-.392v.544h4.674v-.544h-.395c-.39 0-.733-.068-.901-.226-.205-.204-.256-.476-.256-1.337V4.029" fill="#ED008C"/><path d="M29.95 14.272l2.724-9.503v7.457c0 .814-.047 1.1-.231 1.298-.139.154-.46.22-.817.22h-.138v.528h3.85v-.528h-.2c-.355 0-.678-.066-.816-.22-.186-.198-.232-.484-.232-1.298V5.87c0-.814.046-1.122.231-1.32.154-.132.462-.22.817-.22h.2v-.506H32.35L30.102 11.5l-2.2-7.677H24.93v.506h.277c.816 0 .97.176.97 1.232v6.05c0 .967-.046 1.363-.185 1.65a.949.949 0 01-.816.483h-.246v.528h3.172v-.528h-.2c-.4 0-.724-.154-.911-.462-.183-.308-.229-.594-.229-1.672V4.77l2.708 9.503h.48m8.703-7.437c-1.91 0-3.157 1.496-3.157 3.85 0 2.266 1.247 3.806 3.109 3.806 1.878 0 3.126-1.54 3.126-3.828 0-2.266-1.248-3.828-3.078-3.828zm-.062.506c.553 0 1.03.352 1.292.946.246.55.354 1.298.354 2.376 0 2.222-.54 3.322-1.632 3.322-1.092 0-1.617-1.1-1.617-3.344 0-1.056.11-1.804.356-2.354.244-.572.74-.946 1.247-.946zm5.697-3.629l-2.186.11v.484h.105c.647 0 .788.22.788 1.254v7.15c0 .923-.031 1.165-.154 1.561h.508c.383-.638.477-.748.632-.748.074 0 .149.022.26.132.756.616 1.08.748 1.772.748 1.661 0 2.862-1.606 2.862-3.894 0-2.156-1.11-3.608-2.772-3.608-.862 0-1.491.418-1.815 1.166V3.713zm1.598 3.74c.987 0 1.495 1.055 1.495 3.123 0 2.178-.523 3.3-1.524 3.3-1.109 0-1.692-1.144-1.692-3.234 0-1.056.139-1.782.462-2.332.29-.528.786-.858 1.259-.858zm5.837-.507l-2.246.132v.484h.17c.644 0 .783.22.783 1.232v3.718c0 1.012-.139 1.254-.783 1.254h-.245v.506h3.353v-.506h-.242c-.649 0-.79-.22-.79-1.254V6.946m3.897-3.233l-2.246.11v.484h.168c.646 0 .785.22.785 1.254v6.951c0 1.034-.139 1.254-.785 1.254h-.245v.506h3.355v-.506h-.246c-.65 0-.786-.22-.786-1.254v-8.8zm7.157 6.907c-.075-2.332-1.183-3.784-2.86-3.784-1.619 0-2.787 1.584-2.787 3.784 0 2.354 1.153 3.872 2.94 3.872 1.154 0 1.955-.616 2.617-1.98l-.462-.242c-.539 1.144-1.078 1.606-1.91 1.606-1.216 0-1.737-.968-1.753-3.256h4.215zm-4.2-.55c.014-1.65.55-2.684 1.415-2.684.862 0 1.37 1.012 1.355 2.684h-2.77zm9.113-3.413c.13 0 .257.033.38.1a.71.71 0 01.29.287.786.786 0 01.002.774.72.72 0 01-.287.287.785.785 0 01-.771 0 .78.78 0 01-.285-1.06.716.716 0 01.29-.288.798.798 0 01.38-.1zm0 .13a.658.658 0 00-.318.083.653.653 0 00-.243.883.651.651 0 00.882.239.652.652 0 00.237-.883.596.596 0 00-.241-.24.659.659 0 00-.317-.083zm-.34 1.073v-.834h.287c.098 0 .169.008.213.023a.205.205 0 01.105.08.222.222 0 01-.026.281.258.258 0 01-.174.077c.03.013.053.027.07.044a.941.941 0 01.124.166l.102.163h-.165l-.074-.132a.688.688 0 00-.14-.193.171.171 0 00-.108-.03h-.08v.355h-.134zm.135-.469h.164c.078 0 .131-.011.16-.035a.114.114 0 00.043-.093.113.113 0 00-.021-.066.123.123 0 00-.057-.044.425.425 0 00-.136-.014h-.154v.252z" fill="#283446"/></svg>