<svg width="65" height="16" fill="none" xmlns="http://www.w3.org/2000/svg"><g clip-path="url(#clip0_292_17054)" fill="#4A6CF7"><path d="M63.568.85l-3.545 7.522-1.333-2.85h-1.442l2.192 4.662h1.165L65 .85h-1.432zM48.36 14.817h2.854V9.636c0-1.185.691-2.018 1.718-2.018.988 0 1.501.686 1.501 1.675v5.524h2.854V8.754c0-2.057-1.244-3.506-3.259-3.506-1.283 0-2.182.548-2.854 1.547h-.059V5.522H48.35l.01 9.295zm-5.61-9.55c-2.982 0-4.977 2.126-4.977 4.927 0 2.782 1.995 4.927 4.978 4.927 2.982 0 4.977-2.145 4.977-4.927.01-2.801-1.995-4.927-4.977-4.927zm-.02 7.758c-1.352 0-2.073-1.127-2.073-2.831 0-1.724.711-2.83 2.074-2.83 1.353 0 2.103 1.106 2.103 2.83.01 1.704-.74 2.83-2.103 2.83zm-13.094 1.792h8.019v-2.233h-4.543v-.059l4.345-4.829V5.512h-7.821v2.243h4.395v.059l-4.395 4.868v2.135zm-3.664 0h2.874V5.522h-2.874v9.295zm-6.666 0h2.864v-4.27c0-1.94 1.175-2.802 2.963-2.557h.06V5.542c-.15-.06-.317-.069-.584-.069-1.116 0-1.866.51-2.508 1.597h-.06V5.522h-2.735v9.295zm-5.253-1.783c-1.264 0-2.035-.813-2.183-2.066h6.755c.02-1.998-.514-3.595-1.63-4.594-.79-.725-1.827-1.126-3.15-1.126-2.824 0-4.78 2.125-4.78 4.907 0 2.801 1.867 4.936 4.968 4.936 1.175 0 2.103-.313 2.874-.832.82-.559 1.412-1.381 1.57-2.194H15.73c-.266.607-.839.97-1.678.97zm-.149-5.759c1.008 0 1.699.745 1.818 1.832H11.89c.227-1.097.83-1.832 2.014-1.832zM3.359 14.817H6.36l3.259-9.295H6.745l-1.827 5.975h-.04L3.051 5.522H.1l3.259 9.295zM25.972 2.211h2.874v2.527h-2.874V2.211z"/></g><defs><clipPath id="clip0_292_17054"><path fill="#fff" transform="translate(0 .85)" d="M0 0h65v14.3H0z"/></clipPath></defs></svg>