<svg width="20" height="20" viewBox="0 0 20 20" fill="none" xmlns="http://www.w3.org/2000/svg">
<path fill-rule="evenodd" clip-rule="evenodd" d="M3 3C3 1.34315 4.34315 0 6 0H13.3333C14.9902 0 16.3333 1.34315 16.3333 3V17C16.3333 18.6569 14.9902 20 13.3333 20H6C4.34314 20 3 18.6569 3 17V3ZM4.11111 3.61111C4.11111 2.32429 5.08335 1.26455 6.33333 1.12637V2.33333C6.33333 2.88562 6.78105 3.33333 7.33333 3.33333H12C12.5523 3.33333 13 2.88562 13 2.33333V1.12637C14.25 1.26455 15.2222 2.32429 15.2222 3.61111V16.3889C15.2222 17.7696 14.1029 18.8889 12.7222 18.8889H6.61111C5.2304 18.8889 4.11111 17.7696 4.11111 16.3889V3.61111Z" fill="#4A6CF7"/>
<rect x="6.65747" y="17" width="6" height="1" rx="0.5" fill="#4A6CF7"/>
</svg>
