<svg width="18" height="19" viewBox="0 0 18 19" fill="none" xmlns="http://www.w3.org/2000/svg">
<path fill-rule="evenodd" clip-rule="evenodd" d="M9 0.5C4.02944 0.5 0 4.52944 0 9.5V18.5H9C13.9706 18.5 18 14.4706 18 9.5C18 4.52944 13.9706 0.5 9 0.5ZM9.26628 11.0073C9.26628 11.2509 9.46375 11.4483 9.70735 11.4483H10.4262C10.6237 11.4483 10.7838 11.2882 10.7838 11.0907C10.7838 10.9238 10.8048 10.7828 10.8468 10.6675C10.8926 10.5483 10.9766 10.4291 11.0988 10.3099C11.2209 10.1907 11.3966 10.0437 11.6256 9.86887C11.931 9.63841 12.1849 9.41987 12.3873 9.21325C12.5934 9.00265 12.7461 8.77616 12.8454 8.53378C12.9485 8.28742 13 7.99735 13 7.66358C13 7.03576 12.7748 6.51921 12.3243 6.11391C11.8776 5.70464 11.2458 5.5 10.4288 5.5C9.89812 5.5 9.40945 5.56954 8.96278 5.70861C8.74307 5.77506 8.53122 5.85209 8.32722 5.93969C7.97418 6.09128 7.84772 6.51188 8.01347 6.85849C8.19409 7.2362 8.65086 7.3828 9.04065 7.22998C9.13544 7.19281 9.22974 7.15854 9.32355 7.12715C9.64806 7.01987 9.97447 6.96623 10.3028 6.96623C10.6311 6.96623 10.8869 7.03377 11.0702 7.16887C11.2534 7.30397 11.345 7.50066 11.345 7.75894C11.345 7.93377 11.3107 8.09073 11.2419 8.2298C11.177 8.3649 11.0721 8.50199 10.927 8.64106C10.7857 8.78013 10.5968 8.93709 10.3601 9.11192C10.0966 9.3106 9.88475 9.5053 9.72441 9.69603C9.56407 9.88278 9.44763 10.0815 9.37509 10.2921C9.30255 10.4987 9.26628 10.7371 9.26628 11.0073ZM9.37509 12.7C9.18039 12.851 9.08303 13.1132 9.08303 13.4868C9.08303 13.8444 9.18039 14.1026 9.37509 14.2616C9.57361 14.4205 9.81222 14.5 10.0909 14.5C10.362 14.5 10.5948 14.4205 10.7895 14.2616C10.9881 14.1026 11.0873 13.8444 11.0873 13.4868C11.0873 13.1132 10.9881 12.851 10.7895 12.7C10.5948 12.549 10.362 12.4735 10.0909 12.4735C9.81222 12.4735 9.57361 12.549 9.37509 12.7ZM6.0136 11.4483C6.40498 11.4483 6.72763 11.1415 6.74724 10.7506L6.95467 6.61462C6.98167 6.07636 6.55253 5.62517 6.0136 5.62517C5.47467 5.62517 5.04554 6.07636 5.07253 6.61461L5.27997 10.7506C5.29957 11.1415 5.62222 11.4483 6.0136 11.4483ZM5.29205 12.7C5.09735 12.851 5 13.1132 5 13.4868C5 13.8444 5.09735 14.1026 5.29205 14.2616C5.49057 14.4205 5.72918 14.5 6.00787 14.5C6.27893 14.5 6.51181 14.4205 6.70651 14.2616C6.90503 14.1026 7.00429 13.8444 7.00429 13.4868C7.00429 13.1132 6.90503 12.851 6.70651 12.7C6.51181 12.549 6.27893 12.4735 6.00787 12.4735C5.72918 12.4735 5.49057 12.549 5.29205 12.7Z" fill="#4A6CF7"/>
</svg>
