<svg width="20" height="20" fill="none" xmlns="http://www.w3.org/2000/svg"><path fill-rule="evenodd" clip-rule="evenodd" d="M6.333 2a3 3 0 00-3 3v9.556a3 3 0 003 3h7.334a3 3 0 003-3V5a3 3 0 00-3-3H6.333zm-.06.864a2.2 2.2 0 00-2.2 2.2v9.427a2.2 2.2 0 002.2 2.2h7.453a2.2 2.2 0 002.2-2.2V5.064a2.2 2.2 0 00-2.2-2.2H6.274z" fill="#4A6CF7"/><path fill-rule="evenodd" clip-rule="evenodd" d="M6 3.729a1 1 0 00-1 1v1.456a1 1 0 001 1h8a1 1 0 001-1V4.73a1 1 0 00-1-1H6zm.667 2.592c.46 0 .833-.387.833-.864 0-.478-.373-.864-.833-.864-.46 0-.834.386-.834.864 0 .477.373.864.834.864zM10 5.457c0 .477-.373.864-.833.864-.46 0-.834-.387-.834-.864 0-.478.373-.864.834-.864.46 0 .833.386.833.864zm1.697-.864a.864.864 0 100 1.728h1.606a.864.864 0 100-1.728h-1.606zM6 8.049a1 1 0 00-1 1v1.457a1 1 0 001 1h8a1 1 0 001-1V9.049a1 1 0 00-1-1H6zm7.333 2.592c-.46 0-.833-.386-.833-.864 0-.477.373-.864.833-.864.46 0 .834.387.834.864 0 .478-.373.864-.834.864zM10 9.777c0 .478.373.864.833.864.46 0 .834-.386.834-.864 0-.477-.373-.864-.834-.864-.46 0-.833.387-.833.864zm-1.698-.864a.864.864 0 110 1.728H6.697a.864.864 0 110-1.728h1.605zM6 12.37a1 1 0 00-1 1v1.457a1 1 0 001 1h8a1 1 0 001-1V13.37a1 1 0 00-1-1H6zm.667 2.593c.46 0 .833-.387.833-.864 0-.478-.373-.865-.833-.865-.46 0-.834.387-.834.864 0 .478.373.865.834.865zM10 14.099c0 .477-.373.864-.833.864-.46 0-.834-.387-.834-.864 0-.478.373-.865.834-.865.46 0 .833.387.833.864zm1.697-.865a.864.864 0 100 1.729h1.606a.864.864 0 100-1.729h-1.606zm-8.364-.864h-.555c-.614 0-1.111.498-1.111 1.111v1.235c0 .613.497 1.11 1.11 1.11h.838a2.978 2.978 0 01-.254-.864h-.028c-.46 0-.833-.386-.833-.863 0-.478.373-.865.833-.865v-.864zm13.333 0h.556c.614 0 1.111.498 1.111 1.111v1.235a1.11 1.11 0 01-1.11 1.11h-.838c.125-.268.213-.559.254-.864h.028c.46 0 .833-.386.833-.863 0-.478-.373-.865-.833-.865v-.864zM3.333 8.049h-.555a1.11 1.11 0 00-1.111 1.11v1.236c0 .613.497 1.11 1.11 1.11h.556v-.864a.864.864 0 010-1.727v-.865zm13.333 0h.556a1.11 1.11 0 011.111 1.11v1.236a1.11 1.11 0 01-1.11 1.11h-.556v-.864a.864.864 0 000-1.727v-.865zM3.333 6.32c-.46 0-.833-.386-.833-.863 0-.478.373-.864.833-.864h.028c.041-.305.128-.596.254-.864h-.837a1.11 1.11 0 00-1.111 1.11v1.235a1.11 1.11 0 001.11 1.111h.556v-.864zm13.333 0c.46 0 .834-.386.834-.863 0-.478-.373-.864-.833-.864a.83.83 0 00-.028 0 2.981 2.981 0 00-.254-.864h.837a1.11 1.11 0 011.111 1.11v1.235a1.11 1.11 0 01-1.11 1.111h-.556v-.864z" fill="#4A6CF7"/><path fill-rule="evenodd" clip-rule="evenodd" d="M0 5.333A3.333 3.333 0 013.333 2h3a2.99 2.99 0 00-2.106.864H3.185A2.444 2.444 0 00.741 5.31v8.938a2.444 2.444 0 002.444 2.444h1.042a2.99 2.99 0 002.104.865H3.333A3.333 3.333 0 010 14.222V5.333zm20 0A3.333 3.333 0 0016.667 2h-3c.82 0 1.565.33 2.107.864h1.04A2.444 2.444 0 0119.26 5.31v8.938a2.444 2.444 0 01-2.444 2.444h-1.042a2.99 2.99 0 01-2.104.865h2.998A3.333 3.333 0 0020 14.222V5.333z" fill="#4A6CF7"/></svg>