<svg width="18" height="19" fill="none" xmlns="http://www.w3.org/2000/svg"><path fill-rule="evenodd" clip-rule="evenodd" d="M9 .5a9 9 0 00-9 9v9h9a9 9 0 100-18zm.266 10.507c0 .244.198.441.441.441h.72c.197 0 .357-.16.357-.357 0-.167.02-.308.063-.423.046-.12.13-.239.252-.358a5.85 5.85 0 01.527-.441c.305-.23.559-.45.761-.656.206-.21.36-.437.458-.68.103-.246.155-.536.155-.87 0-.627-.225-1.144-.676-1.55-.446-.408-1.078-.613-1.895-.613-.53 0-1.02.07-1.466.209-.22.066-.432.143-.636.23-.353.152-.48.573-.314.92.181.377.638.524 1.028.371.094-.037.189-.071.283-.103.324-.107.65-.16.979-.16.328 0 .584.067.767.202.183.135.275.332.275.59 0 .175-.034.332-.103.47-.065.136-.17.273-.315.412a5.11 5.11 0 01-.567.47 3.878 3.878 0 00-.636.585c-.16.187-.276.386-.349.596a2.155 2.155 0 00-.109.715zm.11 1.693c-.196.151-.293.413-.293.787 0 .357.097.616.292.775.199.159.437.238.716.238.271 0 .504-.08.699-.238.198-.16.297-.418.297-.775 0-.374-.099-.636-.297-.787a1.106 1.106 0 00-.7-.226c-.278 0-.516.075-.715.226zm-3.362-1.252a.735.735 0 00.733-.697l.208-4.136a.942.942 0 10-1.882 0l.207 4.136c.02.39.342.697.734.697zM5.292 12.7c-.195.151-.292.413-.292.787 0 .357.097.616.292.775.199.159.437.238.716.238.27 0 .504-.08.699-.238.198-.16.297-.418.297-.775 0-.374-.099-.636-.297-.787a1.106 1.106 0 00-.7-.226c-.278 0-.516.075-.715.226z" fill="#4A6CF7"/></svg>