<svg width="71" height="18" viewBox="0 0 71 18" fill="none" xmlns="http://www.w3.org/2000/svg">
<path d="M51.8189 4.60347C51.819 4.71763 51.7971 4.83067 51.7546 4.93615C51.712 5.04163 51.6496 5.13747 51.571 5.21821C51.4923 5.29895 51.399 5.36299 51.2962 5.40669C51.1934 5.45039 51.0832 5.47288 50.972 5.47288C50.8607 5.47288 50.7505 5.45039 50.6477 5.40669C50.545 5.36299 50.4516 5.29895 50.3729 5.21821C50.2943 5.13747 50.2319 5.04163 50.1893 4.93615C50.1468 4.83067 50.1249 4.71763 50.125 4.60347C50.1249 4.48932 50.1468 4.37628 50.1893 4.2708C50.2319 4.16532 50.2943 4.06948 50.3729 3.98874C50.4516 3.908 50.545 3.84395 50.6477 3.80026C50.7505 3.75656 50.8607 3.73407 50.972 3.73407C51.0832 3.73407 51.1934 3.75656 51.2962 3.80026C51.399 3.84395 51.4923 3.908 51.571 3.98874C51.6496 4.06948 51.712 4.16532 51.7546 4.2708C51.7971 4.37628 51.819 4.48932 51.8189 4.60347Z" fill="#283446"/>
<path d="M66.8792 8.42035H64.7234V10.6203H66.8792V8.42035Z" fill="#283446"/>
<path d="M24.1246 8.42035H21.9688V10.6203H24.1246V8.42035Z" fill="#283446"/>
<path d="M17.6558 8.42035H15.5V10.6203H17.6558V8.42035Z" fill="#283446"/>
<path d="M11.2884 8.42035H9.13257V10.6203H11.2884V8.42035Z" fill="#283446"/>
<path d="M4.69463 8.42035H2.53882V10.6203H4.69463V8.42035Z" fill="#283446"/>
<path d="M7.71464 4.02907H7.97041C9.62244 4.02907 10.3924 4.91284 10.7142 7.26968L11.2257 7.24707L11.1575 3.50775H2.75106L2.66821 7.24707L3.16049 7.26968C3.24575 6.38592 3.348 5.90997 3.56991 5.43402C3.96221 4.55012 4.78093 4.02907 5.78716 4.02907H6.14533V12.1646C6.14533 13.0257 6.0942 13.2977 5.88969 13.5017C5.71904 13.6603 5.37787 13.7283 4.98544 13.7283H4.59315V14.2721H9.26682V13.7283H8.87211C8.48223 13.7283 8.13865 13.6602 7.97055 13.5017C7.7659 13.2977 7.71477 13.0256 7.71477 12.1646V4.02907" fill="#ED008C"/>
<path d="M29.95 14.2722L32.6737 4.76856V12.2264C32.6737 13.0403 32.6274 13.3264 32.4427 13.5243C32.304 13.6782 31.9827 13.7444 31.6264 13.7444H31.4879V14.2722H35.3379V13.7444H35.1375C34.7834 13.7444 34.46 13.6784 34.3215 13.5243C34.1365 13.3264 34.0903 13.0403 34.0903 12.2264V5.86862C34.0903 5.05458 34.1365 4.74661 34.3215 4.54866C34.4754 4.41669 34.7834 4.32862 35.1375 4.32862H35.3379V3.82256H32.3504L30.1019 11.5003L27.9019 3.82256H24.9298V4.32862H25.2069C26.0232 4.32862 26.1771 4.50462 26.1771 5.56065V11.6104C26.1771 12.5783 26.1309 12.9744 25.9923 13.2604C25.8383 13.5464 25.5127 13.7444 25.1761 13.7444H24.9297V14.2722H28.1019V13.7444H27.9018C27.5015 13.7444 27.178 13.5903 26.991 13.2823C26.8084 12.9744 26.7623 12.6883 26.7623 11.6104V4.76869L29.4703 14.2724H29.95" fill="#283446"/>
<path d="M38.6529 6.83643C36.7434 6.83643 35.4961 8.33239 35.4961 10.6864C35.4961 12.9524 36.7434 14.4924 38.6047 14.4924C40.4832 14.4924 41.7306 12.9524 41.7306 10.6645C41.7306 8.39838 40.4832 6.83643 38.6529 6.83643ZM38.5914 7.34235C39.1436 7.34235 39.6209 7.69436 39.8827 8.28836C40.1291 8.83832 40.2368 9.58637 40.2368 10.6643C40.2368 12.8861 39.6978 13.9861 38.6046 13.9861C37.5134 13.9861 36.9875 12.886 36.9875 10.6423C36.9875 9.58623 37.0974 8.83832 37.3438 8.28836C37.5882 7.71645 38.0831 7.34235 38.5914 7.34235Z" fill="#283446"/>
<path d="M44.2884 3.71254L42.1016 3.82256V4.30654H42.2072C42.854 4.30654 42.9948 4.52658 42.9948 5.56051V12.7103C42.9948 13.6342 42.964 13.8763 42.8409 14.2722H43.3491C43.7318 13.6342 43.8264 13.5243 43.9805 13.5243C44.0553 13.5243 44.13 13.5463 44.2401 13.6563C44.9967 14.2722 45.3201 14.4042 46.0131 14.4042C47.674 14.4042 48.8752 12.7982 48.8752 10.5103C48.8752 8.35436 47.7642 6.90243 46.1033 6.90243C45.241 6.90243 44.6118 7.32042 44.2884 8.06833V3.71254ZM45.8856 7.45239C46.8735 7.45239 47.3815 8.50841 47.3815 10.5763C47.3815 12.7542 46.8579 13.8762 45.8569 13.8762C44.7482 13.8762 44.165 12.7321 44.165 10.6423C44.165 9.58625 44.3038 8.86042 44.6272 8.31032C44.9175 7.78244 45.4126 7.45239 45.8856 7.45239Z" fill="#283446"/>
<path d="M51.7233 6.94646L49.4772 7.07843V7.5624H49.6466C50.2911 7.5624 50.4299 7.78244 50.4299 8.79443V12.5123C50.4299 13.5244 50.2912 13.7664 49.6466 13.7664H49.4023V14.2722H52.7552V13.7664H52.5131C51.8641 13.7664 51.7235 13.5463 51.7235 12.5123V6.94646" fill="#283446"/>
<path d="M55.6203 3.71254L53.3742 3.82256V4.30654H53.5416C54.1884 4.30654 54.3269 4.52658 54.3269 5.56051V12.5122C54.3269 13.5463 54.1884 13.7663 53.5416 13.7663H53.2974V14.2721H56.6521V13.7663H56.4057C55.7567 13.7663 55.6203 13.5461 55.6203 12.5122V3.71254Z" fill="#283446"/>
<path d="M62.7773 10.6203C62.7023 8.28836 61.5936 6.83643 59.9173 6.83643C58.2981 6.83643 57.1299 8.42033 57.1299 10.6203C57.1299 12.9742 58.2827 14.4923 60.0691 14.4923C61.224 14.4923 62.0248 13.8762 62.6871 12.5122L62.2252 12.2702C61.6862 13.4142 61.1472 13.8762 60.3155 13.8762C59.099 13.8762 58.5777 12.9084 58.562 10.6203H62.7773ZM58.5775 10.0702C58.5908 8.42033 59.1274 7.38639 59.992 7.38639C60.8543 7.38639 61.3624 8.39838 61.3471 10.0702H58.5775Z" fill="#283446"/>
<path d="M67.6897 6.65707C67.8198 6.65707 67.9468 6.6904 68.0707 6.75719C68.1947 6.82398 68.2912 6.91954 68.3602 7.04375C68.4296 7.16795 68.4641 7.29751 68.4641 7.43243C68.4641 7.566 68.43 7.69436 68.3617 7.8175C68.2937 7.94077 68.198 8.03646 68.0753 8.10459C67.9523 8.17271 67.8238 8.20684 67.6895 8.20684C67.5553 8.20684 67.4268 8.17285 67.3038 8.10459C67.1809 8.03646 67.0851 7.9409 67.0169 7.8175C66.9483 7.69436 66.9141 7.566 66.9141 7.43243C66.9141 7.29751 66.9487 7.16795 67.0183 7.04375C67.0878 6.91954 67.1846 6.82384 67.3082 6.75719C67.4327 6.6904 67.5597 6.65707 67.6897 6.65707ZM67.6897 6.7861C67.581 6.7861 67.475 6.81394 67.3722 6.86975C67.2693 6.92557 67.1887 7.00507 67.1305 7.10866C67.0724 7.21225 67.0435 7.32027 67.0435 7.43229C67.0435 7.54378 67.072 7.65059 67.1291 7.75285C67.1862 7.85511 67.2661 7.93474 67.3686 7.99189C67.4712 8.04904 67.5783 8.07755 67.6897 8.07755C67.8013 8.07755 67.9081 8.04904 68.0108 7.99189C68.1133 7.93487 68.1929 7.85524 68.2497 7.75285C68.3064 7.65059 68.3349 7.54378 68.3349 7.43229C68.3349 7.32027 68.306 7.21225 68.2482 7.10866C68.1904 7.0052 68.11 6.92557 68.0066 6.86975C67.9034 6.81394 67.7978 6.7861 67.6897 6.7861ZM67.3497 7.85992V7.02608H67.6368C67.7347 7.02608 67.8059 7.03384 67.8496 7.04923C67.8937 7.06463 67.9286 7.09153 67.9546 7.12994C67.9807 7.16822 67.9938 7.20904 67.9938 7.25214C67.9938 7.31304 67.9718 7.36618 67.9282 7.41128C67.8848 7.45639 67.8269 7.48182 67.7547 7.4873C67.7843 7.49962 67.8079 7.51434 67.8257 7.53147C67.8594 7.56427 67.9005 7.61941 67.9491 7.69677L68.0509 7.86006H67.8859L67.8116 7.72849C67.7534 7.62556 67.7067 7.56105 67.6715 7.53482C67.6469 7.51541 67.6109 7.50577 67.5636 7.50577H67.4844V7.86006H67.3497V7.85992ZM67.4845 7.39121H67.6486C67.7268 7.39121 67.7802 7.37956 67.8088 7.35614C67.8374 7.33271 67.8515 7.3018 67.8515 7.26325C67.8515 7.23849 67.8447 7.21627 67.8309 7.19673C67.8171 7.17719 67.7982 7.16247 67.7736 7.15283C67.7492 7.14319 67.704 7.13851 67.638 7.13851H67.4845V7.39121Z" fill="#283446"/>
</svg>
