<svg width="65" height="16" viewBox="0 0 65 16" fill="none" xmlns="http://www.w3.org/2000/svg">
<g clip-path="url(#clip0_292_17054)">
<path d="M63.5681 0.850006L60.0228 8.3722L58.6896 5.52199H57.2478L59.4401 10.1842H60.6054L65 0.850006H63.5681Z" fill="#4A6CF7"/>
<path d="M48.3598 14.817H51.2138V9.63568C51.2138 8.45055 51.9051 7.61801 52.9321 7.61801C53.9197 7.61801 54.4332 8.30363 54.4332 9.29288V14.817H57.2872V8.75418C57.2872 6.69733 56.0429 5.24774 54.0283 5.24774C52.7445 5.24774 51.8458 5.79623 51.1743 6.79527H51.115V5.52199H48.3499L48.3598 14.817ZM42.7506 5.26733C39.7682 5.26733 37.7734 7.39274 37.7734 10.194C37.7734 12.9756 39.7682 15.1206 42.7506 15.1206C45.7329 15.1206 47.7278 12.9756 47.7278 10.194C47.7377 7.39274 45.7329 5.26733 42.7506 5.26733ZM42.7308 13.0246C41.3779 13.0246 40.657 11.8982 40.657 10.194C40.657 8.47014 41.368 7.36336 42.7308 7.36336C44.0838 7.36336 44.8343 8.47014 44.8343 10.194C44.8442 11.8982 44.0936 13.0246 42.7308 13.0246ZM29.636 14.817H37.6549V12.5838H33.1122V12.5251L37.4573 7.69637V5.51219H29.636V7.75514H34.0306V7.8139L29.636 12.6818V14.817ZM25.9722 14.817H28.846V5.52199H25.9722V14.817ZM19.3063 14.817H22.1702V10.5466C22.1702 8.60726 23.3454 7.74534 25.1328 7.99021H25.1921V5.54158C25.0439 5.48281 24.8761 5.47302 24.6094 5.47302C23.4935 5.47302 22.743 5.98233 22.1011 7.06952H22.0418V5.52199H19.3063V14.817ZM14.0526 13.0344C12.7885 13.0344 12.0183 12.2214 11.8701 10.9677H18.6249C18.6447 8.96966 18.1114 7.37315 16.9955 6.37411C16.2054 5.64932 15.1685 5.24774 13.8452 5.24774C11.0208 5.24774 9.06551 7.37315 9.06551 10.1548C9.06551 12.956 10.932 15.0912 14.0329 15.0912C15.208 15.0912 16.1363 14.7778 16.9066 14.2587C17.7263 13.7004 18.3188 12.8777 18.4768 12.0647H15.7314C15.4648 12.672 14.892 13.0344 14.0526 13.0344ZM13.9045 7.27521C14.9118 7.27521 15.603 8.01959 15.7215 9.10678H11.8899C12.117 8.00979 12.7194 7.27521 13.9045 7.27521ZM3.35752 14.817H6.35965L9.61854 5.52199H6.74479L4.91784 11.4966H4.87834L3.05138 5.52199H0.0986328L3.35752 14.817ZM25.9722 2.21144H28.846V4.73843H25.9722V2.21144Z" fill="#4A6CF7"/>
</g>
<defs>
<clipPath id="clip0_292_17054">
<rect width="65" height="14.3" fill="white" transform="translate(0 0.850006)"/>
</clipPath>
</defs>
</svg>
